<?xml version="1.0" encoding="UTF-8" standalone="no"?>
<!-- Created with Inkscape (http://www.inkscape.org/) -->

<svg
   xmlns:dc="http://purl.org/dc/elements/1.1/"
   xmlns:cc="http://creativecommons.org/ns#"
   xmlns:rdf="http://www.w3.org/1999/02/22-rdf-syntax-ns#"
   xmlns:svg="http://www.w3.org/2000/svg"
   xmlns="http://www.w3.org/2000/svg"
   xmlns:sodipodi="http://sodipodi.sourceforge.net/DTD/sodipodi-0.dtd"
   xmlns:inkscape="http://www.inkscape.org/namespaces/inkscape"
   width="210mm"
   height="297mm"
   viewBox="0 0 744.09448819 1052.3622047"
   id="svg4544"
   version="1.1"
   inkscape:version="0.91 r13725"
   sodipodi:docname="fire.svg"
   inkscape:export-filename="/home/mitel/sigla.png"
   inkscape:export-xdpi="90"
   inkscape:export-ydpi="90">
  <defs
     id="defs4546" />
  <sodipodi:namedview
     id="base"
     pagecolor="#ffffff"
     bordercolor="#666666"
     borderopacity="1.0"
     inkscape:pageopacity="0.0"
     inkscape:pageshadow="2"
     inkscape:zoom="0.7"
     inkscape:cx="334.17152"
     inkscape:cy="510.67396"
     inkscape:document-units="px"
     inkscape:current-layer="layer1"
     showgrid="false"
     inkscape:window-width="1920"
     inkscape:window-height="1029"
     inkscape:window-x="0"
     inkscape:window-y="27"
     inkscape:window-maximized="1" />
  <metadata
     id="metadata4549">
    <rdf:RDF>
      <cc:Work
         rdf:about="">
        <dc:format>image/svg+xml</dc:format>
        <dc:type
           rdf:resource="http://purl.org/dc/dcmitype/StillImage" />
        <dc:title></dc:title>
      </cc:Work>
    </rdf:RDF>
  </metadata>
  <g
     inkscape:label="Layer 1"
     inkscape:groupmode="layer"
     id="layer1">
    <path
       style="fill:#fa0000;fill-opacity:1;fill-rule:evenodd;stroke:none;stroke-width:1.41631114px;stroke-linecap:butt;stroke-linejoin:miter;stroke-opacity:1"
       d="m 548.23272,998.64513 c 0,0 -138.17983,61.13197 -210.06061,53.65687 C 292.89155,1047.5931 215.6329,991.99727 215.6329,991.99727 163.02478,801.86344 75.217765,648.5715 31.584779,516.38062 -17.439802,367.85535 135.53322,105.62262 170.54688,110.62458 c -59.3995,28.28543 -75.013285,504.95458 73.42573,85.14582 16.40811,-46.40467 56.84298,-136.280737 56.84298,-136.280737 0,0 13.93063,149.547617 46.96369,146.662797 62.98024,-5.50022 101.38415,-183.221087 157.96008,-189.941215 -36.01504,53.511714 -8.09548,159.811065 26.0623,233.958495 41.09116,89.19807 -26.02173,210.77998 117.48945,21.77337 19.45746,298.58051 -111.12834,521.67455 -101.05839,726.70202 z"
       id="path4290"
       inkscape:connector-curvature="0"
       sodipodi:nodetypes="cacscscscscc" />
    <path
       style="fill:#fa9e00;fill-opacity:1;fill-rule:evenodd;stroke:none;stroke-width:1.41631114px;stroke-linecap:butt;stroke-linejoin:miter;stroke-opacity:1"
       d="m 478.10163,969.77471 c 0,0 -89.58844,43.92139 -136.35023,37.78379 -26.92369,-3.5337 -70.2325,-41.27637 -70.2325,-41.27637 C 237.6714,843.95208 172.56941,747.8027 144.49641,662.75251 112.95452,567.19295 89.413299,398.47523 111.94071,401.69343 c -38.217,18.19855 44.84836,323.57093 140.35242,53.47049 10.5568,-29.85626 30.01504,-103.41865 30.01504,-103.41865 0,0 27.32275,122.44581 48.57587,120.58975 40.52081,-3.53879 80.96656,-179.5194 117.3669,-183.84307 -23.17169,34.42886 -3.89712,155.27768 18.07963,202.98335 26.43761,57.38907 26.53489,134.30214 118.86844,12.69732 -56.28627,263.0935 -112.54082,365.98554 -107.09738,465.60209 z"
       id="path4290-6"
       inkscape:connector-curvature="0"
       sodipodi:nodetypes="cacscscscscc" />
    <path
       style="fill:#faee1f;fill-opacity:0.96862745;fill-rule:evenodd;stroke:none;stroke-width:1.41631114px;stroke-linecap:butt;stroke-linejoin:miter;stroke-opacity:1"
       d="m 435.1738,950.30041 c 0,0 -57.77607,28.3251 -87.933,24.367 -17.36323,-2.279 -45.29331,-26.61938 -45.29331,-26.61938 -21.82843,-78.8913 -63.81305,-140.89855 -81.91748,-195.74787 -20.34153,-61.62687 -35.52339,-170.43383 -20.99535,-168.3584 -24.64634,11.73634 28.92295,208.67262 90.51403,34.48341 6.80814,-19.25447 19.35686,-66.69524 19.35686,-66.69524 0,0 17.62059,78.96595 31.32684,77.76897 26.13208,-2.28218 52.21576,-115.77302 75.69054,-118.56138 -14.94355,22.20336 -2.51328,100.13941 11.65965,130.90505 17.04975,37.01052 17.11249,86.61217 76.65889,8.18857 -36.29932,169.6704 -72.57818,236.02603 -69.06767,300.26927 z"
       id="path4290-6-1"
       inkscape:connector-curvature="0"
       sodipodi:nodetypes="cacscscscscc" />
  </g>
</svg>
