<svg xmlns:dc="http://purl.org/dc/elements/1.1/" xmlns:cc="http://creativecommons.org/ns#" xmlns:rdf="http://www.w3.org/1999/02/22-rdf-syntax-ns#" xmlns:svg="http://www.w3.org/2000/svg" xmlns="http://www.w3.org/2000/svg" xmlns:sodipodi="http://sodipodi.sourceforge.net/DTD/sodipodi-0.dtd" xmlns:inkscape="http://www.inkscape.org/namespaces/inkscape" version="1.1" height="1216.19" width="2178.18" viewBox="-.2 -236 2178.99 1216.19" id="deck" ><g xmlns="http://www.w3.org/2000/svg" id="_x31_0_x5F_club" class="card">
      <g id="g14429">
        <g id="base_9_">
          <path d="m 1507.61,0.138 c 0,3.779 3.089,6.868 6.867,6.868 l 152.788,0 c 3.769,0 6.857,-3.089 6.857,-6.868 l 0,-228.315 c 0,-3.779 -3.089,-6.867 -6.857,-6.867 l -152.788,0 c -3.778,0 -6.867,3.088 -6.867,6.867 l 0,228.315 z" id="path14432" inkscape:connector-curvature="0" style="fill:#ffffff;stroke:#000000;stroke-width:2.5"/>
        </g>
      </g>
      <g id="g14434">
        <g id="n_10">
          <text transform="matrix(0.44,0,0,1,1508.9612,-198.793)" font-size="40" id="text14437" style="font-size:40px;font-family:CopperplateGothic-Bold">10</text>
        </g>
      </g>
      <g id="g14439">
        <g id="n_10_1_">
          <text transform="matrix(-0.44,0,0,-1,1673.6292,-30.019)" font-size="40" id="text14442" style="font-size:40px;font-family:CopperplateGothic-Bold">10</text>
        </g>
      </g>
      <g id="g14444">
        <g id="club_63_">
          <path d="m 1517.915,-189.568 c 0,1.81 1.51,3.279 3.379,3.279 1.869,0 3.379,-1.469 3.379,-3.279 0,-1.809 -1.51,-3.278 -3.379,-3.278 -1.869,0 -3.379,1.469 -3.379,3.278 z" id="path14447" inkscape:connector-curvature="0"/>
          <path d="m 1513.557,-183.36 c 0,1.809 1.51,3.279 3.379,3.279 1.869,0 3.379,-1.47 3.379,-3.279 0,-1.81 -1.51,-3.279 -3.379,-3.279 -1.869,0 -3.379,1.469 -3.379,3.279 z" id="path14449" inkscape:connector-curvature="0"/>
          <path d="m 1522.214,-183.34 c 0,0.66 0.2,1.279 0.55,1.799 0.6,0.89 1.649,1.479 2.829,1.479 1.869,0 3.379,-1.47 3.379,-3.279 0,-1.81 -1.51,-3.279 -3.379,-3.279 -1.869,0 -3.379,1.47 -3.379,3.28 z" id="path14451" inkscape:connector-curvature="0"/>
          <path d="m 1517.326,-176.973 c 1.669,0 2.549,-1.359 3.008,-2.719 0.46,-1.359 0.5,-2.719 0.5,-2.719 l 0.86,0 c 0,0 0.159,5.428 3.498,5.438 l -7.866,0 z" id="path14453" inkscape:connector-curvature="0"/>
          <path d="m 1523.583,-187.159 c -1.899,1.899 -1.899,4.749 -1.899,4.749 l -0.85,0.01 c 0,0 0,-2.909 -1.849,-4.758" id="path14455" inkscape:connector-curvature="0"/>
          <path d="m 1523.203,-181.062 c -1.898,-1.899 -4.748,-1.899 -4.748,-1.899 l 0,-0.85 c 0,0 2.909,0 4.758,-1.85" id="path14457" inkscape:connector-curvature="0"/>
          <path d="m 1519.395,-181.051 c 1.899,-1.899 4.748,-1.899 4.748,-1.899 l 0,-0.85 c 0,0 -2.908,0 -4.758,-1.849" id="path14459" inkscape:connector-curvature="0"/>
        </g>
      </g>
      <g id="g14461">
        <g id="club_64_">
          <path d="m 1664.831,-39.467 c 0,-1.81 -1.51,-3.279 -3.379,-3.279 -1.869,0 -3.379,1.469 -3.379,3.279 0,1.809 1.51,3.279 3.379,3.279 1.869,0 3.379,-1.47 3.379,-3.279 z" id="path14464" inkscape:connector-curvature="0"/>
          <path d="m 1669.19,-45.675 c 0,-1.809 -1.51,-3.279 -3.379,-3.279 -1.869,0 -3.379,1.47 -3.379,3.279 0,1.81 1.51,3.279 3.379,3.279 1.869,0 3.379,-1.469 3.379,-3.279 z" id="path14466" inkscape:connector-curvature="0"/>
          <path d="m 1660.532,-45.695 c 0,-0.66 -0.2,-1.279 -0.55,-1.799 -0.6,-0.89 -1.649,-1.479 -2.829,-1.479 -1.869,0 -3.378,1.47 -3.378,3.279 0,1.81 1.509,3.279 3.378,3.279 1.871,-10e-4 3.379,-1.47 3.379,-3.28 z" id="path14468" inkscape:connector-curvature="0"/>
          <path d="m 1665.421,-52.063 c -1.67,0 -2.55,1.36 -3.009,2.719 -0.46,1.359 -0.5,2.719 -0.5,2.719 l -0.859,0 c 0,0 -0.16,-5.428 -3.499,-5.438 l 7.867,0 z" id="path14470" inkscape:connector-curvature="0"/>
          <path d="m 1659.163,-41.876 c 1.899,-1.899 1.899,-4.749 1.899,-4.749 l 0.85,-0.01 c 0,0 0,2.909 1.85,4.758" id="path14472" inkscape:connector-curvature="0"/>
          <path d="m 1659.543,-47.974 c 1.899,1.899 4.748,1.899 4.748,1.899 l 0,0.85 c 0,0 -2.909,0 -4.758,1.849" id="path14474" inkscape:connector-curvature="0"/>
          <path d="m 1663.352,-47.984 c -1.899,1.899 -4.748,1.899 -4.748,1.899 l 0,0.85 c 0,0 2.908,0 4.758,1.849" id="path14476" inkscape:connector-curvature="0"/>
        </g>
      </g>
      <g id="g14478">
        <g id="club_65_">
          <path d="m 1543.42,-209.478 c 0,4.342 3.623,7.869 8.109,7.869 4.486,0 8.109,-3.526 8.109,-7.869 0,-4.343 -3.623,-7.869 -8.109,-7.869 -4.486,0 -8.109,3.527 -8.109,7.869 z" id="path14481" inkscape:connector-curvature="0"/>
          <path d="m 1532.96,-194.579 c 0,4.342 3.623,7.869 8.109,7.869 4.486,0 8.108,-3.527 8.108,-7.869 0,-4.343 -3.622,-7.869 -8.108,-7.869 -4.486,0 -8.109,3.526 -8.109,7.869 z" id="path14483" inkscape:connector-curvature="0"/>
          <path d="m 1553.737,-194.531 c 0,1.583 0.48,3.071 1.319,4.318 1.439,2.135 3.959,3.551 6.79,3.551 4.486,0 8.108,-3.527 8.108,-7.869 0,-4.342 -3.622,-7.869 -8.108,-7.869 -4.486,0 -8.109,3.526 -8.109,7.869 z" id="path14485" inkscape:connector-curvature="0"/>
          <path d="m 1542.005,-179.249 c 4.007,0 6.118,-3.263 7.222,-6.525 1.104,-3.262 1.199,-6.526 1.199,-6.526 l 2.063,0 c 0,0 0.384,13.027 8.396,13.051 l -18.88,0 z" id="path14487" inkscape:connector-curvature="0"/>
          <path d="m 1557.024,-203.696 c -4.559,4.558 -4.559,11.396 -4.559,11.396 l -2.039,0.024 c 0,0 0,-6.981 -4.438,-11.419" id="path14489" inkscape:connector-curvature="0"/>
          <path d="m 1556.112,-189.062 c -4.558,-4.558 -11.396,-4.558 -11.396,-4.558 l 0,-2.039 c 0,0 6.981,0 11.42,-4.438" id="path14491" inkscape:connector-curvature="0"/>
          <path d="m 1546.971,-189.037 c 4.559,-4.559 11.396,-4.559 11.396,-4.559 l 0,-2.039 c 0,0 -6.981,0 -11.42,-4.438" id="path14493" inkscape:connector-curvature="0"/>
        </g>
      </g>
      <g id="g14495">
        <g id="club_66_">
          <path d="m 1543.42,-155.342 c 0,4.343 3.623,7.869 8.109,7.869 4.486,0 8.109,-3.526 8.109,-7.869 0,-4.342 -3.623,-7.869 -8.109,-7.869 -4.486,0 -8.109,3.527 -8.109,7.869 z" id="path14498" inkscape:connector-curvature="0"/>
          <path d="m 1532.96,-140.443 c 0,4.343 3.623,7.869 8.109,7.869 4.486,0 8.108,-3.526 8.108,-7.869 0,-4.342 -3.622,-7.869 -8.108,-7.869 -4.486,0 -8.109,3.526 -8.109,7.869 z" id="path14500" inkscape:connector-curvature="0"/>
          <path d="m 1553.737,-140.395 c 0,1.583 0.48,3.071 1.319,4.318 1.439,2.135 3.959,3.55 6.79,3.55 4.486,0 8.108,-3.526 8.108,-7.869 0,-4.343 -3.622,-7.869 -8.108,-7.869 -4.486,0 -8.109,3.527 -8.109,7.87 z" id="path14502" inkscape:connector-curvature="0"/>
          <path d="m 1542.005,-125.113 c 4.007,0 6.118,-3.263 7.222,-6.526 1.104,-3.263 1.199,-6.525 1.199,-6.525 l 2.063,0 c 0,0 0.384,13.027 8.396,13.051 l -18.88,0 z" id="path14504" inkscape:connector-curvature="0"/>
          <path d="m 1557.024,-149.56 c -4.559,4.558 -4.559,11.396 -4.559,11.396 l -2.039,0.024 c 0,0 0,-6.981 -4.438,-11.419" id="path14506" inkscape:connector-curvature="0"/>
          <path d="m 1556.112,-134.925 c -4.558,-4.558 -11.396,-4.558 -11.396,-4.558 l 0,-2.04 c 0,0 6.981,0 11.42,-4.438" id="path14508" inkscape:connector-curvature="0"/>
          <path d="m 1546.971,-134.901 c 4.559,-4.558 11.396,-4.558 11.396,-4.558 l 0,-2.04 c 0,0 -6.981,0 -11.42,-4.438" id="path14510" inkscape:connector-curvature="0"/>
        </g>
      </g>
      <g id="g14512">
        <g id="club_67_">
          <path d="m 1559.494,-77.843 c 0,-4.342 -3.622,-7.869 -8.108,-7.869 -4.486,0 -8.109,3.526 -8.109,7.869 0,4.343 3.623,7.869 8.109,7.869 4.486,0 8.108,-3.526 8.108,-7.869 z" id="path14515" inkscape:connector-curvature="0"/>
          <path d="m 1569.955,-92.741 c 0,-4.342 -3.623,-7.869 -8.109,-7.869 -4.486,0 -8.109,3.527 -8.109,7.869 0,4.343 3.623,7.869 8.109,7.869 4.486,0 8.109,-3.526 8.109,-7.869 z" id="path14517" inkscape:connector-curvature="0"/>
          <path d="m 1549.179,-92.789 c 0,-1.583 -0.48,-3.071 -1.319,-4.318 -1.439,-2.135 -3.959,-3.551 -6.79,-3.551 -4.486,0 -8.108,3.527 -8.108,7.869 0,4.342 3.622,7.869 8.108,7.869 4.486,0 8.109,-3.527 8.109,-7.869 z" id="path14519" inkscape:connector-curvature="0"/>
          <path d="m 1560.91,-108.071 c -4.007,0 -6.118,3.263 -7.222,6.525 -1.104,3.262 -1.199,6.526 -1.199,6.526 l -2.063,0 c 0,0 -0.384,-13.027 -8.396,-13.051 l 18.88,0 z" id="path14521" inkscape:connector-curvature="0"/>
          <path d="m 1545.892,-83.625 c 4.559,-4.558 4.559,-11.396 4.559,-11.396 l 2.039,-0.024 c 0,0 0,6.981 4.438,11.419" id="path14523" inkscape:connector-curvature="0"/>
          <path d="m 1546.803,-98.259 c 4.559,4.558 11.396,4.558 11.396,4.558 l 0,2.039 c 0,0 -6.981,0 -11.42,4.438" id="path14525" inkscape:connector-curvature="0"/>
          <path d="m 1555.944,-98.283 c -4.558,4.559 -11.396,4.559 -11.396,4.559 l 0,2.039 c 0,0 6.981,0 11.42,4.438" id="path14527" inkscape:connector-curvature="0"/>
        </g>
      </g>
      <g id="g14529">
        <g id="club_68_">
          <path d="m 1559.494,-23.707 c 0,-4.342 -3.622,-7.869 -8.108,-7.869 -4.486,0 -8.109,3.527 -8.109,7.869 0,4.342 3.623,7.869 8.109,7.869 4.486,0 8.108,-3.526 8.108,-7.869 z" id="path14532" inkscape:connector-curvature="0"/>
          <path d="m 1569.955,-38.605 c 0,-4.342 -3.623,-7.869 -8.109,-7.869 -4.486,0 -8.109,3.527 -8.109,7.869 0,4.342 3.623,7.869 8.109,7.869 4.486,0 8.109,-3.527 8.109,-7.869 z" id="path14534" inkscape:connector-curvature="0"/>
          <path d="m 1549.179,-38.653 c 0,-1.583 -0.48,-3.071 -1.319,-4.318 -1.439,-2.135 -3.959,-3.551 -6.79,-3.551 -4.486,0 -8.108,3.527 -8.108,7.869 0,4.342 3.622,7.869 8.108,7.869 4.486,0 8.109,-3.527 8.109,-7.869 z" id="path14536" inkscape:connector-curvature="0"/>
          <path d="m 1560.91,-53.935 c -4.007,0 -6.118,3.263 -7.222,6.525 -1.104,3.262 -1.199,6.526 -1.199,6.526 l -2.063,0 c 0,0 -0.384,-13.027 -8.396,-13.051 l 18.88,0 z" id="path14538" inkscape:connector-curvature="0"/>
          <path d="m 1545.892,-29.488 c 4.559,-4.559 4.559,-11.396 4.559,-11.396 l 2.039,-0.024 c 0,0 0,6.981 4.438,11.42" id="path14540" inkscape:connector-curvature="0"/>
          <path d="m 1546.803,-44.123 c 4.559,4.559 11.396,4.559 11.396,4.559 l 0,2.039 c 0,0 -6.981,0 -11.42,4.438" id="path14542" inkscape:connector-curvature="0"/>
          <path d="m 1555.944,-44.147 c -4.558,4.559 -11.396,4.559 -11.396,4.559 l 0,2.039 c 0,0 6.981,0 11.42,4.438" id="path14544" inkscape:connector-curvature="0"/>
        </g>
      </g>
      <g id="g14546">
        <g id="club_69_">
          <path d="m 1623.248,-209.478 c 0,4.342 3.623,7.869 8.109,7.869 4.486,0 8.108,-3.526 8.108,-7.869 0,-4.343 -3.622,-7.869 -8.108,-7.869 -4.486,0 -8.109,3.527 -8.109,7.869 z" id="path14549" inkscape:connector-curvature="0"/>
          <path d="m 1612.788,-194.579 c 0,4.342 3.623,7.869 8.109,7.869 4.486,0 8.108,-3.527 8.108,-7.869 0,-4.343 -3.622,-7.869 -8.108,-7.869 -4.486,0 -8.109,3.526 -8.109,7.869 z" id="path14551" inkscape:connector-curvature="0"/>
          <path d="m 1633.565,-194.531 c 0,1.583 0.479,3.071 1.319,4.318 1.439,2.135 3.959,3.551 6.79,3.551 4.486,0 8.108,-3.527 8.108,-7.869 0,-4.342 -3.622,-7.869 -8.108,-7.869 -4.486,0 -8.109,3.526 -8.109,7.869 z" id="path14553" inkscape:connector-curvature="0"/>
          <path d="m 1621.833,-179.249 c 4.007,0 6.117,-3.263 7.221,-6.525 1.104,-3.263 1.2,-6.526 1.2,-6.526 l 2.063,0 c 0,0 0.385,13.027 8.397,13.051 l -18.881,0 z" id="path14555" inkscape:connector-curvature="0"/>
          <path d="m 1636.852,-203.696 c -4.559,4.558 -4.559,11.396 -4.559,11.396 l -2.039,0.024 c 0,0 0,-6.981 -4.438,-11.419" id="path14557" inkscape:connector-curvature="0"/>
          <path d="m 1635.94,-189.062 c -4.559,-4.558 -11.396,-4.558 -11.396,-4.558 l 0,-2.039 c 0,0 6.981,0 11.42,-4.438" id="path14559" inkscape:connector-curvature="0"/>
          <path d="m 1626.799,-189.037 c 4.559,-4.559 11.396,-4.559 11.396,-4.559 l 0,-2.039 c 0,0 -6.981,0 -11.419,-4.438" id="path14561" inkscape:connector-curvature="0"/>
        </g>
      </g>
      <g id="g14563">
        <g id="club_70_">
          <path d="m 1623.248,-155.342 c 0,4.343 3.623,7.869 8.109,7.869 4.486,0 8.108,-3.526 8.108,-7.869 0,-4.342 -3.622,-7.869 -8.108,-7.869 -4.486,0 -8.109,3.527 -8.109,7.869 z" id="path14566" inkscape:connector-curvature="0"/>
          <path d="m 1612.788,-140.443 c 0,4.343 3.623,7.869 8.109,7.869 4.486,0 8.108,-3.526 8.108,-7.869 0,-4.342 -3.622,-7.869 -8.108,-7.869 -4.486,0 -8.109,3.526 -8.109,7.869 z" id="path14568" inkscape:connector-curvature="0"/>
          <path d="m 1633.565,-140.395 c 0,1.583 0.479,3.071 1.319,4.318 1.439,2.135 3.959,3.55 6.79,3.55 4.486,0 8.108,-3.526 8.108,-7.869 0,-4.343 -3.622,-7.869 -8.108,-7.869 -4.486,0 -8.109,3.527 -8.109,7.87 z" id="path14570" inkscape:connector-curvature="0"/>
          <path d="m 1621.833,-125.113 c 4.007,0 6.117,-3.263 7.221,-6.526 1.104,-3.263 1.2,-6.525 1.2,-6.525 l 2.063,0 c 0,0 0.385,13.027 8.397,13.051 l -18.881,0 z" id="path14572" inkscape:connector-curvature="0"/>
          <path d="m 1636.852,-149.56 c -4.559,4.558 -4.559,11.396 -4.559,11.396 l -2.039,0.024 c 0,0 0,-6.981 -4.438,-11.419" id="path14574" inkscape:connector-curvature="0"/>
          <path d="m 1635.94,-134.925 c -4.559,-4.558 -11.396,-4.558 -11.396,-4.558 l 0,-2.04 c 0,0 6.981,0 11.42,-4.438" id="path14576" inkscape:connector-curvature="0"/>
          <path d="m 1626.799,-134.901 c 4.559,-4.558 11.396,-4.558 11.396,-4.558 l 0,-2.04 c 0,0 -6.981,0 -11.419,-4.438" id="path14578" inkscape:connector-curvature="0"/>
        </g>
      </g>
      <g id="g14580">
        <g id="club_71_">
          <path d="m 1639.323,-77.843 c 0,-4.342 -3.623,-7.869 -8.109,-7.869 -4.486,0 -8.108,3.526 -8.108,7.869 0,4.343 3.622,7.869 8.108,7.869 4.486,0 8.109,-3.526 8.109,-7.869 z" id="path14583" inkscape:connector-curvature="0"/>
          <path d="m 1649.782,-92.741 c 0,-4.342 -3.622,-7.869 -8.108,-7.869 -4.486,0 -8.109,3.527 -8.109,7.869 0,4.343 3.623,7.869 8.109,7.869 4.486,0 8.108,-3.526 8.108,-7.869 z" id="path14585" inkscape:connector-curvature="0"/>
          <path d="m 1629.006,-92.789 c 0,-1.583 -0.479,-3.071 -1.319,-4.318 -1.439,-2.135 -3.958,-3.551 -6.789,-3.551 -4.486,0 -8.109,3.527 -8.109,7.869 0,4.342 3.623,7.869 8.109,7.869 4.486,0 8.108,-3.527 8.108,-7.869 z" id="path14587" inkscape:connector-curvature="0"/>
          <path d="m 1640.739,-108.071 c -4.007,0 -6.118,3.263 -7.222,6.525 -1.104,3.262 -1.199,6.526 -1.199,6.526 l -2.063,0 c 0,0 -0.384,-13.027 -8.396,-13.051 l 18.88,0 z" id="path14589" inkscape:connector-curvature="0"/>
          <path d="m 1625.72,-83.625 c 4.558,-4.558 4.558,-11.396 4.558,-11.396 l 2.04,-0.024 c 0,0 0,6.981 4.438,11.419" id="path14591" inkscape:connector-curvature="0"/>
          <path d="m 1626.631,-98.259 c 4.559,4.558 11.396,4.558 11.396,4.558 l 0,2.039 c 0,0 -6.981,0 -11.42,4.438" id="path14593" inkscape:connector-curvature="0"/>
          <path d="m 1635.772,-98.283 c -4.559,4.559 -11.396,4.559 -11.396,4.559 l 0,2.039 c 0,0 6.981,0 11.42,4.438" id="path14595" inkscape:connector-curvature="0"/>
        </g>
      </g>
      <g id="g14597">
        <g id="club_72_">
          <path d="m 1639.323,-23.707 c 0,-4.342 -3.623,-7.869 -8.109,-7.869 -4.486,0 -8.108,3.527 -8.108,7.869 0,4.342 3.622,7.869 8.108,7.869 4.486,0 8.109,-3.526 8.109,-7.869 z" id="path14600" inkscape:connector-curvature="0"/>
          <path d="m 1649.782,-38.605 c 0,-4.342 -3.622,-7.869 -8.108,-7.869 -4.486,0 -8.109,3.527 -8.109,7.869 0,4.342 3.623,7.869 8.109,7.869 4.486,0 8.108,-3.527 8.108,-7.869 z" id="path14602" inkscape:connector-curvature="0"/>
          <path d="m 1629.006,-38.653 c 0,-1.583 -0.479,-3.071 -1.319,-4.318 -1.439,-2.135 -3.958,-3.551 -6.789,-3.551 -4.486,0 -8.109,3.527 -8.109,7.869 0,4.342 3.623,7.869 8.109,7.869 4.486,0 8.108,-3.527 8.108,-7.869 z" id="path14604" inkscape:connector-curvature="0"/>
          <path d="m 1640.739,-53.935 c -4.007,0 -6.118,3.263 -7.222,6.525 -1.104,3.262 -1.199,6.526 -1.199,6.526 l -2.063,0 c 0,0 -0.384,-13.027 -8.396,-13.051 l 18.88,0 z" id="path14606" inkscape:connector-curvature="0"/>
          <path d="m 1625.72,-29.488 c 4.558,-4.559 4.558,-11.396 4.558,-11.396 l 2.04,-0.024 c 0,0 0,6.981 4.438,11.42" id="path14608" inkscape:connector-curvature="0"/>
          <path d="m 1626.631,-44.123 c 4.559,4.559 11.396,4.559 11.396,4.559 l 0,2.039 c 0,0 -6.981,0 -11.42,4.438" id="path14610" inkscape:connector-curvature="0"/>
          <path d="m 1635.772,-44.147 c -4.559,4.559 -11.396,4.559 -11.396,4.559 l 0,2.039 c 0,0 6.981,0 11.42,4.438" id="path14612" inkscape:connector-curvature="0"/>
        </g>
      </g>
      <g id="g14614">
        <g id="club_73_">
          <path d="m 1583.334,-182.41 c 0,4.342 3.623,7.869 8.109,7.869 4.486,0 8.108,-3.527 8.108,-7.869 0,-4.342 -3.622,-7.869 -8.108,-7.869 -4.486,0 -8.109,3.527 -8.109,7.869 z" id="path14617" inkscape:connector-curvature="0"/>
          <path d="m 1572.874,-167.511 c 0,4.342 3.623,7.869 8.109,7.869 4.486,0 8.108,-3.527 8.108,-7.869 0,-4.342 -3.622,-7.869 -8.108,-7.869 -4.486,0 -8.109,3.526 -8.109,7.869 z" id="path14619" inkscape:connector-curvature="0"/>
          <path d="m 1593.651,-167.463 c 0,1.583 0.479,3.071 1.319,4.318 1.439,2.135 3.959,3.55 6.79,3.55 4.486,0 8.108,-3.526 8.108,-7.869 0,-4.343 -3.622,-7.869 -8.108,-7.869 -4.486,0 -8.109,3.527 -8.109,7.87 z" id="path14621" inkscape:connector-curvature="0"/>
          <path d="m 1581.919,-152.181 c 4.007,0 6.117,-3.263 7.221,-6.526 1.104,-3.263 1.2,-6.525 1.2,-6.525 l 2.063,0 c 0,0 0.385,13.027 8.397,13.051 l -18.881,0 z" id="path14623" inkscape:connector-curvature="0"/>
          <path d="m 1596.938,-176.628 c -4.559,4.559 -4.559,11.396 -4.559,11.396 l -2.039,0.024 c 0,0 0,-6.981 -4.438,-11.42" id="path14625" inkscape:connector-curvature="0"/>
          <path d="m 1596.026,-161.993 c -4.559,-4.558 -11.396,-4.558 -11.396,-4.558 l 0,-2.04 c 0,0 6.981,0 11.42,-4.438" id="path14627" inkscape:connector-curvature="0"/>
          <path d="m 1586.885,-161.969 c 4.559,-4.558 11.396,-4.558 11.396,-4.558 l 0,-2.04 c 0,0 -6.981,0 -11.419,-4.438" id="path14629" inkscape:connector-curvature="0"/>
        </g>
      </g>
      <g id="g14631">
        <g id="club_74_">
          <path d="m 1599.408,-50.774 c 0,-4.342 -3.623,-7.869 -8.109,-7.869 -4.486,0 -8.108,3.527 -8.108,7.869 0,4.342 3.622,7.869 8.108,7.869 4.486,0 8.109,-3.527 8.109,-7.869 z" id="path14634" inkscape:connector-curvature="0"/>
          <path d="m 1609.868,-65.673 c 0,-4.342 -3.622,-7.869 -8.108,-7.869 -4.486,0 -8.109,3.527 -8.109,7.869 0,4.342 3.623,7.869 8.109,7.869 4.486,0 8.108,-3.527 8.108,-7.869 z" id="path14636" inkscape:connector-curvature="0"/>
          <path d="m 1589.092,-65.721 c 0,-1.583 -0.479,-3.071 -1.319,-4.318 -1.439,-2.135 -3.958,-3.551 -6.789,-3.551 -4.486,0 -8.109,3.526 -8.109,7.869 0,4.342 3.623,7.869 8.109,7.869 4.486,0 8.108,-3.526 8.108,-7.869 z" id="path14638" inkscape:connector-curvature="0"/>
          <path d="m 1600.824,-81.003 c -4.007,0 -6.118,3.263 -7.222,6.525 -1.104,3.262 -1.199,6.525 -1.199,6.525 l -2.063,0 c 0,0 -0.384,-13.027 -8.396,-13.051 l 18.88,0 z" id="path14640" inkscape:connector-curvature="0"/>
          <path d="m 1585.806,-56.556 c 4.558,-4.559 4.558,-11.396 4.558,-11.396 l 2.04,-0.024 c 0,0 0,6.981 4.438,11.42" id="path14642" inkscape:connector-curvature="0"/>
          <path d="m 1586.717,-71.191 c 4.559,4.559 11.396,4.559 11.396,4.559 l 0,2.039 c 0,0 -6.981,0 -11.42,4.438" id="path14644" inkscape:connector-curvature="0"/>
          <path d="m 1595.858,-71.215 c -4.559,4.559 -11.396,4.559 -11.396,4.559 l 0,2.039 c 0,0 6.981,0 11.42,4.438" id="path14646" inkscape:connector-curvature="0"/>
        </g>
      </g>
    </g> </svg>