<svg xmlns:dc="http://purl.org/dc/elements/1.1/" xmlns:cc="http://creativecommons.org/ns#" xmlns:rdf="http://www.w3.org/1999/02/22-rdf-syntax-ns#" xmlns:svg="http://www.w3.org/2000/svg" xmlns="http://www.w3.org/2000/svg" xmlns:sodipodi="http://sodipodi.sourceforge.net/DTD/sodipodi-0.dtd" xmlns:inkscape="http://www.inkscape.org/namespaces/inkscape" version="1.1" height="1216.19" width="2178.18" viewBox="-.2 -236 2178.99 1216.19" id="deck" ><g xmlns="http://www.w3.org/2000/svg" id="_x31__x5F_club" class="card">
      <g id="g13214">
        <g id="base">
          <path d="m 0,0.138 c 0,3.779 3.089,6.868 6.867,6.868 l 152.789,0 c 3.769,0 6.857,-3.089 6.857,-6.868 l 0,-228.315 c 0,-3.779 -3.089,-6.867 -6.857,-6.867 l -152.789,0 c -3.778,0 -6.867,3.088 -6.867,6.867 L 0,0.138 Z" id="path13217" inkscape:connector-curvature="0" style="fill:#ffffff;stroke:#000000;stroke-width:2.5"/>
        </g>
      </g>
      <g id="g13219">
        <g id="ace">
          <text transform="matrix(0.5339,0,0,1,4.9631,-198.793)" font-size="40" id="text13222" style="font-size:40px;font-family:CopperplateGothic-Bold">A</text>
        </g>
      </g>
      <g id="g13224">
        <g id="ace_1_">
          <text transform="matrix(-0.5339,0,0,-1,161.6999,-30.0181)" font-size="40" id="text13227" style="font-size:40px;font-family:CopperplateGothic-Bold">A</text>
        </g>
      </g>
      <g id="g13229">
        <g id="club">
          <path d="m 10.296,-189.568 c 0,1.81 1.51,3.279 3.379,3.279 1.869,0 3.379,-1.469 3.379,-3.279 0,-1.809 -1.51,-3.278 -3.379,-3.278 -1.869,0 -3.379,1.469 -3.379,3.278 z" id="path13232" inkscape:connector-curvature="0"/>
          <path d="m 5.938,-183.36 c 0,1.809 1.51,3.279 3.379,3.279 1.869,0 3.379,-1.47 3.379,-3.279 0,-1.81 -1.51,-3.279 -3.379,-3.279 -1.869,0 -3.379,1.469 -3.379,3.279 z" id="path13234" inkscape:connector-curvature="0"/>
          <path d="m 14.595,-183.34 c 0,0.66 0.2,1.279 0.55,1.799 0.6,0.89 1.649,1.479 2.829,1.479 1.87,0 3.379,-1.47 3.379,-3.279 0,-1.81 -1.509,-3.279 -3.379,-3.279 -1.87,0.001 -3.379,1.47 -3.379,3.28 z" id="path13236" inkscape:connector-curvature="0"/>
          <path d="m 9.707,-176.973 c 1.669,0 2.549,-1.359 3.009,-2.719 0.459,-1.359 0.5,-2.719 0.5,-2.719 l 0.86,0 c 0,0 0.16,5.428 3.499,5.438 l -7.868,0 z" id="path13238" inkscape:connector-curvature="0"/>
          <path d="m 15.964,-187.159 c -1.899,1.899 -1.899,4.749 -1.899,4.749 l -0.85,0.01 c 0,0 0,-2.909 -1.849,-4.758" id="path13240" inkscape:connector-curvature="0"/>
          <path d="m 15.584,-181.062 c -1.899,-1.899 -4.748,-1.899 -4.748,-1.899 l 0,-0.85 c 0,0 2.909,0 4.758,-1.85" id="path13242" inkscape:connector-curvature="0"/>
          <path d="m 11.776,-181.051 c 1.899,-1.899 4.749,-1.899 4.749,-1.899 l 0,-0.85 c 0,0 -2.909,0 -4.758,-1.849" id="path13244" inkscape:connector-curvature="0"/>
        </g>
      </g>
      <g id="g13246">
        <g id="club_1_">
          <path d="m 157.216,-39.467 c 0,-1.81 -1.509,-3.279 -3.378,-3.279 -1.87,0 -3.379,1.469 -3.379,3.279 0,1.809 1.509,3.279 3.379,3.279 1.869,0 3.378,-1.47 3.378,-3.279 z" id="path13249" inkscape:connector-curvature="0"/>
          <path d="m 161.575,-45.675 c 0,-1.809 -1.509,-3.279 -3.378,-3.279 -1.87,0 -3.379,1.47 -3.379,3.279 0,1.81 1.509,3.279 3.379,3.279 1.869,0 3.378,-1.469 3.378,-3.279 z" id="path13251" inkscape:connector-curvature="0"/>
          <path d="m 152.918,-45.695 c 0,-0.66 -0.2,-1.279 -0.55,-1.799 -0.6,-0.89 -1.649,-1.479 -2.829,-1.479 -1.87,0 -3.379,1.47 -3.379,3.279 0,1.81 1.509,3.279 3.379,3.279 1.87,-10e-4 3.379,-1.47 3.379,-3.28 z" id="path13253" inkscape:connector-curvature="0"/>
          <path d="m 157.806,-52.063 c -1.669,0 -2.549,1.36 -3.009,2.719 -0.46,1.359 -0.5,2.719 -0.5,2.719 l -0.859,0 c 0,0 -0.16,-5.428 -3.499,-5.438 l 7.867,0 z" id="path13255" inkscape:connector-curvature="0"/>
          <path d="m 151.549,-41.876 c 1.899,-1.899 1.899,-4.749 1.899,-4.749 l 0.85,-0.01 c 0,0 0,2.909 1.85,4.758" id="path13257" inkscape:connector-curvature="0"/>
          <path d="m 151.928,-47.974 c 1.899,1.899 4.749,1.899 4.749,1.899 l 0,0.85 c 0,0 -2.909,0 -4.758,1.849" id="path13259" inkscape:connector-curvature="0"/>
          <path d="m 155.737,-47.984 c -1.899,1.899 -4.748,1.899 -4.748,1.899 l 0,0.85 c 0,0 2.909,0 4.758,1.849" id="path13261" inkscape:connector-curvature="0"/>
        </g>
      </g>
      <g id="g13263">
        <g id="club_2_">
          <path d="m 75.719,-132.565 c 0,4.342 3.623,7.869 8.109,7.869 4.486,0 8.109,-3.527 8.109,-7.869 0,-4.342 -3.623,-7.869 -8.109,-7.869 -4.486,0 -8.109,3.527 -8.109,7.869 z" id="path13266" inkscape:connector-curvature="0"/>
          <path d="m 65.259,-117.667 c 0,4.342 3.623,7.869 8.109,7.869 4.486,0 8.109,-3.527 8.109,-7.869 0,-4.342 -3.623,-7.869 -8.109,-7.869 -4.486,0 -8.109,3.527 -8.109,7.869 z" id="path13268" inkscape:connector-curvature="0"/>
          <path d="m 86.036,-117.619 c 0,1.583 0.479,3.071 1.319,4.318 1.439,2.135 3.958,3.551 6.79,3.551 4.486,0 8.109,-3.527 8.109,-7.869 0,-4.342 -3.623,-7.869 -8.109,-7.869 -4.486,0 -8.109,3.527 -8.109,7.869 z" id="path13270" inkscape:connector-curvature="0"/>
          <path d="m 74.304,-102.336 c 4.007,0 6.118,-3.263 7.222,-6.525 1.104,-3.263 1.199,-6.525 1.199,-6.525 l 2.063,0 c 0,0 0.384,13.027 8.397,13.051 l -18.881,0 z" id="path13272" inkscape:connector-curvature="0"/>
          <path d="m 89.322,-126.783 c -4.558,4.559 -4.558,11.396 -4.558,11.396 l -2.04,0.024 c 0,0 0,-6.981 -4.438,-11.42" id="path13274" inkscape:connector-curvature="0"/>
          <path d="m 88.411,-112.148 c -4.558,-4.559 -11.396,-4.559 -11.396,-4.559 l 0,-2.039 c 0,0 6.981,0 11.42,-4.438" id="path13276" inkscape:connector-curvature="0"/>
          <path d="m 79.27,-112.125 c 4.558,-4.558 11.396,-4.558 11.396,-4.558 l 0,-2.04 c 0,0 -6.981,0 -11.42,-4.438" id="path13278" inkscape:connector-curvature="0"/>
        </g>
      </g>
    </g> </svg>