<svg xmlns:dc="http://purl.org/dc/elements/1.1/" xmlns:cc="http://creativecommons.org/ns#" xmlns:rdf="http://www.w3.org/1999/02/22-rdf-syntax-ns#" xmlns:svg="http://www.w3.org/2000/svg" xmlns="http://www.w3.org/2000/svg" xmlns:sodipodi="http://sodipodi.sourceforge.net/DTD/sodipodi-0.dtd" xmlns:inkscape="http://www.inkscape.org/namespaces/inkscape" version="1.1" height="1216.19" width="2178.18" viewBox="-.2 -236 2178.99 1216.19" id="deck" ><g xmlns="http://www.w3.org/2000/svg" id="_x32__x5F_club" class="card">
      <g id="g13281">
        <g id="base_1_">
          <path d="m 167.513,0.138 c 0,3.779 3.089,6.868 6.867,6.868 l 152.788,0 c 3.769,0 6.857,-3.089 6.857,-6.868 l 0,-228.315 c 0,-3.779 -3.089,-6.867 -6.857,-6.867 l -152.788,0 c -3.778,0 -6.867,3.088 -6.867,6.867 l 0,228.315 z" id="path13284" inkscape:connector-curvature="0" style="fill:#ffffff;stroke:#000000;stroke-width:2.5"/>
        </g>
      </g>
      <g id="g13286">
        <g id="n_2">
          <text transform="matrix(0.5339,0,0,1,173.4758,-198.793)" font-size="40" id="text13289" style="font-size:40px;font-family:CopperplateGothic-Bold">2</text>
        </g>
      </g>
      <g id="g13291">
        <g id="n_2_1_">
          <text transform="matrix(-0.5339,0,0,-1,329.2141,-30.0181)" font-size="40" id="text13294" style="font-size:40px;font-family:CopperplateGothic-Bold">2</text>
        </g>
      </g>
      <g id="g13296">
        <g id="club_3_">
          <path d="m 177.809,-189.568 c 0,1.81 1.51,3.279 3.379,3.279 1.869,0 3.379,-1.469 3.379,-3.279 0,-1.809 -1.51,-3.278 -3.379,-3.278 -1.869,0 -3.379,1.469 -3.379,3.278 z" id="path13299" inkscape:connector-curvature="0"/>
          <path d="m 173.45,-183.36 c 0,1.809 1.51,3.279 3.379,3.279 1.869,0 3.379,-1.47 3.379,-3.279 0,-1.81 -1.51,-3.279 -3.379,-3.279 -1.869,0 -3.379,1.469 -3.379,3.279 z" id="path13301" inkscape:connector-curvature="0"/>
          <path d="m 182.108,-183.34 c 0,0.66 0.2,1.279 0.55,1.799 0.6,0.89 1.649,1.479 2.829,1.479 1.87,0 3.379,-1.47 3.379,-3.279 0,-1.81 -1.509,-3.279 -3.379,-3.279 -1.87,0.001 -3.379,1.47 -3.379,3.28 z" id="path13303" inkscape:connector-curvature="0"/>
          <path d="m 177.219,-176.973 c 1.669,0 2.549,-1.359 3.009,-2.719 0.459,-1.359 0.5,-2.719 0.5,-2.719 l 0.86,0 c 0,0 0.16,5.428 3.499,5.438 l -7.868,0 z" id="path13305" inkscape:connector-curvature="0"/>
          <path d="m 183.477,-187.159 c -1.899,1.899 -1.899,4.749 -1.899,4.749 l -0.85,0.01 c 0,0 0,-2.909 -1.849,-4.758" id="path13307" inkscape:connector-curvature="0"/>
          <path d="m 183.097,-181.062 c -1.899,-1.899 -4.748,-1.899 -4.748,-1.899 l 0,-0.85 c 0,0 2.909,0 4.758,-1.85" id="path13309" inkscape:connector-curvature="0"/>
          <path d="m 179.288,-181.051 c 1.899,-1.899 4.749,-1.899 4.749,-1.899 l 0,-0.85 c 0,0 -2.909,0 -4.758,-1.849" id="path13311" inkscape:connector-curvature="0"/>
        </g>
      </g>
      <g id="g13313">
        <g id="club_4_">
          <path d="m 324.73,-39.467 c 0,-1.81 -1.51,-3.279 -3.379,-3.279 -1.869,0 -3.379,1.469 -3.379,3.279 0,1.809 1.51,3.279 3.379,3.279 1.869,0 3.379,-1.47 3.379,-3.279 z" id="path13316" inkscape:connector-curvature="0"/>
          <path d="m 329.088,-45.675 c 0,-1.809 -1.51,-3.279 -3.379,-3.279 -1.869,0 -3.379,1.47 -3.379,3.279 0,1.81 1.51,3.279 3.379,3.279 1.869,0 3.379,-1.469 3.379,-3.279 z" id="path13318" inkscape:connector-curvature="0"/>
          <path d="m 320.431,-45.695 c 0,-0.66 -0.2,-1.279 -0.55,-1.799 -0.6,-0.89 -1.649,-1.479 -2.829,-1.479 -1.869,0 -3.379,1.47 -3.379,3.279 0,1.81 1.51,3.279 3.379,3.279 1.869,0 3.379,-1.47 3.379,-3.28 z" id="path13320" inkscape:connector-curvature="0"/>
          <path d="m 325.32,-52.063 c -1.67,0 -2.55,1.36 -3.009,2.719 -0.46,1.359 -0.5,2.719 -0.5,2.719 l -0.86,0 c 0,0 -0.159,-5.428 -3.498,-5.438 l 7.867,0 z" id="path13322" inkscape:connector-curvature="0"/>
          <path d="m 319.062,-41.876 c 1.899,-1.899 1.899,-4.749 1.899,-4.749 l 0.85,-0.01 c 0,0 0,2.909 1.849,4.758" id="path13324" inkscape:connector-curvature="0"/>
          <path d="m 319.442,-47.974 c 1.899,1.899 4.748,1.899 4.748,1.899 l 0,0.85 c 0,0 -2.909,0 -4.759,1.849" id="path13326" inkscape:connector-curvature="0"/>
          <path d="m 323.25,-47.984 c -1.899,1.899 -4.748,1.899 -4.748,1.899 l 0,0.85 c 0,0 2.908,0 4.758,1.849" id="path13328" inkscape:connector-curvature="0"/>
        </g>
      </g>
      <g id="g13330">
        <g id="club_5_">
          <path d="m 259.305,-23.707 c 0,-4.342 -3.623,-7.869 -8.109,-7.869 -4.486,0 -8.109,3.527 -8.109,7.869 0,4.342 3.623,7.869 8.109,7.869 4.486,0 8.109,-3.526 8.109,-7.869 z" id="path13333" inkscape:connector-curvature="0"/>
          <path d="m 269.765,-38.605 c 0,-4.342 -3.623,-7.869 -8.109,-7.869 -4.486,0 -8.109,3.527 -8.109,7.869 0,4.342 3.623,7.869 8.109,7.869 4.486,0 8.109,-3.527 8.109,-7.869 z" id="path13335" inkscape:connector-curvature="0"/>
          <path d="m 248.989,-38.653 c 0,-1.583 -0.479,-3.071 -1.319,-4.318 -1.439,-2.135 -3.958,-3.551 -6.79,-3.551 -4.486,0 -8.109,3.527 -8.109,7.869 0,4.342 3.623,7.869 8.109,7.869 4.486,0 8.109,-3.527 8.109,-7.869 z" id="path13337" inkscape:connector-curvature="0"/>
          <path d="m 260.721,-53.935 c -4.007,0 -6.118,3.263 -7.222,6.525 -1.104,3.263 -1.199,6.526 -1.199,6.526 l -2.063,0 c 0,0 -0.384,-13.027 -8.396,-13.051 l 18.88,0 z" id="path13339" inkscape:connector-curvature="0"/>
          <path d="m 245.702,-29.488 c 4.558,-4.559 4.558,-11.396 4.558,-11.396 l 2.04,-0.024 c 0,0 0,6.981 4.438,11.42" id="path13341" inkscape:connector-curvature="0"/>
          <path d="m 246.614,-44.123 c 4.559,4.559 11.396,4.559 11.396,4.559 l 0,2.039 c 0,0 -6.981,0 -11.42,4.438" id="path13343" inkscape:connector-curvature="0"/>
          <path d="m 255.755,-44.147 c -4.558,4.559 -11.396,4.559 -11.396,4.559 l 0,2.039 c 0,0 6.981,0 11.419,4.438" id="path13345" inkscape:connector-curvature="0"/>
        </g>
      </g>
      <g id="g13347">
        <g id="club_6_">
          <path d="m 243.231,-209.478 c 0,4.342 3.623,7.869 8.109,7.869 4.486,0 8.109,-3.526 8.109,-7.869 0,-4.343 -3.623,-7.869 -8.109,-7.869 -4.486,0 -8.109,3.527 -8.109,7.869 z" id="path13350" inkscape:connector-curvature="0"/>
          <path d="m 232.771,-194.579 c 0,4.342 3.623,7.869 8.109,7.869 4.486,0 8.109,-3.527 8.109,-7.869 0,-4.343 -3.623,-7.869 -8.109,-7.869 -4.486,0 -8.109,3.526 -8.109,7.869 z" id="path13352" inkscape:connector-curvature="0"/>
          <path d="m 253.548,-194.531 c 0,1.583 0.479,3.071 1.319,4.318 1.439,2.135 3.958,3.551 6.79,3.551 4.486,0 8.109,-3.527 8.109,-7.869 0,-4.342 -3.623,-7.869 -8.109,-7.869 -4.486,0 -8.109,3.526 -8.109,7.869 z" id="path13354" inkscape:connector-curvature="0"/>
          <path d="m 241.816,-179.249 c 4.007,0 6.118,-3.263 7.222,-6.525 1.104,-3.263 1.199,-6.526 1.199,-6.526 l 2.063,0 c 0,0 0.384,13.027 8.397,13.051 l -18.881,0 z" id="path13356" inkscape:connector-curvature="0"/>
          <path d="m 256.834,-203.696 c -4.558,4.558 -4.558,11.396 -4.558,11.396 l -2.04,0.024 c 0,0 0,-6.981 -4.438,-11.419" id="path13358" inkscape:connector-curvature="0"/>
          <path d="m 255.923,-189.062 c -4.558,-4.558 -11.396,-4.558 -11.396,-4.558 l 0,-2.039 c 0,0 6.981,0 11.42,-4.438" id="path13360" inkscape:connector-curvature="0"/>
          <path d="m 246.782,-189.037 c 4.558,-4.559 11.396,-4.559 11.396,-4.559 l 0,-2.039 c 0,0 -6.981,0 -11.42,-4.438" id="path13362" inkscape:connector-curvature="0"/>
        </g>
      </g>
    </g> </svg>