<svg xmlns:dc="http://purl.org/dc/elements/1.1/" xmlns:cc="http://creativecommons.org/ns#" xmlns:rdf="http://www.w3.org/1999/02/22-rdf-syntax-ns#" xmlns:svg="http://www.w3.org/2000/svg" xmlns="http://www.w3.org/2000/svg" xmlns:sodipodi="http://sodipodi.sourceforge.net/DTD/sodipodi-0.dtd" xmlns:inkscape="http://www.inkscape.org/namespaces/inkscape" version="1.1" height="1216.19" width="2178.18" viewBox="-.2 -236 2178.99 1216.19" id="deck" ><g xmlns="http://www.w3.org/2000/svg" id="_x33__x5F_club" class="card">
      <g id="g13365">
        <g id="base_2_">
          <path d="m 335.026,0.138 c 0,3.779 3.089,6.868 6.867,6.868 l 152.788,0 c 3.769,0 6.857,-3.089 6.857,-6.868 l 0,-228.315 c 0,-3.779 -3.089,-6.867 -6.857,-6.867 l -152.788,0 c -3.778,0 -6.867,3.088 -6.867,6.867 l 0,228.315 z" id="path13368" inkscape:connector-curvature="0" style="fill:#ffffff;stroke:#000000;stroke-width:2.5"/>
        </g>
      </g>
      <g id="g13370">
        <g id="n_3">
          <text transform="matrix(0.5339,0,0,1,340.9885,-198.793)" font-size="40" id="text13373" style="font-size:40px;font-family:CopperplateGothic-Bold">3</text>
        </g>
      </g>
      <g id="g13375">
        <g id="n_3_1_">
          <text transform="matrix(-0.5339,0,0,-1,496.7258,-30.0181)" font-size="40" id="text13378" style="font-size:40px;font-family:CopperplateGothic-Bold">3</text>
        </g>
      </g>
      <g id="g13380">
        <g id="club_7_">
          <path d="m 345.321,-189.568 c 0,1.81 1.51,3.279 3.379,3.279 1.869,0 3.379,-1.469 3.379,-3.279 0,-1.809 -1.51,-3.278 -3.379,-3.278 -1.869,0 -3.379,1.469 -3.379,3.278 z" id="path13383" inkscape:connector-curvature="0"/>
          <path d="m 340.963,-183.36 c 0,1.809 1.51,3.279 3.379,3.279 1.869,0 3.379,-1.47 3.379,-3.279 0,-1.81 -1.51,-3.279 -3.379,-3.279 -1.869,0 -3.379,1.469 -3.379,3.279 z" id="path13385" inkscape:connector-curvature="0"/>
          <path d="m 349.62,-183.34 c 0,0.66 0.2,1.279 0.55,1.799 0.6,0.89 1.649,1.479 2.829,1.479 1.869,0 3.378,-1.47 3.378,-3.279 0,-1.81 -1.509,-3.279 -3.378,-3.279 -1.87,0.001 -3.379,1.47 -3.379,3.28 z" id="path13387" inkscape:connector-curvature="0"/>
          <path d="m 344.732,-176.973 c 1.67,0 2.55,-1.359 3.009,-2.719 0.46,-1.359 0.5,-2.719 0.5,-2.719 l 0.859,0 c 0,0 0.16,5.428 3.499,5.438 l -7.867,0 z" id="path13389" inkscape:connector-curvature="0"/>
          <path d="m 350.989,-187.159 c -1.899,1.899 -1.899,4.749 -1.899,4.749 l -0.85,0.01 c 0,0 0,-2.909 -1.85,-4.758" id="path13391" inkscape:connector-curvature="0"/>
          <path d="m 350.61,-181.062 c -1.899,-1.899 -4.748,-1.899 -4.748,-1.899 l 0,-0.85 c 0,0 2.909,0 4.758,-1.85" id="path13393" inkscape:connector-curvature="0"/>
          <path d="m 346.801,-181.051 c 1.899,-1.899 4.748,-1.899 4.748,-1.899 l 0,-0.85 c 0,0 -2.908,0 -4.758,-1.849" id="path13395" inkscape:connector-curvature="0"/>
        </g>
      </g>
      <g id="g13397">
        <g id="club_8_">
          <path d="m 492.242,-39.467 c 0,-1.81 -1.51,-3.279 -3.379,-3.279 -1.869,0 -3.379,1.469 -3.379,3.279 0,1.809 1.51,3.279 3.379,3.279 1.869,0 3.379,-1.47 3.379,-3.279 z" id="path13400" inkscape:connector-curvature="0"/>
          <path d="m 496.601,-45.675 c 0,-1.809 -1.51,-3.279 -3.379,-3.279 -1.869,0 -3.379,1.47 -3.379,3.279 0,1.81 1.51,3.279 3.379,3.279 1.869,0 3.379,-1.469 3.379,-3.279 z" id="path13402" inkscape:connector-curvature="0"/>
          <path d="m 487.944,-45.695 c 0,-0.66 -0.2,-1.279 -0.55,-1.799 -0.6,-0.89 -1.649,-1.479 -2.829,-1.479 -1.869,0 -3.379,1.47 -3.379,3.279 0,1.81 1.51,3.279 3.379,3.279 1.869,0 3.379,-1.47 3.379,-3.28 z" id="path13404" inkscape:connector-curvature="0"/>
          <path d="m 492.832,-52.063 c -1.67,0 -2.55,1.36 -3.009,2.719 -0.46,1.359 -0.5,2.719 -0.5,2.719 l -0.86,0 c 0,0 -0.159,-5.428 -3.498,-5.438 l 7.867,0 z" id="path13406" inkscape:connector-curvature="0"/>
          <path d="m 486.574,-41.876 c 1.899,-1.899 1.899,-4.749 1.899,-4.749 l 0.85,-0.01 c 0,0 0,2.909 1.849,4.758" id="path13408" inkscape:connector-curvature="0"/>
          <path d="m 486.954,-47.974 c 1.899,1.899 4.748,1.899 4.748,1.899 l 0,0.85 c 0,0 -2.909,0 -4.759,1.849" id="path13410" inkscape:connector-curvature="0"/>
          <path d="m 490.763,-47.984 c -1.899,1.899 -4.748,1.899 -4.748,1.899 l 0,0.85 c 0,0 2.908,0 4.758,1.849" id="path13412" inkscape:connector-curvature="0"/>
        </g>
      </g>
      <g id="g13414">
        <g id="club_9_">
          <path d="m 426.819,-23.707 c 0,-4.342 -3.623,-7.869 -8.109,-7.869 -4.486,0 -8.109,3.527 -8.109,7.869 0,4.342 3.623,7.869 8.109,7.869 4.486,0 8.109,-3.526 8.109,-7.869 z" id="path13417" inkscape:connector-curvature="0"/>
          <path d="m 437.279,-38.605 c 0,-4.342 -3.623,-7.869 -8.109,-7.869 -4.486,0 -8.108,3.527 -8.108,7.869 0,4.342 3.622,7.869 8.108,7.869 4.486,0 8.109,-3.527 8.109,-7.869 z" id="path13419" inkscape:connector-curvature="0"/>
          <path d="m 416.502,-38.653 c 0,-1.583 -0.479,-3.071 -1.319,-4.318 -1.439,-2.135 -3.959,-3.551 -6.79,-3.551 -4.486,0 -8.108,3.527 -8.108,7.869 0,4.342 3.622,7.869 8.108,7.869 4.486,0 8.109,-3.527 8.109,-7.869 z" id="path13421" inkscape:connector-curvature="0"/>
          <path d="m 428.234,-53.935 c -4.007,0 -6.117,3.263 -7.222,6.525 -1.104,3.263 -1.199,6.526 -1.199,6.526 l -2.063,0 c 0,0 -0.384,-13.027 -8.396,-13.051 l 18.88,0 z" id="path13423" inkscape:connector-curvature="0"/>
          <path d="m 413.215,-29.488 c 4.559,-4.559 4.559,-11.396 4.559,-11.396 l 2.039,-0.024 c 0,0 0,6.981 4.438,11.42" id="path13425" inkscape:connector-curvature="0"/>
          <path d="m 414.127,-44.123 c 4.558,4.559 11.396,4.559 11.396,4.559 l 0,2.039 c 0,0 -6.981,0 -11.42,4.438" id="path13427" inkscape:connector-curvature="0"/>
          <path d="m 423.268,-44.147 c -4.559,4.559 -11.396,4.559 -11.396,4.559 l 0,2.039 c 0,0 6.981,0 11.42,4.438" id="path13429" inkscape:connector-curvature="0"/>
        </g>
      </g>
      <g id="g13431">
        <g id="club_10_">
          <path d="m 410.744,-132.565 c 0,4.342 3.622,7.869 8.108,7.869 4.486,0 8.109,-3.527 8.109,-7.869 0,-4.342 -3.623,-7.869 -8.109,-7.869 -4.486,0 -8.108,3.527 -8.108,7.869 z" id="path13434" inkscape:connector-curvature="0"/>
          <path d="m 400.284,-117.667 c 0,4.342 3.622,7.869 8.108,7.869 4.486,0 8.109,-3.527 8.109,-7.869 0,-4.342 -3.623,-7.869 -8.109,-7.869 -4.486,0 -8.108,3.527 -8.108,7.869 z" id="path13436" inkscape:connector-curvature="0"/>
          <path d="m 421.061,-117.619 c 0,1.583 0.479,3.071 1.319,4.318 1.439,2.135 3.958,3.551 6.789,3.551 4.486,0 8.109,-3.527 8.109,-7.869 0,-4.342 -3.623,-7.869 -8.109,-7.869 -4.486,0 -8.108,3.527 -8.108,7.869 z" id="path13438" inkscape:connector-curvature="0"/>
          <path d="m 409.328,-102.336 c 4.007,0 6.118,-3.263 7.222,-6.525 1.104,-3.262 1.199,-6.525 1.199,-6.525 l 2.063,0 c 0,0 0.384,13.027 8.396,13.051 l -18.88,0 z" id="path13440" inkscape:connector-curvature="0"/>
          <path d="m 424.347,-126.783 c -4.558,4.559 -4.558,11.396 -4.558,11.396 l -2.04,0.024 c 0,0 0,-6.981 -4.438,-11.42" id="path13442" inkscape:connector-curvature="0"/>
          <path d="m 423.436,-112.148 c -4.559,-4.559 -11.396,-4.559 -11.396,-4.559 l 0,-2.039 c 0,0 6.981,0 11.42,-4.438" id="path13444" inkscape:connector-curvature="0"/>
          <path d="m 414.295,-112.125 c 4.558,-4.558 11.396,-4.558 11.396,-4.558 l 0,-2.04 c 0,0 -6.981,0 -11.42,-4.438" id="path13446" inkscape:connector-curvature="0"/>
        </g>
      </g>
      <g id="g13448">
        <g id="club_11_">
          <path d="m 410.744,-209.478 c 0,4.342 3.622,7.869 8.108,7.869 4.486,0 8.109,-3.526 8.109,-7.869 0,-4.343 -3.623,-7.869 -8.109,-7.869 -4.486,0 -8.108,3.527 -8.108,7.869 z" id="path13451" inkscape:connector-curvature="0"/>
          <path d="m 400.284,-194.579 c 0,4.342 3.622,7.869 8.108,7.869 4.486,0 8.109,-3.527 8.109,-7.869 0,-4.343 -3.623,-7.869 -8.109,-7.869 -4.486,0 -8.108,3.526 -8.108,7.869 z" id="path13453" inkscape:connector-curvature="0"/>
          <path d="m 421.061,-194.531 c 0,1.583 0.479,3.071 1.319,4.318 1.439,2.135 3.958,3.551 6.789,3.551 4.486,0 8.109,-3.527 8.109,-7.869 0,-4.342 -3.623,-7.869 -8.109,-7.869 -4.486,0 -8.108,3.526 -8.108,7.869 z" id="path13455" inkscape:connector-curvature="0"/>
          <path d="m 409.328,-179.249 c 4.007,0 6.118,-3.263 7.222,-6.525 1.104,-3.262 1.199,-6.526 1.199,-6.526 l 2.063,0 c 0,0 0.384,13.027 8.396,13.051 l -18.88,0 z" id="path13457" inkscape:connector-curvature="0"/>
          <path d="m 424.347,-203.696 c -4.558,4.558 -4.558,11.396 -4.558,11.396 l -2.04,0.024 c 0,0 0,-6.981 -4.438,-11.419" id="path13459" inkscape:connector-curvature="0"/>
          <path d="m 423.436,-189.062 c -4.559,-4.558 -11.396,-4.558 -11.396,-4.558 l 0,-2.039 c 0,0 6.981,0 11.42,-4.438" id="path13461" inkscape:connector-curvature="0"/>
          <path d="m 414.295,-189.037 c 4.558,-4.559 11.396,-4.559 11.396,-4.559 l 0,-2.039 c 0,0 -6.981,0 -11.42,-4.438" id="path13463" inkscape:connector-curvature="0"/>
        </g>
      </g>
    </g> </svg>