<svg xmlns:dc="http://purl.org/dc/elements/1.1/" xmlns:cc="http://creativecommons.org/ns#" xmlns:rdf="http://www.w3.org/1999/02/22-rdf-syntax-ns#" xmlns:svg="http://www.w3.org/2000/svg" xmlns="http://www.w3.org/2000/svg" xmlns:sodipodi="http://sodipodi.sourceforge.net/DTD/sodipodi-0.dtd" xmlns:inkscape="http://www.inkscape.org/namespaces/inkscape" version="1.1" height="1216.19" width="2178.18" viewBox="-.2 -236 2178.99 1216.19" id="deck" ><g xmlns="http://www.w3.org/2000/svg" id="_x34__x5F_club" class="card">
      <g id="g13466">
        <g id="base_3_">
          <path d="m 502.538,0.138 c 0,3.779 3.089,6.868 6.867,6.868 l 152.788,0 c 3.769,0 6.857,-3.089 6.857,-6.868 l 0,-228.315 c 0,-3.779 -3.089,-6.867 -6.857,-6.867 l -152.788,0 c -3.778,0 -6.867,3.088 -6.867,6.867 l 0,228.315 z" id="path13469" inkscape:connector-curvature="0" style="fill:#ffffff;stroke:#000000;stroke-width:2.5"/>
        </g>
      </g>
      <g id="g13471">
        <g id="n_4">
          <text transform="matrix(0.5339,0,0,1,508.5012,-198.793)" font-size="40" id="text13474" style="font-size:40px;font-family:CopperplateGothic-Bold">4</text>
        </g>
      </g>
      <g id="g13476">
        <g id="n_4_1_">
          <text transform="matrix(-0.5339,0,0,-1,664.2394,-30.0181)" font-size="40" id="text13479" style="font-size:40px;font-family:CopperplateGothic-Bold">4</text>
        </g>
      </g>
      <g id="g13481">
        <g id="club_12_">
          <path d="m 512.834,-189.568 c 0,1.81 1.51,3.279 3.379,3.279 1.869,0 3.379,-1.469 3.379,-3.279 0,-1.809 -1.51,-3.278 -3.379,-3.278 -1.869,0 -3.379,1.469 -3.379,3.278 z" id="path13484" inkscape:connector-curvature="0"/>
          <path d="m 508.476,-183.36 c 0,1.809 1.51,3.279 3.379,3.279 1.869,0 3.379,-1.47 3.379,-3.279 0,-1.81 -1.51,-3.279 -3.379,-3.279 -1.869,0 -3.379,1.469 -3.379,3.279 z" id="path13486" inkscape:connector-curvature="0"/>
          <path d="m 517.133,-183.34 c 0,0.66 0.199,1.279 0.55,1.799 0.6,0.89 1.649,1.479 2.829,1.479 1.869,0 3.378,-1.47 3.378,-3.279 0,-1.81 -1.509,-3.279 -3.378,-3.279 -1.87,0.001 -3.379,1.47 -3.379,3.28 z" id="path13488" inkscape:connector-curvature="0"/>
          <path d="m 512.244,-176.973 c 1.67,0 2.549,-1.359 3.009,-2.719 0.46,-1.359 0.5,-2.719 0.5,-2.719 l 0.86,0 c 0,0 0.159,5.428 3.498,5.438 l -7.867,0 z" id="path13490" inkscape:connector-curvature="0"/>
          <path d="m 518.502,-187.159 c -1.899,1.899 -1.899,4.749 -1.899,4.749 l -0.85,0.01 c 0,0 0,-2.909 -1.85,-4.758" id="path13492" inkscape:connector-curvature="0"/>
          <path d="m 518.122,-181.062 c -1.899,-1.899 -4.748,-1.899 -4.748,-1.899 l 0,-0.85 c 0,0 2.909,0 4.758,-1.85" id="path13494" inkscape:connector-curvature="0"/>
          <path d="m 514.314,-181.051 c 1.899,-1.899 4.748,-1.899 4.748,-1.899 l 0,-0.85 c 0,0 -2.908,0 -4.758,-1.849" id="path13496" inkscape:connector-curvature="0"/>
        </g>
      </g>
      <g id="g13498">
        <g id="club_13_">
          <path d="m 659.755,-39.467 c 0,-1.81 -1.51,-3.279 -3.379,-3.279 -1.869,0 -3.379,1.469 -3.379,3.279 0,1.809 1.51,3.279 3.379,3.279 1.869,0 3.379,-1.47 3.379,-3.279 z" id="path13501" inkscape:connector-curvature="0"/>
          <path d="m 664.113,-45.675 c 0,-1.809 -1.51,-3.279 -3.379,-3.279 -1.869,0 -3.379,1.47 -3.379,3.279 0,1.81 1.51,3.279 3.379,3.279 1.869,0 3.379,-1.469 3.379,-3.279 z" id="path13503" inkscape:connector-curvature="0"/>
          <path d="m 655.456,-45.695 c 0,-0.66 -0.2,-1.279 -0.55,-1.799 -0.6,-0.89 -1.649,-1.479 -2.829,-1.479 -1.869,0 -3.379,1.47 -3.379,3.279 0,1.81 1.51,3.279 3.379,3.279 1.869,0 3.379,-1.47 3.379,-3.28 z" id="path13505" inkscape:connector-curvature="0"/>
          <path d="m 660.345,-52.063 c -1.67,0 -2.55,1.36 -3.009,2.719 -0.46,1.359 -0.5,2.719 -0.5,2.719 l -0.86,0 c 0,0 -0.159,-5.428 -3.498,-5.438 l 7.867,0 z" id="path13507" inkscape:connector-curvature="0"/>
          <path d="m 654.087,-41.876 c 1.899,-1.899 1.899,-4.749 1.899,-4.749 l 0.85,-0.01 c 0,0 0,2.909 1.849,4.758" id="path13509" inkscape:connector-curvature="0"/>
          <path d="m 654.467,-47.974 c 1.899,1.899 4.748,1.899 4.748,1.899 l 0,0.85 c 0,0 -2.909,0 -4.758,1.849" id="path13511" inkscape:connector-curvature="0"/>
          <path d="m 658.276,-47.984 c -1.899,1.899 -4.748,1.899 -4.748,1.899 l 0,0.85 c 0,0 2.908,0 4.758,1.849" id="path13513" inkscape:connector-curvature="0"/>
        </g>
      </g>
      <g id="g13515">
        <g id="club_14_">
          <path d="m 538.343,-209.478 c 0,4.342 3.623,7.869 8.109,7.869 4.486,0 8.108,-3.526 8.108,-7.869 0,-4.343 -3.622,-7.869 -8.108,-7.869 -4.486,0 -8.109,3.527 -8.109,7.869 z" id="path13518" inkscape:connector-curvature="0"/>
          <path d="m 527.883,-194.579 c 0,4.342 3.623,7.869 8.109,7.869 4.486,0 8.108,-3.527 8.108,-7.869 0,-4.343 -3.622,-7.869 -8.108,-7.869 -4.486,0 -8.109,3.526 -8.109,7.869 z" id="path13520" inkscape:connector-curvature="0"/>
          <path d="m 548.659,-194.531 c 0,1.583 0.479,3.071 1.319,4.318 1.439,2.135 3.959,3.551 6.789,3.551 4.486,0 8.109,-3.527 8.109,-7.869 0,-4.342 -3.623,-7.869 -8.109,-7.869 -4.486,0 -8.108,3.526 -8.108,7.869 z" id="path13522" inkscape:connector-curvature="0"/>
          <path d="m 536.928,-179.249 c 4.006,0 6.117,-3.263 7.221,-6.525 1.104,-3.262 1.2,-6.526 1.2,-6.526 l 2.063,0 c 0,0 0.384,13.027 8.397,13.051 l -18.881,0 z" id="path13524" inkscape:connector-curvature="0"/>
          <path d="m 551.945,-203.696 c -4.558,4.558 -4.558,11.396 -4.558,11.396 l -2.039,0.024 c 0,0 0,-6.981 -4.438,-11.419" id="path13526" inkscape:connector-curvature="0"/>
          <path d="m 551.034,-189.062 c -4.559,-4.558 -11.396,-4.558 -11.396,-4.558 l 0,-2.039 c 0,0 6.981,0 11.42,-4.438" id="path13528" inkscape:connector-curvature="0"/>
          <path d="m 541.894,-189.037 c 4.559,-4.559 11.396,-4.559 11.396,-4.559 l 0,-2.039 c 0,0 -6.981,0 -11.42,-4.438" id="path13530" inkscape:connector-curvature="0"/>
        </g>
      </g>
      <g id="g13532">
        <g id="club_15_">
          <path d="m 554.417,-23.707 c 0,-4.342 -3.623,-7.869 -8.109,-7.869 -4.486,0 -8.108,3.527 -8.108,7.869 0,4.342 3.622,7.869 8.108,7.869 4.486,0 8.109,-3.526 8.109,-7.869 z" id="path13535" inkscape:connector-curvature="0"/>
          <path d="m 564.877,-38.605 c 0,-4.342 -3.623,-7.869 -8.109,-7.869 -4.486,0 -8.108,3.527 -8.108,7.869 0,4.342 3.622,7.869 8.108,7.869 4.486,0 8.109,-3.527 8.109,-7.869 z" id="path13537" inkscape:connector-curvature="0"/>
          <path d="m 544.101,-38.653 c 0,-1.583 -0.479,-3.071 -1.319,-4.318 -1.439,-2.135 -3.959,-3.551 -6.789,-3.551 -4.486,0 -8.109,3.527 -8.109,7.869 0,4.342 3.623,7.869 8.109,7.869 4.486,0 8.108,-3.527 8.108,-7.869 z" id="path13539" inkscape:connector-curvature="0"/>
          <path d="m 555.832,-53.935 c -4.006,0 -6.117,3.263 -7.221,6.525 -1.104,3.262 -1.2,6.526 -1.2,6.526 l -2.063,0 c 0,0 -0.384,-13.027 -8.397,-13.051 l 18.881,0 z" id="path13541" inkscape:connector-curvature="0"/>
          <path d="m 540.815,-29.488 c 4.558,-4.559 4.558,-11.396 4.558,-11.396 l 2.039,-0.024 c 0,0 0,6.981 4.438,11.42" id="path13543" inkscape:connector-curvature="0"/>
          <path d="m 541.726,-44.123 c 4.559,4.559 11.396,4.559 11.396,4.559 l 0,2.039 c 0,0 -6.981,0 -11.42,4.438" id="path13545" inkscape:connector-curvature="0"/>
          <path d="m 550.866,-44.147 c -4.559,4.559 -11.396,4.559 -11.396,4.559 l 0,2.039 c 0,0 6.981,0 11.42,4.438" id="path13547" inkscape:connector-curvature="0"/>
        </g>
      </g>
      <g id="g13549">
        <g id="club_16_">
          <path d="m 618.171,-209.478 c 0,4.342 3.622,7.869 8.108,7.869 4.486,0 8.109,-3.526 8.109,-7.869 0,-4.343 -3.623,-7.869 -8.109,-7.869 -4.486,0 -8.108,3.527 -8.108,7.869 z" id="path13552" inkscape:connector-curvature="0"/>
          <path d="m 607.711,-194.579 c 0,4.342 3.622,7.869 8.108,7.869 4.486,0 8.109,-3.527 8.109,-7.869 0,-4.343 -3.623,-7.869 -8.109,-7.869 -4.486,0 -8.108,3.526 -8.108,7.869 z" id="path13554" inkscape:connector-curvature="0"/>
          <path d="m 628.487,-194.531 c 0,1.583 0.479,3.071 1.319,4.318 1.439,2.135 3.958,3.551 6.789,3.551 4.486,0 8.109,-3.527 8.109,-7.869 0,-4.342 -3.623,-7.869 -8.109,-7.869 -4.486,0 -8.108,3.526 -8.108,7.869 z" id="path13556" inkscape:connector-curvature="0"/>
          <path d="m 616.755,-179.249 c 4.007,0 6.118,-3.263 7.222,-6.525 1.104,-3.262 1.199,-6.526 1.199,-6.526 l 2.063,0 c 0,0 0.384,13.027 8.397,13.051 l -18.881,0 z" id="path13558" inkscape:connector-curvature="0"/>
          <path d="m 631.774,-203.696 c -4.558,4.558 -4.558,11.396 -4.558,11.396 l -2.04,0.024 c 0,0 0,-6.981 -4.438,-11.419" id="path13560" inkscape:connector-curvature="0"/>
          <path d="m 630.862,-189.062 c -4.559,-4.558 -11.396,-4.558 -11.396,-4.558 l 0,-2.039 c 0,0 6.98,0 11.419,-4.438" id="path13562" inkscape:connector-curvature="0"/>
          <path d="m 621.722,-189.037 c 4.558,-4.559 11.396,-4.559 11.396,-4.559 l 0,-2.039 c 0,0 -6.981,0 -11.42,-4.438" id="path13564" inkscape:connector-curvature="0"/>
        </g>
      </g>
      <g id="g13566">
        <g id="club_17_">
          <path d="m 634.245,-23.707 c 0,-4.342 -3.623,-7.869 -8.109,-7.869 -4.486,0 -8.108,3.527 -8.108,7.869 0,4.342 3.622,7.869 8.108,7.869 4.486,0 8.109,-3.526 8.109,-7.869 z" id="path13569" inkscape:connector-curvature="0"/>
          <path d="m 644.705,-38.605 c 0,-4.342 -3.623,-7.869 -8.109,-7.869 -4.486,0 -8.108,3.527 -8.108,7.869 0,4.342 3.622,7.869 8.108,7.869 4.486,0 8.109,-3.527 8.109,-7.869 z" id="path13571" inkscape:connector-curvature="0"/>
          <path d="m 623.929,-38.653 c 0,-1.583 -0.479,-3.071 -1.319,-4.318 -1.439,-2.135 -3.959,-3.551 -6.79,-3.551 -4.486,0 -8.108,3.527 -8.108,7.869 0,4.342 3.622,7.869 8.108,7.869 4.486,0 8.109,-3.527 8.109,-7.869 z" id="path13573" inkscape:connector-curvature="0"/>
          <path d="m 635.66,-53.935 c -4.006,0 -6.117,3.263 -7.221,6.525 -1.104,3.262 -1.2,6.526 -1.2,6.526 l -2.063,0 c 0,0 -0.384,-13.027 -8.396,-13.051 l 18.88,0 z" id="path13575" inkscape:connector-curvature="0"/>
          <path d="m 620.642,-29.488 c 4.559,-4.559 4.559,-11.396 4.559,-11.396 l 2.039,-0.024 c 0,0 0,6.981 4.438,11.42" id="path13577" inkscape:connector-curvature="0"/>
          <path d="m 621.554,-44.123 c 4.559,4.559 11.396,4.559 11.396,4.559 l 0,2.039 c 0,0 -6.981,0 -11.42,4.438" id="path13579" inkscape:connector-curvature="0"/>
          <path d="m 630.695,-44.147 c -4.559,4.559 -11.396,4.559 -11.396,4.559 l 0,2.039 c 0,0 6.981,0 11.419,4.438" id="path13581" inkscape:connector-curvature="0"/>
        </g>
      </g>
    </g> </svg>