<svg xmlns:dc="http://purl.org/dc/elements/1.1/" xmlns:cc="http://creativecommons.org/ns#" xmlns:rdf="http://www.w3.org/1999/02/22-rdf-syntax-ns#" xmlns:svg="http://www.w3.org/2000/svg" xmlns="http://www.w3.org/2000/svg" xmlns:sodipodi="http://sodipodi.sourceforge.net/DTD/sodipodi-0.dtd" xmlns:inkscape="http://www.inkscape.org/namespaces/inkscape" version="1.1" height="1216.19" width="2178.18" viewBox="-.2 -236 2178.99 1216.19" id="deck" ><g xmlns="http://www.w3.org/2000/svg" id="_x35__x5F_club" class="card">
      <g id="g13584">
        <g id="base_4_">
          <path d="m 670.051,0.138 c 0,3.779 3.089,6.868 6.867,6.868 l 152.788,0 c 3.769,0 6.857,-3.089 6.857,-6.868 l 0,-228.315 c 0,-3.779 -3.089,-6.867 -6.857,-6.867 l -152.788,0 c -3.778,0 -6.867,3.088 -6.867,6.867 l 0,228.315 z" id="path13587" inkscape:connector-curvature="0" style="fill:#ffffff;stroke:#000000;stroke-width:2.5"/>
        </g>
      </g>
      <g id="g13589">
        <g id="n_5">
          <text transform="matrix(0.5339,0,0,1,676.0139,-198.793)" font-size="40" id="text13592" style="font-size:40px;font-family:CopperplateGothic-Bold">5</text>
        </g>
      </g>
      <g id="g13594">
        <g id="n_5_1_">
          <text transform="matrix(-0.5339,0,0,-1,831.7512,-30.0181)" font-size="40" id="text13597" style="font-size:40px;font-family:CopperplateGothic-Bold">5</text>
        </g>
      </g>
      <g id="g13599">
        <g id="club_18_">
          <path d="m 680.347,-189.568 c 0,1.81 1.51,3.279 3.379,3.279 1.869,0 3.379,-1.469 3.379,-3.279 0,-1.809 -1.51,-3.278 -3.379,-3.278 -1.869,0 -3.379,1.469 -3.379,3.278 z" id="path13602" inkscape:connector-curvature="0"/>
          <path d="m 675.988,-183.36 c 0,1.809 1.51,3.279 3.379,3.279 1.869,0 3.379,-1.47 3.379,-3.279 0,-1.81 -1.51,-3.279 -3.379,-3.279 -1.869,0 -3.379,1.469 -3.379,3.279 z" id="path13604" inkscape:connector-curvature="0"/>
          <path d="m 684.646,-183.34 c 0,0.66 0.2,1.279 0.55,1.799 0.6,0.89 1.649,1.479 2.829,1.479 1.869,0 3.379,-1.47 3.379,-3.279 0,-1.81 -1.51,-3.279 -3.379,-3.279 -1.869,0 -3.379,1.47 -3.379,3.28 z" id="path13606" inkscape:connector-curvature="0"/>
          <path d="m 679.757,-176.973 c 1.67,0 2.55,-1.359 3.009,-2.719 0.46,-1.359 0.5,-2.719 0.5,-2.719 l 0.86,0 c 0,0 0.159,5.428 3.498,5.438 l -7.867,0 z" id="path13608" inkscape:connector-curvature="0"/>
          <path d="m 686.015,-187.159 c -1.899,1.899 -1.899,4.749 -1.899,4.749 l -0.85,0.01 c 0,0 0,-2.909 -1.849,-4.758" id="path13610" inkscape:connector-curvature="0"/>
          <path d="m 685.635,-181.062 c -1.899,-1.899 -4.748,-1.899 -4.748,-1.899 l 0,-0.85 c 0,0 2.909,0 4.758,-1.85" id="path13612" inkscape:connector-curvature="0"/>
          <path d="m 681.826,-181.051 c 1.899,-1.899 4.748,-1.899 4.748,-1.899 l 0,-0.85 c 0,0 -2.908,0 -4.758,-1.849" id="path13614" inkscape:connector-curvature="0"/>
        </g>
      </g>
      <g id="g13616">
        <g id="club_19_">
          <path d="m 827.268,-39.467 c 0,-1.81 -1.51,-3.279 -3.379,-3.279 -1.869,0 -3.379,1.469 -3.379,3.279 0,1.809 1.51,3.279 3.379,3.279 1.869,0 3.379,-1.47 3.379,-3.279 z" id="path13619" inkscape:connector-curvature="0"/>
          <path d="m 831.626,-45.675 c 0,-1.809 -1.51,-3.279 -3.379,-3.279 -1.869,0 -3.379,1.47 -3.379,3.279 0,1.81 1.51,3.279 3.379,3.279 1.869,0 3.379,-1.469 3.379,-3.279 z" id="path13621" inkscape:connector-curvature="0"/>
          <path d="m 822.969,-45.695 c 0,-0.66 -0.2,-1.279 -0.55,-1.799 -0.6,-0.89 -1.649,-1.479 -2.829,-1.479 -1.869,0 -3.379,1.47 -3.379,3.279 0,1.81 1.51,3.279 3.379,3.279 1.869,0 3.379,-1.47 3.379,-3.28 z" id="path13623" inkscape:connector-curvature="0"/>
          <path d="m 827.858,-52.063 c -1.67,0 -2.55,1.36 -3.01,2.719 -0.459,1.359 -0.499,2.719 -0.499,2.719 l -0.86,0 c 0,0 -0.159,-5.428 -3.498,-5.438 l 7.867,0 z" id="path13625" inkscape:connector-curvature="0"/>
          <path d="m 821.6,-41.876 c 1.899,-1.899 1.899,-4.749 1.899,-4.749 l 0.85,-0.01 c 0,0 0,2.909 1.849,4.758" id="path13627" inkscape:connector-curvature="0"/>
          <path d="m 821.98,-47.974 c 1.899,1.899 4.748,1.899 4.748,1.899 l 0,0.85 c 0,0 -2.909,0 -4.759,1.849" id="path13629" inkscape:connector-curvature="0"/>
          <path d="m 825.788,-47.984 c -1.899,1.899 -4.749,1.899 -4.749,1.899 l 0,0.85 c 0,0 2.909,0 4.759,1.849" id="path13631" inkscape:connector-curvature="0"/>
        </g>
      </g>
      <g id="g13633">
        <g id="club_20_">
          <path d="m 705.856,-209.478 c 0,4.342 3.623,7.869 8.109,7.869 4.486,0 8.109,-3.526 8.109,-7.869 0,-4.343 -3.623,-7.869 -8.109,-7.869 -4.486,0 -8.109,3.527 -8.109,7.869 z" id="path13636" inkscape:connector-curvature="0"/>
          <path d="m 695.396,-194.579 c 0,4.342 3.623,7.869 8.109,7.869 4.486,0 8.108,-3.527 8.108,-7.869 0,-4.343 -3.622,-7.869 -8.108,-7.869 -4.486,0 -8.109,3.526 -8.109,7.869 z" id="path13638" inkscape:connector-curvature="0"/>
          <path d="m 716.172,-194.531 c 0,1.583 0.48,3.071 1.319,4.318 1.439,2.135 3.959,3.551 6.79,3.551 4.486,0 8.108,-3.527 8.108,-7.869 0,-4.342 -3.622,-7.869 -8.108,-7.869 -4.486,0 -8.109,3.526 -8.109,7.869 z" id="path13640" inkscape:connector-curvature="0"/>
          <path d="m 704.441,-179.249 c 4.007,0 6.118,-3.263 7.222,-6.525 1.104,-3.262 1.199,-6.526 1.199,-6.526 l 2.063,0 c 0,0 0.384,13.027 8.396,13.051 l -18.88,0 z" id="path13642" inkscape:connector-curvature="0"/>
          <path d="m 719.459,-203.696 c -4.559,4.558 -4.559,11.396 -4.559,11.396 l -2.039,0.024 c 0,0 0,-6.981 -4.438,-11.419" id="path13644" inkscape:connector-curvature="0"/>
          <path d="m 718.547,-189.062 c -4.558,-4.558 -11.396,-4.558 -11.396,-4.558 l 0,-2.039 c 0,0 6.981,0 11.42,-4.438" id="path13646" inkscape:connector-curvature="0"/>
          <path d="m 709.406,-189.037 c 4.559,-4.559 11.396,-4.559 11.396,-4.559 l 0,-2.039 c 0,0 -6.981,0 -11.42,-4.438" id="path13648" inkscape:connector-curvature="0"/>
        </g>
      </g>
      <g id="g13650">
        <g id="club_21_">
          <path d="m 721.93,-23.707 c 0,-4.342 -3.622,-7.869 -8.108,-7.869 -4.486,0 -8.109,3.527 -8.109,7.869 0,4.342 3.623,7.869 8.109,7.869 4.486,0 8.108,-3.526 8.108,-7.869 z" id="path13653" inkscape:connector-curvature="0"/>
          <path d="m 732.39,-38.605 c 0,-4.342 -3.622,-7.869 -8.108,-7.869 -4.486,0 -8.109,3.527 -8.109,7.869 0,4.342 3.623,7.869 8.109,7.869 4.486,0 8.108,-3.527 8.108,-7.869 z" id="path13655" inkscape:connector-curvature="0"/>
          <path d="m 711.613,-38.653 c 0,-1.583 -0.479,-3.071 -1.319,-4.318 -1.439,-2.135 -3.958,-3.551 -6.789,-3.551 -4.486,0 -8.109,3.527 -8.109,7.869 0,4.342 3.623,7.869 8.109,7.869 4.486,0 8.108,-3.527 8.108,-7.869 z" id="path13657" inkscape:connector-curvature="0"/>
          <path d="m 723.346,-53.935 c -4.007,0 -6.118,3.263 -7.222,6.525 -1.104,3.262 -1.199,6.526 -1.199,6.526 l -2.063,0 c 0,0 -0.384,-13.027 -8.396,-13.051 l 18.88,0 z" id="path13659" inkscape:connector-curvature="0"/>
          <path d="m 708.327,-29.488 c 4.558,-4.559 4.558,-11.396 4.558,-11.396 l 2.04,-0.024 c 0,0 0,6.981 4.438,11.42" id="path13661" inkscape:connector-curvature="0"/>
          <path d="m 709.238,-44.123 c 4.559,4.559 11.396,4.559 11.396,4.559 l 0,2.039 c 0,0 -6.981,0 -11.42,4.438" id="path13663" inkscape:connector-curvature="0"/>
          <path d="m 718.379,-44.147 c -4.558,4.559 -11.396,4.559 -11.396,4.559 l 0,2.039 c 0,0 6.981,0 11.42,4.438" id="path13665" inkscape:connector-curvature="0"/>
        </g>
      </g>
      <g id="g13667">
        <g id="club_22_">
          <path d="m 785.684,-209.478 c 0,4.342 3.623,7.869 8.109,7.869 4.486,0 8.108,-3.526 8.108,-7.869 0,-4.343 -3.622,-7.869 -8.108,-7.869 -4.486,0 -8.109,3.527 -8.109,7.869 z" id="path13670" inkscape:connector-curvature="0"/>
          <path d="m 775.224,-194.579 c 0,4.342 3.623,7.869 8.109,7.869 4.486,0 8.108,-3.527 8.108,-7.869 0,-4.343 -3.622,-7.869 -8.108,-7.869 -4.486,0 -8.109,3.526 -8.109,7.869 z" id="path13672" inkscape:connector-curvature="0"/>
          <path d="m 796,-194.531 c 0,1.583 0.479,3.071 1.319,4.318 1.439,2.135 3.959,3.551 6.79,3.551 4.486,0 8.108,-3.527 8.108,-7.869 0,-4.342 -3.622,-7.869 -8.108,-7.869 -4.486,0 -8.109,3.526 -8.109,7.869 z" id="path13674" inkscape:connector-curvature="0"/>
          <path d="m 784.269,-179.249 c 4.006,0 6.117,-3.263 7.221,-6.525 1.104,-3.262 1.2,-6.526 1.2,-6.526 l 2.063,0 c 0,0 0.385,13.027 8.397,13.051 l -18.881,0 z" id="path13676" inkscape:connector-curvature="0"/>
          <path d="m 799.287,-203.696 c -4.559,4.558 -4.559,11.396 -4.559,11.396 l -2.039,0.024 c 0,0 0,-6.981 -4.438,-11.419" id="path13678" inkscape:connector-curvature="0"/>
          <path d="m 798.375,-189.062 c -4.559,-4.558 -11.396,-4.558 -11.396,-4.558 l 0,-2.039 c 0,0 6.981,0 11.42,-4.438" id="path13680" inkscape:connector-curvature="0"/>
          <path d="m 789.235,-189.037 c 4.559,-4.559 11.396,-4.559 11.396,-4.559 l 0,-2.039 c 0,0 -6.981,0 -11.419,-4.438" id="path13682" inkscape:connector-curvature="0"/>
        </g>
      </g>
      <g id="g13684">
        <g id="club_23_">
          <path d="m 801.758,-23.707 c 0,-4.342 -3.623,-7.869 -8.109,-7.869 -4.486,0 -8.108,3.527 -8.108,7.869 0,4.342 3.622,7.869 8.108,7.869 4.486,0 8.109,-3.526 8.109,-7.869 z" id="path13687" inkscape:connector-curvature="0"/>
          <path d="m 812.218,-38.605 c 0,-4.342 -3.622,-7.869 -8.108,-7.869 -4.486,0 -8.11,3.527 -8.11,7.869 0,4.342 3.623,7.869 8.109,7.869 4.486,0 8.109,-3.527 8.109,-7.869 z" id="path13689" inkscape:connector-curvature="0"/>
          <path d="m 791.442,-38.653 c 0,-1.583 -0.479,-3.071 -1.319,-4.318 -1.439,-2.135 -3.958,-3.551 -6.789,-3.551 -4.486,0 -8.109,3.527 -8.109,7.869 0,4.342 3.623,7.869 8.109,7.869 4.486,0 8.108,-3.527 8.108,-7.869 z" id="path13691" inkscape:connector-curvature="0"/>
          <path d="m 803.173,-53.935 c -4.006,0 -6.117,3.263 -7.221,6.525 -1.104,3.262 -1.2,6.526 -1.2,6.526 l -2.063,0 c 0,0 -0.384,-13.027 -8.397,-13.051 l 18.881,0 z" id="path13693" inkscape:connector-curvature="0"/>
          <path d="m 788.155,-29.488 c 4.558,-4.559 4.558,-11.396 4.558,-11.396 l 2.039,-0.024 c 0,0 0,6.981 4.438,11.42" id="path13695" inkscape:connector-curvature="0"/>
          <path d="m 789.067,-44.123 c 4.559,4.559 11.396,4.559 11.396,4.559 l 0,2.039 c 0,0 -6.981,0 -11.419,4.438" id="path13697" inkscape:connector-curvature="0"/>
          <path d="m 798.207,-44.147 c -4.559,4.559 -11.396,4.559 -11.396,4.559 l 0,2.039 c 0,0 6.981,0 11.42,4.438" id="path13699" inkscape:connector-curvature="0"/>
        </g>
      </g>
      <g id="g13701">
        <g id="club_24_">
          <path d="m 745.77,-132.565 c 0,4.342 3.623,7.869 8.109,7.869 4.486,0 8.108,-3.527 8.108,-7.869 0,-4.342 -3.622,-7.869 -8.108,-7.869 -4.486,0 -8.109,3.527 -8.109,7.869 z" id="path13704" inkscape:connector-curvature="0"/>
          <path d="m 735.31,-117.667 c 0,4.342 3.623,7.869 8.109,7.869 4.486,0 8.108,-3.527 8.108,-7.869 0,-4.342 -3.622,-7.869 -8.108,-7.869 -4.486,0 -8.109,3.527 -8.109,7.869 z" id="path13706" inkscape:connector-curvature="0"/>
          <path d="m 756.086,-117.619 c 0,1.583 0.479,3.071 1.319,4.318 1.439,2.135 3.959,3.551 6.79,3.551 4.486,0 8.108,-3.527 8.108,-7.869 0,-4.342 -3.622,-7.869 -8.108,-7.869 -4.486,0 -8.109,3.527 -8.109,7.869 z" id="path13708" inkscape:connector-curvature="0"/>
          <path d="m 744.355,-102.336 c 4.006,0 6.117,-3.263 7.221,-6.525 1.104,-3.262 1.2,-6.525 1.2,-6.525 l 2.063,0 c 0,0 0.385,13.027 8.397,13.051 l -18.881,0 z" id="path13710" inkscape:connector-curvature="0"/>
          <path d="m 759.373,-126.783 c -4.559,4.559 -4.559,11.396 -4.559,11.396 l -2.039,0.024 c 0,0 0,-6.981 -4.438,-11.42" id="path13712" inkscape:connector-curvature="0"/>
          <path d="m 758.461,-112.148 c -4.559,-4.559 -11.396,-4.559 -11.396,-4.559 l 0,-2.039 c 0,0 6.981,0 11.42,-4.438" id="path13714" inkscape:connector-curvature="0"/>
          <path d="m 749.32,-112.125 c 4.559,-4.558 11.396,-4.558 11.396,-4.558 l 0,-2.04 c 0,0 -6.981,0 -11.419,-4.438" id="path13716" inkscape:connector-curvature="0"/>
        </g>
      </g>
    </g> </svg>