<svg xmlns:dc="http://purl.org/dc/elements/1.1/" xmlns:cc="http://creativecommons.org/ns#" xmlns:rdf="http://www.w3.org/1999/02/22-rdf-syntax-ns#" xmlns:svg="http://www.w3.org/2000/svg" xmlns="http://www.w3.org/2000/svg" xmlns:sodipodi="http://sodipodi.sourceforge.net/DTD/sodipodi-0.dtd" xmlns:inkscape="http://www.inkscape.org/namespaces/inkscape" version="1.1" height="1216.19" width="2178.18" viewBox="-.2 -236 2178.99 1216.19" id="deck" ><g xmlns="http://www.w3.org/2000/svg" id="_x36__x5F_club" class="card">
      <g id="g13719">
        <g id="base_5_">
          <path d="m 837.564,0.138 c 0,3.779 3.089,6.868 6.867,6.868 l 152.788,0 c 3.769,0 6.857,-3.089 6.857,-6.868 l 0,-228.315 c 0,-3.779 -3.089,-6.867 -6.857,-6.867 l -152.788,0 c -3.778,0 -6.867,3.088 -6.867,6.867 l 0,228.315 z" id="path13722" inkscape:connector-curvature="0" style="fill:#ffffff;stroke:#000000;stroke-width:2.5"/>
        </g>
      </g>
      <g id="g13724">
        <g id="n_6">
          <text transform="matrix(0.5339,0,0,1,843.5266,-198.793)" font-size="40" id="text13727" style="font-size:40px;font-family:CopperplateGothic-Bold">6</text>
        </g>
      </g>
      <g id="g13729">
        <g id="n_6_1_">
          <text transform="matrix(-0.5339,0,0,-1,999.2648,-30.0181)" font-size="40" id="text13732" style="font-size:40px;font-family:CopperplateGothic-Bold">6</text>
        </g>
      </g>
      <g id="g13734">
        <g id="club_25_">
          <path d="m 847.86,-189.568 c 0,1.81 1.51,3.279 3.379,3.279 1.869,0 3.379,-1.469 3.379,-3.279 0,-1.809 -1.51,-3.278 -3.379,-3.278 -1.869,0 -3.379,1.469 -3.379,3.278 z" id="path13737" inkscape:connector-curvature="0"/>
          <path d="m 843.501,-183.36 c 0,1.809 1.51,3.279 3.379,3.279 1.869,0 3.379,-1.47 3.379,-3.279 0,-1.81 -1.51,-3.279 -3.379,-3.279 -1.869,0 -3.379,1.469 -3.379,3.279 z" id="path13739" inkscape:connector-curvature="0"/>
          <path d="m 852.158,-183.34 c 0,0.66 0.2,1.279 0.55,1.799 0.6,0.89 1.649,1.479 2.829,1.479 1.869,0 3.379,-1.47 3.379,-3.279 0,-1.81 -1.51,-3.279 -3.379,-3.279 -1.869,0 -3.379,1.47 -3.379,3.28 z" id="path13741" inkscape:connector-curvature="0"/>
          <path d="m 847.27,-176.973 c 1.67,0 2.55,-1.359 3.009,-2.719 0.46,-1.359 0.5,-2.719 0.5,-2.719 l 0.86,0 c 0,0 0.159,5.428 3.498,5.438 l -7.867,0 z" id="path13743" inkscape:connector-curvature="0"/>
          <path d="m 853.528,-187.159 c -1.899,1.899 -1.899,4.749 -1.899,4.749 l -0.85,0.01 c 0,0 0,-2.909 -1.849,-4.758" id="path13745" inkscape:connector-curvature="0"/>
          <path d="m 853.148,-181.062 c -1.899,-1.899 -4.748,-1.899 -4.748,-1.899 l 0,-0.85 c 0,0 2.909,0 4.758,-1.85" id="path13747" inkscape:connector-curvature="0"/>
          <path d="m 849.339,-181.051 c 1.899,-1.899 4.748,-1.899 4.748,-1.899 l 0,-0.85 c 0,0 -2.908,0 -4.758,-1.849" id="path13749" inkscape:connector-curvature="0"/>
        </g>
      </g>
      <g id="g13751">
        <g id="club_26_">
          <path d="m 994.78,-39.467 c 0,-1.81 -1.51,-3.279 -3.379,-3.279 -1.869,0 -3.379,1.469 -3.379,3.279 0,1.809 1.51,3.279 3.379,3.279 1.869,0 3.379,-1.47 3.379,-3.279 z" id="path13754" inkscape:connector-curvature="0"/>
          <path d="m 999.139,-45.675 c 0,-1.809 -1.51,-3.279 -3.379,-3.279 -1.869,0 -3.379,1.47 -3.379,3.279 0,1.81 1.51,3.279 3.379,3.279 1.869,0 3.379,-1.469 3.379,-3.279 z" id="path13756" inkscape:connector-curvature="0"/>
          <path d="m 990.482,-45.695 c 0,-0.66 -0.2,-1.279 -0.55,-1.799 -0.6,-0.89 -1.649,-1.479 -2.829,-1.479 -1.869,0 -3.379,1.47 -3.379,3.279 0,1.81 1.51,3.279 3.379,3.279 1.869,0 3.379,-1.47 3.379,-3.28 z" id="path13758" inkscape:connector-curvature="0"/>
          <path d="m 995.37,-52.063 c -1.67,0 -2.55,1.36 -3.009,2.719 -0.46,1.359 -0.5,2.719 -0.5,2.719 l -0.86,0 c 0,0 -0.159,-5.428 -3.498,-5.438 l 7.867,0 z" id="path13760" inkscape:connector-curvature="0"/>
          <path d="m 989.112,-41.876 c 1.899,-1.899 1.899,-4.749 1.899,-4.749 l 0.85,-0.01 c 0,0 0,2.909 1.849,4.758" id="path13762" inkscape:connector-curvature="0"/>
          <path d="m 989.492,-47.974 c 1.899,1.899 4.748,1.899 4.748,1.899 l 0,0.85 c 0,0 -2.909,0 -4.758,1.849" id="path13764" inkscape:connector-curvature="0"/>
          <path d="m 993.301,-47.984 c -1.899,1.899 -4.748,1.899 -4.748,1.899 l 0,0.85 c 0,0 2.908,0 4.758,1.849" id="path13766" inkscape:connector-curvature="0"/>
        </g>
      </g>
      <g id="g13768">
        <g id="club_27_">
          <path d="m 873.369,-209.478 c 0,4.342 3.622,7.869 8.108,7.869 4.486,0 8.109,-3.526 8.109,-7.869 0,-4.343 -3.623,-7.869 -8.109,-7.869 -4.486,0 -8.108,3.527 -8.108,7.869 z" id="path13771" inkscape:connector-curvature="0"/>
          <path d="m 862.908,-194.579 c 0,4.342 3.623,7.869 8.109,7.869 4.486,0 8.109,-3.527 8.109,-7.869 0,-4.343 -3.623,-7.869 -8.109,-7.869 -4.486,0 -8.109,3.526 -8.109,7.869 z" id="path13773" inkscape:connector-curvature="0"/>
          <path d="m 883.685,-194.531 c 0,1.583 0.48,3.071 1.319,4.318 1.44,2.135 3.959,3.551 6.79,3.551 4.486,0 8.109,-3.527 8.109,-7.869 0,-4.342 -3.623,-7.869 -8.109,-7.869 -4.486,0 -8.109,3.526 -8.109,7.869 z" id="path13775" inkscape:connector-curvature="0"/>
          <path d="m 871.953,-179.249 c 4.007,0 6.118,-3.263 7.222,-6.525 1.104,-3.262 1.199,-6.526 1.199,-6.526 l 2.063,0 c 0,0 0.384,13.027 8.396,13.051 l -18.88,0 z" id="path13777" inkscape:connector-curvature="0"/>
          <path d="m 886.972,-203.696 c -4.559,4.558 -4.559,11.396 -4.559,11.396 l -2.039,0.024 c 0,0 0,-6.981 -4.438,-11.419" id="path13779" inkscape:connector-curvature="0"/>
          <path d="m 886.061,-189.062 c -4.559,-4.558 -11.396,-4.558 -11.396,-4.558 l 0,-2.039 c 0,0 6.981,0 11.42,-4.438" id="path13781" inkscape:connector-curvature="0"/>
          <path d="m 876.92,-189.037 c 4.558,-4.559 11.396,-4.559 11.396,-4.559 l 0,-2.039 c 0,0 -6.981,0 -11.42,-4.438" id="path13783" inkscape:connector-curvature="0"/>
        </g>
      </g>
      <g id="g13785">
        <g id="club_28_">
          <path d="m 873.369,-132.565 c 0,4.342 3.622,7.869 8.108,7.869 4.486,0 8.109,-3.527 8.109,-7.869 0,-4.342 -3.623,-7.869 -8.109,-7.869 -4.486,0 -8.108,3.527 -8.108,7.869 z" id="path13788" inkscape:connector-curvature="0"/>
          <path d="m 862.908,-117.667 c 0,4.342 3.623,7.869 8.109,7.869 4.486,0 8.109,-3.527 8.109,-7.869 0,-4.342 -3.623,-7.869 -8.109,-7.869 -4.486,0 -8.109,3.527 -8.109,7.869 z" id="path13790" inkscape:connector-curvature="0"/>
          <path d="m 883.685,-117.619 c 0,1.583 0.48,3.071 1.319,4.318 1.44,2.135 3.959,3.551 6.79,3.551 4.486,0 8.109,-3.527 8.109,-7.869 0,-4.342 -3.623,-7.869 -8.109,-7.869 -4.486,0 -8.109,3.527 -8.109,7.869 z" id="path13792" inkscape:connector-curvature="0"/>
          <path d="m 871.953,-102.336 c 4.007,0 6.118,-3.263 7.222,-6.525 1.104,-3.262 1.199,-6.525 1.199,-6.525 l 2.063,0 c 0,0 0.384,13.027 8.396,13.051 l -18.88,0 z" id="path13794" inkscape:connector-curvature="0"/>
          <path d="m 886.972,-126.783 c -4.559,4.559 -4.559,11.396 -4.559,11.396 l -2.039,0.024 c 0,0 0,-6.981 -4.438,-11.42" id="path13796" inkscape:connector-curvature="0"/>
          <path d="m 886.061,-112.148 c -4.559,-4.559 -11.396,-4.559 -11.396,-4.559 l 0,-2.039 c 0,0 6.981,0 11.42,-4.438" id="path13798" inkscape:connector-curvature="0"/>
          <path d="m 876.92,-112.125 c 4.558,-4.558 11.396,-4.558 11.396,-4.558 l 0,-2.04 c 0,0 -6.981,0 -11.42,-4.438" id="path13800" inkscape:connector-curvature="0"/>
        </g>
      </g>
      <g id="g13802">
        <g id="club_29_">
          <path d="m 889.443,-23.707 c 0,-4.342 -3.622,-7.869 -8.108,-7.869 -4.486,0 -8.109,3.527 -8.109,7.869 0,4.342 3.623,7.869 8.109,7.869 4.486,0 8.108,-3.526 8.108,-7.869 z" id="path13805" inkscape:connector-curvature="0"/>
          <path d="m 899.904,-38.605 c 0,-4.342 -3.623,-7.869 -8.109,-7.869 -4.486,0 -8.109,3.527 -8.109,7.869 0,4.342 3.623,7.869 8.109,7.869 4.486,0 8.109,-3.527 8.109,-7.869 z" id="path13807" inkscape:connector-curvature="0"/>
          <path d="m 879.127,-38.653 c 0,-1.583 -0.48,-3.071 -1.319,-4.318 -1.44,-2.135 -3.959,-3.551 -6.79,-3.551 -4.486,0 -8.109,3.527 -8.109,7.869 0,4.342 3.623,7.869 8.109,7.869 4.486,0 8.109,-3.527 8.109,-7.869 z" id="path13809" inkscape:connector-curvature="0"/>
          <path d="m 890.859,-53.935 c -4.007,0 -6.118,3.263 -7.222,6.525 -1.104,3.262 -1.199,6.526 -1.199,6.526 l -2.063,0 c 0,0 -0.384,-13.027 -8.396,-13.051 l 18.88,0 z" id="path13811" inkscape:connector-curvature="0"/>
          <path d="m 875.84,-29.488 c 4.559,-4.559 4.559,-11.396 4.559,-11.396 l 2.039,-0.024 c 0,0 0,6.981 4.438,11.42" id="path13813" inkscape:connector-curvature="0"/>
          <path d="m 876.752,-44.123 c 4.558,4.559 11.396,4.559 11.396,4.559 l 0,2.039 c 0,0 -6.981,0 -11.42,4.438" id="path13815" inkscape:connector-curvature="0"/>
          <path d="m 885.893,-44.147 c -4.559,4.559 -11.396,4.559 -11.396,4.559 l 0,2.039 c 0,0 6.981,0 11.42,4.438" id="path13817" inkscape:connector-curvature="0"/>
        </g>
      </g>
      <g id="g13819">
        <g id="club_30_">
          <path d="m 953.196,-209.478 c 0,4.342 3.623,7.869 8.109,7.869 4.486,0 8.109,-3.526 8.109,-7.869 0,-4.343 -3.623,-7.869 -8.109,-7.869 -4.486,0 -8.109,3.527 -8.109,7.869 z" id="path13822" inkscape:connector-curvature="0"/>
          <path d="m 942.737,-194.579 c 0,4.342 3.623,7.869 8.109,7.869 4.486,0 8.108,-3.527 8.108,-7.869 0,-4.343 -3.622,-7.869 -8.108,-7.869 -4.486,0 -8.109,3.526 -8.109,7.869 z" id="path13824" inkscape:connector-curvature="0"/>
          <path d="m 963.513,-194.531 c 0,1.583 0.479,3.071 1.319,4.318 1.439,2.135 3.959,3.551 6.79,3.551 4.486,0 8.108,-3.527 8.108,-7.869 0,-4.342 -3.622,-7.869 -8.108,-7.869 -4.486,0 -8.109,3.526 -8.109,7.869 z" id="path13826" inkscape:connector-curvature="0"/>
          <path d="m 951.781,-179.249 c 4.007,0 6.117,-3.263 7.222,-6.525 1.104,-3.263 1.199,-6.526 1.199,-6.526 l 2.063,0 c 0,0 0.384,13.027 8.396,13.051 l -18.88,0 z" id="path13828" inkscape:connector-curvature="0"/>
          <path d="m 966.8,-203.696 c -4.559,4.558 -4.559,11.396 -4.559,11.396 l -2.039,0.024 c 0,0 0,-6.981 -4.438,-11.419" id="path13830" inkscape:connector-curvature="0"/>
          <path d="m 965.888,-189.062 c -4.558,-4.558 -11.396,-4.558 -11.396,-4.558 l 0,-2.039 c 0,0 6.981,0 11.42,-4.438" id="path13832" inkscape:connector-curvature="0"/>
          <path d="m 956.747,-189.037 c 4.559,-4.559 11.396,-4.559 11.396,-4.559 l 0,-2.039 c 0,0 -6.98,0 -11.419,-4.438" id="path13834" inkscape:connector-curvature="0"/>
        </g>
      </g>
      <g id="g13836">
        <g id="club_31_">
          <path d="m 953.196,-132.565 c 0,4.342 3.623,7.869 8.109,7.869 4.486,0 8.109,-3.527 8.109,-7.869 0,-4.342 -3.623,-7.869 -8.109,-7.869 -4.486,0 -8.109,3.527 -8.109,7.869 z" id="path13839" inkscape:connector-curvature="0"/>
          <path d="m 942.737,-117.667 c 0,4.342 3.623,7.869 8.109,7.869 4.486,0 8.108,-3.527 8.108,-7.869 0,-4.342 -3.622,-7.869 -8.108,-7.869 -4.486,0 -8.109,3.527 -8.109,7.869 z" id="path13841" inkscape:connector-curvature="0"/>
          <path d="m 963.513,-117.619 c 0,1.583 0.479,3.071 1.319,4.318 1.439,2.135 3.959,3.551 6.79,3.551 4.486,0 8.108,-3.527 8.108,-7.869 0,-4.342 -3.622,-7.869 -8.108,-7.869 -4.486,0 -8.109,3.527 -8.109,7.869 z" id="path13843" inkscape:connector-curvature="0"/>
          <path d="m 951.781,-102.336 c 4.007,0 6.117,-3.263 7.222,-6.525 1.104,-3.263 1.199,-6.525 1.199,-6.525 l 2.063,0 c 0,0 0.384,13.027 8.396,13.051 l -18.88,0 z" id="path13845" inkscape:connector-curvature="0"/>
          <path d="m 966.8,-126.783 c -4.559,4.559 -4.559,11.396 -4.559,11.396 l -2.039,0.024 c 0,0 0,-6.981 -4.438,-11.42" id="path13847" inkscape:connector-curvature="0"/>
          <path d="m 965.888,-112.148 c -4.558,-4.559 -11.396,-4.559 -11.396,-4.559 l 0,-2.039 c 0,0 6.981,0 11.42,-4.438" id="path13849" inkscape:connector-curvature="0"/>
          <path d="m 956.747,-112.125 c 4.559,-4.558 11.396,-4.558 11.396,-4.558 l 0,-2.04 c 0,0 -6.98,0 -11.419,-4.438" id="path13851" inkscape:connector-curvature="0"/>
        </g>
      </g>
      <g id="g13853">
        <g id="club_32_">
          <path d="m 969.271,-23.707 c 0,-4.342 -3.622,-7.869 -8.108,-7.869 -4.486,0 -8.109,3.527 -8.109,7.869 0,4.342 3.623,7.869 8.109,7.869 4.486,0 8.108,-3.526 8.108,-7.869 z" id="path13856" inkscape:connector-curvature="0"/>
          <path d="m 979.731,-38.605 c 0,-4.342 -3.622,-7.869 -8.108,-7.869 -4.486,0 -8.109,3.527 -8.109,7.869 0,4.342 3.623,7.869 8.109,7.869 4.486,0 8.108,-3.527 8.108,-7.869 z" id="path13858" inkscape:connector-curvature="0"/>
          <path d="m 958.954,-38.653 c 0,-1.583 -0.479,-3.071 -1.319,-4.318 -1.439,-2.135 -3.958,-3.551 -6.789,-3.551 -4.486,0 -8.109,3.527 -8.109,7.869 0,4.342 3.623,7.869 8.109,7.869 4.486,0 8.108,-3.527 8.108,-7.869 z" id="path13860" inkscape:connector-curvature="0"/>
          <path d="m 970.687,-53.935 c -4.007,0 -6.118,3.263 -7.222,6.525 -1.104,3.262 -1.199,6.526 -1.199,6.526 l -2.063,0 c 0,0 -0.384,-13.027 -8.396,-13.051 l 18.88,0 z" id="path13862" inkscape:connector-curvature="0"/>
          <path d="m 955.668,-29.488 c 4.559,-4.559 4.559,-11.396 4.559,-11.396 l 2.039,-0.024 c 0,0 0,6.981 4.438,11.42" id="path13864" inkscape:connector-curvature="0"/>
          <path d="m 956.579,-44.123 c 4.559,4.559 11.396,4.559 11.396,4.559 l 0,2.039 c 0,0 -6.981,0 -11.42,4.438" id="path13866" inkscape:connector-curvature="0"/>
          <path d="m 965.72,-44.147 c -4.558,4.559 -11.396,4.559 -11.396,4.559 l 0,2.039 c 0,0 6.981,0 11.42,4.438" id="path13868" inkscape:connector-curvature="0"/>
        </g>
      </g>
    </g> </svg>