<svg xmlns:dc="http://purl.org/dc/elements/1.1/" xmlns:cc="http://creativecommons.org/ns#" xmlns:rdf="http://www.w3.org/1999/02/22-rdf-syntax-ns#" xmlns:svg="http://www.w3.org/2000/svg" xmlns="http://www.w3.org/2000/svg" xmlns:sodipodi="http://sodipodi.sourceforge.net/DTD/sodipodi-0.dtd" xmlns:inkscape="http://www.inkscape.org/namespaces/inkscape" version="1.1" height="1216.19" width="2178.18" viewBox="-.2 -236 2178.99 1216.19" id="deck" ><g xmlns="http://www.w3.org/2000/svg" id="_x37__x5F_club" class="card">
      <g id="g13871">
        <g id="base_6_">
          <path d="m 1005.076,0.138 c 0,3.779 3.089,6.868 6.867,6.868 l 152.788,0 c 3.769,0 6.857,-3.089 6.857,-6.868 l 0,-228.315 c 0,-3.779 -3.089,-6.867 -6.857,-6.867 l -152.788,0 c -3.778,0 -6.867,3.088 -6.867,6.867 l 0,228.315 z" id="path13874" inkscape:connector-curvature="0" style="fill:#ffffff;stroke:#000000;stroke-width:2.5"/>
        </g>
      </g>
      <g id="g13876">
        <g id="n_7">
          <text transform="matrix(0.5339,0,0,1,1011.0392,-198.793)" font-size="40" id="text13879" style="font-size:40px;font-family:CopperplateGothic-Bold">7</text>
        </g>
      </g>
      <g id="g13881">
        <g id="n_7_1_">
          <text transform="matrix(-0.5339,0,0,-1,1166.7727,-30.0181)" font-size="40" id="text13884" style="font-size:40px;font-family:CopperplateGothic-Bold">7</text>
        </g>
      </g>
      <g id="g13886">
        <g id="club_33_">
          <path d="m 1015.372,-189.568 c 0,1.81 1.51,3.279 3.379,3.279 1.869,0 3.379,-1.469 3.379,-3.279 0,-1.809 -1.51,-3.278 -3.379,-3.278 -1.869,0 -3.379,1.469 -3.379,3.278 z" id="path13889" inkscape:connector-curvature="0"/>
          <path d="m 1011.014,-183.36 c 0,1.809 1.51,3.279 3.379,3.279 1.869,0 3.379,-1.47 3.379,-3.279 0,-1.81 -1.51,-3.279 -3.379,-3.279 -1.869,0 -3.379,1.469 -3.379,3.279 z" id="path13891" inkscape:connector-curvature="0"/>
          <path d="m 1019.671,-183.34 c 0,0.66 0.2,1.279 0.55,1.799 0.6,0.89 1.649,1.479 2.829,1.479 1.869,0 3.378,-1.47 3.378,-3.279 0,-1.81 -1.509,-3.279 -3.378,-3.279 -1.87,0.001 -3.379,1.47 -3.379,3.28 z" id="path13893" inkscape:connector-curvature="0"/>
          <path d="m 1014.782,-176.973 c 1.67,0 2.55,-1.359 3.009,-2.719 0.46,-1.359 0.5,-2.719 0.5,-2.719 l 0.859,0 c 0,0 0.16,5.428 3.499,5.438 l -7.867,0 z" id="path13895" inkscape:connector-curvature="0"/>
          <path d="m 1021.04,-187.159 c -1.899,1.899 -1.899,4.749 -1.899,4.749 l -0.85,0.01 c 0,0 0,-2.909 -1.85,-4.758" id="path13897" inkscape:connector-curvature="0"/>
          <path d="m 1020.66,-181.062 c -1.899,-1.899 -4.748,-1.899 -4.748,-1.899 l 0,-0.85 c 0,0 2.909,0 4.758,-1.85" id="path13899" inkscape:connector-curvature="0"/>
          <path d="m 1016.852,-181.051 c 1.899,-1.899 4.748,-1.899 4.748,-1.899 l 0,-0.85 c 0,0 -2.908,0 -4.758,-1.849" id="path13901" inkscape:connector-curvature="0"/>
        </g>
      </g>
      <g id="g13903">
        <g id="club_34_">
          <path d="m 1162.288,-39.467 c 0,-1.81 -1.51,-3.279 -3.379,-3.279 -1.869,0 -3.379,1.469 -3.379,3.279 0,1.809 1.51,3.279 3.379,3.279 1.869,0 3.379,-1.47 3.379,-3.279 z" id="path13906" inkscape:connector-curvature="0"/>
          <path d="m 1166.647,-45.675 c 0,-1.809 -1.51,-3.279 -3.379,-3.279 -1.869,0 -3.379,1.47 -3.379,3.279 0,1.81 1.51,3.279 3.379,3.279 1.869,0 3.379,-1.469 3.379,-3.279 z" id="path13908" inkscape:connector-curvature="0"/>
          <path d="m 1157.99,-45.695 c 0,-0.66 -0.2,-1.279 -0.55,-1.799 -0.6,-0.89 -1.649,-1.479 -2.829,-1.479 -1.869,0 -3.379,1.47 -3.379,3.279 0,1.81 1.51,3.279 3.379,3.279 1.869,0 3.379,-1.47 3.379,-3.28 z" id="path13910" inkscape:connector-curvature="0"/>
          <path d="m 1162.877,-52.063 c -1.669,0 -2.549,1.36 -3.008,2.719 -0.46,1.359 -0.5,2.719 -0.5,2.719 l -0.86,0 c 0,0 -0.159,-5.428 -3.498,-5.438 l 7.866,0 z" id="path13912" inkscape:connector-curvature="0"/>
          <path d="m 1156.62,-41.876 c 1.899,-1.899 1.899,-4.749 1.899,-4.749 l 0.85,-0.01 c 0,0 0,2.909 1.849,4.758" id="path13914" inkscape:connector-curvature="0"/>
          <path d="m 1157,-47.974 c 1.898,1.899 4.748,1.899 4.748,1.899 l 0,0.85 c 0,0 -2.909,0 -4.758,1.849" id="path13916" inkscape:connector-curvature="0"/>
          <path d="m 1160.809,-47.984 c -1.899,1.899 -4.748,1.899 -4.748,1.899 l 0,0.85 c 0,0 2.908,0 4.758,1.849" id="path13918" inkscape:connector-curvature="0"/>
        </g>
      </g>
      <g id="g13920">
        <g id="club_35_">
          <path d="m 1040.882,-209.478 c 0,4.342 3.622,7.869 8.108,7.869 4.486,0 8.109,-3.526 8.109,-7.869 0,-4.343 -3.623,-7.869 -8.109,-7.869 -4.486,0 -8.108,3.527 -8.108,7.869 z" id="path13923" inkscape:connector-curvature="0"/>
          <path d="m 1030.422,-194.579 c 0,4.342 3.622,7.869 8.108,7.869 4.486,0 8.109,-3.527 8.109,-7.869 0,-4.343 -3.623,-7.869 -8.109,-7.869 -4.486,0 -8.108,3.526 -8.108,7.869 z" id="path13925" inkscape:connector-curvature="0"/>
          <path d="m 1051.198,-194.531 c 0,1.583 0.48,3.071 1.32,4.318 1.439,2.135 3.958,3.551 6.789,3.551 4.486,0 8.109,-3.527 8.109,-7.869 0,-4.342 -3.623,-7.869 -8.109,-7.869 -4.486,0 -8.109,3.526 -8.109,7.869 z" id="path13927" inkscape:connector-curvature="0"/>
          <path d="m 1039.466,-179.249 c 4.007,0 6.118,-3.263 7.222,-6.525 1.104,-3.262 1.199,-6.526 1.199,-6.526 l 2.063,0 c 0,0 0.384,13.027 8.396,13.051 l -18.88,0 z" id="path13929" inkscape:connector-curvature="0"/>
          <path d="m 1054.485,-203.696 c -4.559,4.558 -4.559,11.396 -4.559,11.396 l -2.039,0.024 c 0,0 0,-6.981 -4.438,-11.419" id="path13931" inkscape:connector-curvature="0"/>
          <path d="m 1053.573,-189.062 c -4.559,-4.558 -11.396,-4.558 -11.396,-4.558 l 0,-2.039 c 0,0 6.981,0 11.42,-4.438" id="path13933" inkscape:connector-curvature="0"/>
          <path d="m 1044.433,-189.037 c 4.558,-4.559 11.396,-4.559 11.396,-4.559 l 0,-2.039 c 0,0 -6.981,0 -11.42,-4.438" id="path13935" inkscape:connector-curvature="0"/>
        </g>
      </g>
      <g id="g13937">
        <g id="club_36_">
          <path d="m 1040.882,-132.565 c 0,4.342 3.622,7.869 8.108,7.869 4.486,0 8.109,-3.527 8.109,-7.869 0,-4.342 -3.623,-7.869 -8.109,-7.869 -4.486,0 -8.108,3.527 -8.108,7.869 z" id="path13940" inkscape:connector-curvature="0"/>
          <path d="m 1030.422,-117.667 c 0,4.342 3.622,7.869 8.108,7.869 4.486,0 8.109,-3.527 8.109,-7.869 0,-4.342 -3.623,-7.869 -8.109,-7.869 -4.486,0 -8.108,3.527 -8.108,7.869 z" id="path13942" inkscape:connector-curvature="0"/>
          <path d="m 1051.198,-117.619 c 0,1.583 0.48,3.071 1.32,4.318 1.439,2.135 3.958,3.551 6.789,3.551 4.486,0 8.109,-3.527 8.109,-7.869 0,-4.342 -3.623,-7.869 -8.109,-7.869 -4.486,0 -8.109,3.527 -8.109,7.869 z" id="path13944" inkscape:connector-curvature="0"/>
          <path d="m 1039.466,-102.336 c 4.007,0 6.118,-3.263 7.222,-6.525 1.104,-3.262 1.199,-6.525 1.199,-6.525 l 2.063,0 c 0,0 0.384,13.027 8.396,13.051 l -18.88,0 z" id="path13946" inkscape:connector-curvature="0"/>
          <path d="m 1054.485,-126.783 c -4.559,4.559 -4.559,11.396 -4.559,11.396 l -2.039,0.024 c 0,0 0,-6.981 -4.438,-11.42" id="path13948" inkscape:connector-curvature="0"/>
          <path d="m 1053.573,-112.148 c -4.559,-4.559 -11.396,-4.559 -11.396,-4.559 l 0,-2.039 c 0,0 6.981,0 11.42,-4.438" id="path13950" inkscape:connector-curvature="0"/>
          <path d="m 1044.433,-112.125 c 4.558,-4.558 11.396,-4.558 11.396,-4.558 l 0,-2.04 c 0,0 -6.981,0 -11.42,-4.438" id="path13952" inkscape:connector-curvature="0"/>
        </g>
      </g>
      <g id="g13954">
        <g id="club_37_">
          <path d="m 1056.956,-23.707 c 0,-4.342 -3.623,-7.869 -8.109,-7.869 -4.486,0 -8.108,3.527 -8.108,7.869 0,4.342 3.622,7.869 8.108,7.869 4.486,0 8.109,-3.526 8.109,-7.869 z" id="path13957" inkscape:connector-curvature="0"/>
          <path d="m 1067.416,-38.605 c 0,-4.342 -3.623,-7.869 -8.109,-7.869 -4.486,0 -8.108,3.527 -8.108,7.869 0,4.342 3.622,7.869 8.108,7.869 4.486,0 8.109,-3.527 8.109,-7.869 z" id="path13959" inkscape:connector-curvature="0"/>
          <path d="m 1046.64,-38.653 c 0,-1.583 -0.479,-3.071 -1.319,-4.318 -1.439,-2.135 -3.959,-3.551 -6.79,-3.551 -4.486,0 -8.108,3.527 -8.108,7.869 0,4.342 3.622,7.869 8.108,7.869 4.486,0 8.109,-3.527 8.109,-7.869 z" id="path13961" inkscape:connector-curvature="0"/>
          <path d="m 1058.371,-53.935 c -4.007,0 -6.117,3.263 -7.221,6.525 -1.104,3.263 -1.2,6.526 -1.2,6.526 l -2.063,0 c 0,0 -0.384,-13.027 -8.396,-13.051 l 18.88,0 z" id="path13963" inkscape:connector-curvature="0"/>
          <path d="m 1043.353,-29.488 c 4.559,-4.559 4.559,-11.396 4.559,-11.396 l 2.039,-0.024 c 0,0 0,6.981 4.438,11.42" id="path13965" inkscape:connector-curvature="0"/>
          <path d="m 1044.265,-44.123 c 4.558,4.559 11.396,4.559 11.396,4.559 l 0,2.039 c 0,0 -6.981,0 -11.42,4.438" id="path13967" inkscape:connector-curvature="0"/>
          <path d="m 1053.406,-44.147 c -4.559,4.559 -11.396,4.559 -11.396,4.559 l 0,2.039 c 0,0 6.98,0 11.419,4.438" id="path13969" inkscape:connector-curvature="0"/>
        </g>
      </g>
      <g id="g13971">
        <g id="club_38_">
          <path d="m 1120.709,-209.478 c 0,4.342 3.623,7.869 8.109,7.869 4.486,0 8.109,-3.526 8.109,-7.869 0,-4.343 -3.623,-7.869 -8.109,-7.869 -4.486,0 -8.109,3.527 -8.109,7.869 z" id="path13974" inkscape:connector-curvature="0"/>
          <path d="m 1110.249,-194.579 c 0,4.342 3.623,7.869 8.109,7.869 4.486,0 8.108,-3.527 8.108,-7.869 0,-4.343 -3.622,-7.869 -8.108,-7.869 -4.486,0 -8.109,3.526 -8.109,7.869 z" id="path13976" inkscape:connector-curvature="0"/>
          <path d="m 1131.026,-194.531 c 0,1.583 0.48,3.071 1.319,4.318 1.439,2.135 3.959,3.551 6.79,3.551 4.486,0 8.108,-3.527 8.108,-7.869 0,-4.342 -3.622,-7.869 -8.108,-7.869 -4.486,0 -8.109,3.526 -8.109,7.869 z" id="path13978" inkscape:connector-curvature="0"/>
          <path d="m 1119.294,-179.249 c 4.007,0 6.118,-3.263 7.222,-6.525 1.104,-3.262 1.199,-6.526 1.199,-6.526 l 2.063,0 c 0,0 0.384,13.027 8.396,13.051 l -18.88,0 z" id="path13980" inkscape:connector-curvature="0"/>
          <path d="m 1134.313,-203.696 c -4.559,4.558 -4.559,11.396 -4.559,11.396 l -2.039,0.024 c 0,0 0,-6.981 -4.438,-11.419" id="path13982" inkscape:connector-curvature="0"/>
          <path d="m 1133.401,-189.062 c -4.558,-4.558 -11.396,-4.558 -11.396,-4.558 l 0,-2.039 c 0,0 6.981,0 11.42,-4.438" id="path13984" inkscape:connector-curvature="0"/>
          <path d="m 1124.26,-189.037 c 4.559,-4.559 11.396,-4.559 11.396,-4.559 l 0,-2.039 c 0,0 -6.981,0 -11.42,-4.438" id="path13986" inkscape:connector-curvature="0"/>
        </g>
      </g>
      <g id="g13988">
        <g id="club_39_">
          <path d="m 1120.709,-132.565 c 0,4.342 3.623,7.869 8.109,7.869 4.486,0 8.109,-3.527 8.109,-7.869 0,-4.342 -3.623,-7.869 -8.109,-7.869 -4.486,0 -8.109,3.527 -8.109,7.869 z" id="path13991" inkscape:connector-curvature="0"/>
          <path d="m 1110.249,-117.667 c 0,4.342 3.623,7.869 8.109,7.869 4.486,0 8.108,-3.527 8.108,-7.869 0,-4.342 -3.622,-7.869 -8.108,-7.869 -4.486,0 -8.109,3.527 -8.109,7.869 z" id="path13993" inkscape:connector-curvature="0"/>
          <path d="m 1131.026,-117.619 c 0,1.583 0.48,3.071 1.319,4.318 1.439,2.135 3.959,3.551 6.79,3.551 4.486,0 8.108,-3.527 8.108,-7.869 0,-4.342 -3.622,-7.869 -8.108,-7.869 -4.486,0 -8.109,3.527 -8.109,7.869 z" id="path13995" inkscape:connector-curvature="0"/>
          <path d="m 1119.294,-102.336 c 4.007,0 6.118,-3.263 7.222,-6.525 1.104,-3.262 1.199,-6.525 1.199,-6.525 l 2.063,0 c 0,0 0.384,13.027 8.396,13.051 l -18.88,0 z" id="path13997" inkscape:connector-curvature="0"/>
          <path d="m 1134.313,-126.783 c -4.559,4.559 -4.559,11.396 -4.559,11.396 l -2.039,0.024 c 0,0 0,-6.981 -4.438,-11.42" id="path13999" inkscape:connector-curvature="0"/>
          <path d="m 1133.401,-112.148 c -4.558,-4.559 -11.396,-4.559 -11.396,-4.559 l 0,-2.039 c 0,0 6.981,0 11.42,-4.438" id="path14001" inkscape:connector-curvature="0"/>
          <path d="m 1124.26,-112.125 c 4.559,-4.558 11.396,-4.558 11.396,-4.558 l 0,-2.04 c 0,0 -6.981,0 -11.42,-4.438" id="path14003" inkscape:connector-curvature="0"/>
        </g>
      </g>
      <g id="g14005">
        <g id="club_40_">
          <path d="m 1136.783,-23.707 c 0,-4.342 -3.622,-7.869 -8.108,-7.869 -4.486,0 -8.109,3.527 -8.109,7.869 0,4.342 3.623,7.869 8.109,7.869 4.486,0 8.108,-3.526 8.108,-7.869 z" id="path14008" inkscape:connector-curvature="0"/>
          <path d="m 1147.244,-38.605 c 0,-4.342 -3.623,-7.869 -8.109,-7.869 -4.486,0 -8.109,3.527 -8.109,7.869 0,4.342 3.623,7.869 8.109,7.869 4.486,0 8.109,-3.527 8.109,-7.869 z" id="path14010" inkscape:connector-curvature="0"/>
          <path d="m 1126.468,-38.653 c 0,-1.583 -0.48,-3.071 -1.319,-4.318 -1.439,-2.135 -3.959,-3.551 -6.79,-3.551 -4.486,0 -8.108,3.527 -8.108,7.869 0,4.342 3.622,7.869 8.108,7.869 4.486,0 8.109,-3.527 8.109,-7.869 z" id="path14012" inkscape:connector-curvature="0"/>
          <path d="m 1138.199,-53.935 c -4.007,0 -6.118,3.263 -7.222,6.525 -1.104,3.262 -1.199,6.526 -1.199,6.526 l -2.063,0 c 0,0 -0.384,-13.027 -8.396,-13.051 l 18.88,0 z" id="path14014" inkscape:connector-curvature="0"/>
          <path d="m 1123.181,-29.488 c 4.559,-4.559 4.559,-11.396 4.559,-11.396 l 2.039,-0.024 c 0,0 0,6.981 4.438,11.42" id="path14016" inkscape:connector-curvature="0"/>
          <path d="m 1124.092,-44.123 c 4.559,4.559 11.396,4.559 11.396,4.559 l 0,2.039 c 0,0 -6.981,0 -11.42,4.438" id="path14018" inkscape:connector-curvature="0"/>
          <path d="m 1133.233,-44.147 c -4.558,4.559 -11.396,4.559 -11.396,4.559 l 0,2.039 c 0,0 6.981,0 11.42,4.438" id="path14020" inkscape:connector-curvature="0"/>
        </g>
      </g>
      <g id="g14022">
        <g id="club_41_">
          <path d="m 1080.796,-155.342 c 0,4.343 3.622,7.869 8.108,7.869 4.486,0 8.109,-3.526 8.109,-7.869 0,-4.342 -3.623,-7.869 -8.109,-7.869 -4.486,0 -8.108,3.527 -8.108,7.869 z" id="path14025" inkscape:connector-curvature="0"/>
          <path d="m 1070.336,-140.443 c 0,4.343 3.622,7.869 8.108,7.869 4.486,0 8.109,-3.526 8.109,-7.869 0,-4.342 -3.623,-7.869 -8.109,-7.869 -4.486,0 -8.108,3.526 -8.108,7.869 z" id="path14027" inkscape:connector-curvature="0"/>
          <path d="m 1091.112,-140.395 c 0,1.583 0.48,3.071 1.32,4.318 1.439,2.135 3.958,3.55 6.789,3.55 4.486,0 8.109,-3.526 8.109,-7.869 0,-4.343 -3.623,-7.869 -8.109,-7.869 -4.486,0 -8.109,3.527 -8.109,7.87 z" id="path14029" inkscape:connector-curvature="0"/>
          <path d="m 1079.38,-125.113 c 4.007,0 6.118,-3.263 7.222,-6.526 1.104,-3.263 1.199,-6.525 1.199,-6.525 l 2.063,0 c 0,0 0.384,13.027 8.396,13.051 l -18.88,0 z" id="path14031" inkscape:connector-curvature="0"/>
          <path d="m 1094.399,-149.56 c -4.559,4.558 -4.559,11.396 -4.559,11.396 l -2.039,0.024 c 0,0 0,-6.981 -4.438,-11.419" id="path14033" inkscape:connector-curvature="0"/>
          <path d="m 1093.487,-134.925 c -4.558,-4.558 -11.396,-4.558 -11.396,-4.558 l 0,-2.04 c 0,0 6.981,0 11.42,-4.438" id="path14035" inkscape:connector-curvature="0"/>
          <path d="m 1084.346,-134.901 c 4.559,-4.558 11.396,-4.558 11.396,-4.558 l 0,-2.04 c 0,0 -6.981,0 -11.42,-4.438" id="path14037" inkscape:connector-curvature="0"/>
        </g>
      </g>
    </g> </svg>