<svg xmlns:dc="http://purl.org/dc/elements/1.1/" xmlns:cc="http://creativecommons.org/ns#" xmlns:rdf="http://www.w3.org/1999/02/22-rdf-syntax-ns#" xmlns:svg="http://www.w3.org/2000/svg" xmlns="http://www.w3.org/2000/svg" xmlns:sodipodi="http://sodipodi.sourceforge.net/DTD/sodipodi-0.dtd" xmlns:inkscape="http://www.inkscape.org/namespaces/inkscape" version="1.1" height="1216.19" width="2178.18" viewBox="-.2 -236 2178.99 1216.19" id="deck" ><g xmlns="http://www.w3.org/2000/svg" id="_x38__x5F_club" class="card">
      <g id="g14040">
        <g id="base_7_">
          <path d="m 1172.584,0.138 c 0,3.779 3.089,6.868 6.867,6.868 l 152.788,0 c 3.769,0 6.857,-3.089 6.857,-6.868 l 0,-228.315 c 0,-3.779 -3.089,-6.867 -6.857,-6.867 l -152.788,0 c -3.778,0 -6.867,3.088 -6.867,6.867 l 0,228.315 z" id="path14043" inkscape:connector-curvature="0" style="fill:#ffffff;stroke:#000000;stroke-width:2.5"/>
        </g>
      </g>
      <g id="g14045">
        <g id="n_8">
          <text transform="matrix(0.5339,0,0,1,1178.5471,-198.793)" font-size="40" id="text14048" style="font-size:40px;font-family:CopperplateGothic-Bold">8</text>
        </g>
      </g>
      <g id="g14050">
        <g id="n_8_1_">
          <text transform="matrix(-0.5339,0,0,-1,1334.2903,-30.0181)" font-size="40" id="text14053" style="font-size:40px;font-family:CopperplateGothic-Bold">8</text>
        </g>
      </g>
      <g id="g14055">
        <g id="club_42_">
          <path d="m 1182.88,-189.568 c 0,1.81 1.51,3.279 3.379,3.279 1.869,0 3.379,-1.469 3.379,-3.279 0,-1.809 -1.51,-3.278 -3.379,-3.278 -1.869,0 -3.379,1.469 -3.379,3.278 z" id="path14058" inkscape:connector-curvature="0"/>
          <path d="m 1178.522,-183.36 c 0,1.809 1.51,3.279 3.379,3.279 1.869,0 3.379,-1.47 3.379,-3.279 0,-1.81 -1.51,-3.279 -3.379,-3.279 -1.869,0 -3.379,1.469 -3.379,3.279 z" id="path14060" inkscape:connector-curvature="0"/>
          <path d="m 1187.179,-183.34 c 0,0.66 0.2,1.279 0.55,1.799 0.6,0.89 1.649,1.479 2.829,1.479 1.869,0 3.378,-1.47 3.378,-3.279 0,-1.81 -1.509,-3.279 -3.378,-3.279 -1.87,0.001 -3.379,1.47 -3.379,3.28 z" id="path14062" inkscape:connector-curvature="0"/>
          <path d="m 1182.29,-176.973 c 1.67,0 2.55,-1.359 3.009,-2.719 0.46,-1.359 0.5,-2.719 0.5,-2.719 l 0.859,0 c 0,0 0.16,5.428 3.499,5.438 l -7.867,0 z" id="path14064" inkscape:connector-curvature="0"/>
          <path d="m 1188.548,-187.159 c -1.899,1.899 -1.899,4.749 -1.899,4.749 l -0.85,0.01 c 0,0 0,-2.909 -1.85,-4.758" id="path14066" inkscape:connector-curvature="0"/>
          <path d="m 1188.168,-181.062 c -1.899,-1.899 -4.748,-1.899 -4.748,-1.899 l 0,-0.85 c 0,0 2.909,0 4.758,-1.85" id="path14068" inkscape:connector-curvature="0"/>
          <path d="m 1184.36,-181.051 c 1.899,-1.899 4.748,-1.899 4.748,-1.899 l 0,-0.85 c 0,0 -2.908,0 -4.758,-1.849" id="path14070" inkscape:connector-curvature="0"/>
        </g>
      </g>
      <g id="g14072">
        <g id="club_43_">
          <path d="m 1329.806,-39.467 c 0,-1.81 -1.51,-3.279 -3.379,-3.279 -1.869,0 -3.379,1.469 -3.379,3.279 0,1.809 1.51,3.279 3.379,3.279 1.869,0 3.379,-1.47 3.379,-3.279 z" id="path14075" inkscape:connector-curvature="0"/>
          <path d="m 1334.164,-45.675 c 0,-1.809 -1.51,-3.279 -3.379,-3.279 -1.869,0 -3.379,1.47 -3.379,3.279 0,1.81 1.51,3.279 3.379,3.279 1.869,0 3.379,-1.469 3.379,-3.279 z" id="path14077" inkscape:connector-curvature="0"/>
          <path d="m 1325.507,-45.695 c 0,-0.66 -0.2,-1.279 -0.55,-1.799 -0.6,-0.89 -1.649,-1.479 -2.829,-1.479 -1.869,0 -3.379,1.47 -3.379,3.279 0,1.81 1.51,3.279 3.379,3.279 1.869,0 3.379,-1.47 3.379,-3.28 z" id="path14079" inkscape:connector-curvature="0"/>
          <path d="m 1330.395,-52.063 c -1.669,0 -2.549,1.36 -3.008,2.719 -0.46,1.359 -0.5,2.719 -0.5,2.719 l -0.86,0 c 0,0 -0.159,-5.428 -3.498,-5.438 l 7.866,0 z" id="path14081" inkscape:connector-curvature="0"/>
          <path d="m 1324.138,-41.876 c 1.899,-1.899 1.899,-4.749 1.899,-4.749 l 0.85,-0.01 c 0,0 0,2.909 1.849,4.758" id="path14083" inkscape:connector-curvature="0"/>
          <path d="m 1324.518,-47.974 c 1.898,1.899 4.748,1.899 4.748,1.899 l 0,0.85 c 0,0 -2.909,0 -4.758,1.849" id="path14085" inkscape:connector-curvature="0"/>
          <path d="m 1328.326,-47.984 c -1.899,1.899 -4.748,1.899 -4.748,1.899 l 0,0.85 c 0,0 2.908,0 4.758,1.849" id="path14087" inkscape:connector-curvature="0"/>
        </g>
      </g>
      <g id="g14089">
        <g id="club_44_">
          <path d="m 1208.395,-209.478 c 0,4.342 3.623,7.869 8.109,7.869 4.486,0 8.108,-3.526 8.108,-7.869 0,-4.343 -3.622,-7.869 -8.108,-7.869 -4.486,0 -8.109,3.527 -8.109,7.869 z" id="path14092" inkscape:connector-curvature="0"/>
          <path d="m 1197.935,-194.579 c 0,4.342 3.622,7.869 8.108,7.869 4.486,0 8.109,-3.527 8.109,-7.869 0,-4.343 -3.623,-7.869 -8.109,-7.869 -4.486,0 -8.108,3.526 -8.108,7.869 z" id="path14094" inkscape:connector-curvature="0"/>
          <path d="m 1218.711,-194.531 c 0,1.583 0.479,3.071 1.319,4.318 1.439,2.135 3.959,3.551 6.79,3.551 4.486,0 8.108,-3.527 8.108,-7.869 0,-4.342 -3.622,-7.869 -8.108,-7.869 -4.486,0 -8.109,3.526 -8.109,7.869 z" id="path14096" inkscape:connector-curvature="0"/>
          <path d="m 1206.98,-179.249 c 4.006,0 6.117,-3.263 7.221,-6.525 1.104,-3.262 1.2,-6.526 1.2,-6.526 l 2.063,0 c 0,0 0.385,13.027 8.397,13.051 l -18.881,0 z" id="path14098" inkscape:connector-curvature="0"/>
          <path d="m 1221.998,-203.696 c -4.559,4.558 -4.559,11.396 -4.559,11.396 l -2.039,0.024 c 0,0 0,-6.981 -4.438,-11.419" id="path14100" inkscape:connector-curvature="0"/>
          <path d="m 1221.086,-189.062 c -4.559,-4.558 -11.396,-4.558 -11.396,-4.558 l 0,-2.039 c 0,0 6.981,0 11.419,-4.438" id="path14102" inkscape:connector-curvature="0"/>
          <path d="m 1211.946,-189.037 c 4.559,-4.559 11.396,-4.559 11.396,-4.559 l 0,-2.039 c 0,0 -6.981,0 -11.42,-4.438" id="path14104" inkscape:connector-curvature="0"/>
        </g>
      </g>
      <g id="g14106">
        <g id="club_45_">
          <path d="m 1208.395,-155.342 c 0,4.343 3.623,7.869 8.109,7.869 4.486,0 8.108,-3.526 8.108,-7.869 0,-4.342 -3.622,-7.869 -8.108,-7.869 -4.486,0 -8.109,3.527 -8.109,7.869 z" id="path14109" inkscape:connector-curvature="0"/>
          <path d="m 1197.935,-140.443 c 0,4.343 3.622,7.869 8.108,7.869 4.486,0 8.109,-3.526 8.109,-7.869 0,-4.342 -3.623,-7.869 -8.109,-7.869 -4.486,0 -8.108,3.526 -8.108,7.869 z" id="path14111" inkscape:connector-curvature="0"/>
          <path d="m 1218.711,-140.395 c 0,1.583 0.479,3.071 1.319,4.318 1.439,2.135 3.959,3.55 6.79,3.55 4.486,0 8.108,-3.526 8.108,-7.869 0,-4.343 -3.622,-7.869 -8.108,-7.869 -4.486,0 -8.109,3.527 -8.109,7.87 z" id="path14113" inkscape:connector-curvature="0"/>
          <path d="m 1206.98,-125.113 c 4.006,0 6.117,-3.263 7.221,-6.526 1.104,-3.263 1.2,-6.525 1.2,-6.525 l 2.063,0 c 0,0 0.385,13.027 8.397,13.051 l -18.881,0 z" id="path14115" inkscape:connector-curvature="0"/>
          <path d="m 1221.998,-149.56 c -4.559,4.558 -4.559,11.396 -4.559,11.396 l -2.039,0.024 c 0,0 0,-6.981 -4.438,-11.419" id="path14117" inkscape:connector-curvature="0"/>
          <path d="m 1221.086,-134.925 c -4.559,-4.558 -11.396,-4.558 -11.396,-4.558 l 0,-2.04 c 0,0 6.981,0 11.419,-4.438" id="path14119" inkscape:connector-curvature="0"/>
          <path d="m 1211.946,-134.901 c 4.559,-4.558 11.396,-4.558 11.396,-4.558 l 0,-2.04 c 0,0 -6.981,0 -11.42,-4.438" id="path14121" inkscape:connector-curvature="0"/>
        </g>
      </g>
      <g id="g14123">
        <g id="club_46_">
          <path d="m 1224.469,-77.843 c 0,-4.342 -3.623,-7.869 -8.109,-7.869 -4.486,0 -8.108,3.526 -8.108,7.869 0,4.343 3.622,7.869 8.108,7.869 4.486,0 8.109,-3.526 8.109,-7.869 z" id="path14126" inkscape:connector-curvature="0"/>
          <path d="m 1234.929,-92.741 c 0,-4.342 -3.622,-7.869 -8.108,-7.869 -4.486,0 -8.109,3.527 -8.109,7.869 0,4.343 3.623,7.869 8.109,7.869 4.486,0 8.108,-3.526 8.108,-7.869 z" id="path14128" inkscape:connector-curvature="0"/>
          <path d="m 1214.153,-92.789 c 0,-1.583 -0.479,-3.071 -1.319,-4.318 -1.439,-2.135 -3.959,-3.551 -6.79,-3.551 -4.486,0 -8.108,3.527 -8.108,7.869 0,4.342 3.622,7.869 8.108,7.869 4.486,0 8.109,-3.527 8.109,-7.869 z" id="path14130" inkscape:connector-curvature="0"/>
          <path d="m 1225.884,-108.071 c -4.006,0 -6.117,3.263 -7.221,6.525 -1.104,3.262 -1.2,6.526 -1.2,6.526 l -2.063,0 c 0,0 -0.385,-13.027 -8.397,-13.051 l 18.881,0 z" id="path14132" inkscape:connector-curvature="0"/>
          <path d="m 1210.865,-83.625 c 4.559,-4.558 4.559,-11.396 4.559,-11.396 l 2.039,-0.024 c 0,0 0,6.981 4.438,11.419" id="path14134" inkscape:connector-curvature="0"/>
          <path d="m 1211.778,-98.259 c 4.559,4.558 11.396,4.558 11.396,4.558 l 0,2.039 c 0,0 -6.981,0 -11.419,4.438" id="path14136" inkscape:connector-curvature="0"/>
          <path d="m 1220.918,-98.283 c -4.559,4.559 -11.396,4.559 -11.396,4.559 l 0,2.039 c 0,0 6.981,0 11.42,4.438" id="path14138" inkscape:connector-curvature="0"/>
        </g>
      </g>
      <g id="g14140">
        <g id="club_47_">
          <path d="m 1224.469,-23.707 c 0,-4.342 -3.623,-7.869 -8.109,-7.869 -4.486,0 -8.108,3.527 -8.108,7.869 0,4.342 3.622,7.869 8.108,7.869 4.486,0 8.109,-3.526 8.109,-7.869 z" id="path14143" inkscape:connector-curvature="0"/>
          <path d="m 1234.929,-38.605 c 0,-4.342 -3.622,-7.869 -8.108,-7.869 -4.486,0 -8.109,3.527 -8.109,7.869 0,4.342 3.623,7.869 8.109,7.869 4.486,0 8.108,-3.527 8.108,-7.869 z" id="path14145" inkscape:connector-curvature="0"/>
          <path d="m 1214.153,-38.653 c 0,-1.583 -0.479,-3.071 -1.319,-4.318 -1.439,-2.135 -3.959,-3.551 -6.79,-3.551 -4.486,0 -8.108,3.527 -8.108,7.869 0,4.342 3.622,7.869 8.108,7.869 4.486,0 8.109,-3.527 8.109,-7.869 z" id="path14147" inkscape:connector-curvature="0"/>
          <path d="m 1225.884,-53.935 c -4.006,0 -6.117,3.263 -7.221,6.525 -1.104,3.262 -1.2,6.526 -1.2,6.526 l -2.063,0 c 0,0 -0.385,-13.027 -8.397,-13.051 l 18.881,0 z" id="path14149" inkscape:connector-curvature="0"/>
          <path d="m 1210.865,-29.488 c 4.559,-4.559 4.559,-11.396 4.559,-11.396 l 2.039,-0.024 c 0,0 0,6.981 4.438,11.42" id="path14151" inkscape:connector-curvature="0"/>
          <path d="m 1211.778,-44.123 c 4.559,4.559 11.396,4.559 11.396,4.559 l 0,2.039 c 0,0 -6.981,0 -11.419,4.438" id="path14153" inkscape:connector-curvature="0"/>
          <path d="m 1220.918,-44.147 c -4.559,4.559 -11.396,4.559 -11.396,4.559 l 0,2.039 c 0,0 6.981,0 11.42,4.438" id="path14155" inkscape:connector-curvature="0"/>
        </g>
      </g>
      <g id="g14157">
        <g id="club_48_">
          <path d="m 1288.223,-209.478 c 0,4.342 3.623,7.869 8.109,7.869 4.486,0 8.108,-3.526 8.108,-7.869 0,-4.343 -3.622,-7.869 -8.108,-7.869 -4.486,0 -8.109,3.527 -8.109,7.869 z" id="path14160" inkscape:connector-curvature="0"/>
          <path d="m 1277.763,-194.579 c 0,4.342 3.622,7.869 8.108,7.869 4.486,0 8.109,-3.527 8.109,-7.869 0,-4.343 -3.623,-7.869 -8.109,-7.869 -4.486,0 -8.108,3.526 -8.108,7.869 z" id="path14162" inkscape:connector-curvature="0"/>
          <path d="m 1298.539,-194.531 c 0,1.583 0.479,3.071 1.319,4.318 1.439,2.135 3.958,3.551 6.789,3.551 4.486,0 8.109,-3.527 8.109,-7.869 0,-4.342 -3.623,-7.869 -8.109,-7.869 -4.486,0 -8.108,3.526 -8.108,7.869 z" id="path14164" inkscape:connector-curvature="0"/>
          <path d="m 1286.807,-179.249 c 4.007,0 6.118,-3.263 7.222,-6.525 1.104,-3.262 1.2,-6.526 1.2,-6.526 l 2.063,0 c 0,0 0.384,13.027 8.397,13.051 l -18.882,0 z" id="path14166" inkscape:connector-curvature="0"/>
          <path d="m 1301.825,-203.696 c -4.558,4.558 -4.558,11.396 -4.558,11.396 l -2.039,0.024 c 0,0 0,-6.981 -4.438,-11.419" id="path14168" inkscape:connector-curvature="0"/>
          <path d="m 1300.914,-189.062 c -4.559,-4.558 -11.396,-4.558 -11.396,-4.558 l 0,-2.039 c 0,0 6.981,0 11.419,-4.438" id="path14170" inkscape:connector-curvature="0"/>
          <path d="m 1291.774,-189.037 c 4.559,-4.559 11.396,-4.559 11.396,-4.559 l 0,-2.039 c 0,0 -6.981,0 -11.42,-4.438" id="path14172" inkscape:connector-curvature="0"/>
        </g>
      </g>
      <g id="g14174">
        <g id="club_49_">
          <path d="m 1288.223,-155.342 c 0,4.343 3.623,7.869 8.109,7.869 4.486,0 8.108,-3.526 8.108,-7.869 0,-4.342 -3.622,-7.869 -8.108,-7.869 -4.486,0 -8.109,3.527 -8.109,7.869 z" id="path14177" inkscape:connector-curvature="0"/>
          <path d="m 1277.763,-140.443 c 0,4.343 3.622,7.869 8.108,7.869 4.486,0 8.109,-3.526 8.109,-7.869 0,-4.342 -3.623,-7.869 -8.109,-7.869 -4.486,0 -8.108,3.526 -8.108,7.869 z" id="path14179" inkscape:connector-curvature="0"/>
          <path d="m 1298.539,-140.395 c 0,1.583 0.479,3.071 1.319,4.318 1.439,2.135 3.958,3.55 6.789,3.55 4.486,0 8.109,-3.526 8.109,-7.869 0,-4.343 -3.623,-7.869 -8.109,-7.869 -4.486,0 -8.108,3.527 -8.108,7.87 z" id="path14181" inkscape:connector-curvature="0"/>
          <path d="m 1286.807,-125.113 c 4.007,0 6.118,-3.263 7.222,-6.526 1.104,-3.263 1.2,-6.525 1.2,-6.525 l 2.063,0 c 0,0 0.384,13.027 8.397,13.051 l -18.882,0 z" id="path14183" inkscape:connector-curvature="0"/>
          <path d="m 1301.825,-149.56 c -4.558,4.558 -4.558,11.396 -4.558,11.396 l -2.039,0.024 c 0,0 0,-6.981 -4.438,-11.419" id="path14185" inkscape:connector-curvature="0"/>
          <path d="m 1300.914,-134.925 c -4.559,-4.558 -11.396,-4.558 -11.396,-4.558 l 0,-2.04 c 0,0 6.981,0 11.419,-4.438" id="path14187" inkscape:connector-curvature="0"/>
          <path d="m 1291.774,-134.901 c 4.559,-4.558 11.396,-4.558 11.396,-4.558 l 0,-2.04 c 0,0 -6.981,0 -11.42,-4.438" id="path14189" inkscape:connector-curvature="0"/>
        </g>
      </g>
      <g id="g14191">
        <g id="club_50_">
          <path d="m 1304.297,-77.843 c 0,-4.342 -3.623,-7.869 -8.109,-7.869 -4.486,0 -8.109,3.526 -8.109,7.869 0,4.343 3.623,7.869 8.109,7.869 4.486,0 8.109,-3.526 8.109,-7.869 z" id="path14194" inkscape:connector-curvature="0"/>
          <path d="m 1314.757,-92.741 c 0,-4.342 -3.623,-7.869 -8.109,-7.869 -4.486,0 -8.108,3.527 -8.108,7.869 0,4.343 3.622,7.869 8.108,7.869 4.486,0 8.109,-3.526 8.109,-7.869 z" id="path14196" inkscape:connector-curvature="0"/>
          <path d="m 1293.981,-92.789 c 0,-1.583 -0.48,-3.071 -1.319,-4.318 -1.439,-2.135 -3.959,-3.551 -6.79,-3.551 -4.486,0 -8.108,3.527 -8.108,7.869 0,4.342 3.622,7.869 8.108,7.869 4.486,0 8.109,-3.527 8.109,-7.869 z" id="path14198" inkscape:connector-curvature="0"/>
          <path d="m 1305.712,-108.071 c -4.007,0 -6.118,3.263 -7.222,6.525 -1.104,3.262 -1.199,6.526 -1.199,6.526 l -2.063,0 c 0,0 -0.384,-13.027 -8.396,-13.051 l 18.88,0 z" id="path14200" inkscape:connector-curvature="0"/>
          <path d="m 1290.694,-83.625 c 4.559,-4.558 4.559,-11.396 4.559,-11.396 l 2.039,-0.024 c 0,0 0,6.981 4.438,11.419" id="path14202" inkscape:connector-curvature="0"/>
          <path d="m 1291.606,-98.259 c 4.559,4.558 11.396,4.558 11.396,4.558 l 0,2.039 c 0,0 -6.981,0 -11.42,4.438" id="path14204" inkscape:connector-curvature="0"/>
          <path d="m 1300.746,-98.283 c -4.559,4.559 -11.396,4.559 -11.396,4.559 l 0,2.039 c 0,0 6.982,0 11.42,4.438" id="path14206" inkscape:connector-curvature="0"/>
        </g>
      </g>
      <g id="g14208">
        <g id="club_51_">
          <path d="m 1304.297,-23.707 c 0,-4.342 -3.623,-7.869 -8.109,-7.869 -4.486,0 -8.109,3.527 -8.109,7.869 0,4.342 3.623,7.869 8.109,7.869 4.486,0 8.109,-3.526 8.109,-7.869 z" id="path14211" inkscape:connector-curvature="0"/>
          <path d="m 1314.757,-38.605 c 0,-4.342 -3.623,-7.869 -8.109,-7.869 -4.486,0 -8.108,3.527 -8.108,7.869 0,4.342 3.622,7.869 8.108,7.869 4.486,0 8.109,-3.527 8.109,-7.869 z" id="path14213" inkscape:connector-curvature="0"/>
          <path d="m 1293.981,-38.653 c 0,-1.583 -0.48,-3.071 -1.319,-4.318 -1.439,-2.135 -3.959,-3.551 -6.79,-3.551 -4.486,0 -8.108,3.527 -8.108,7.869 0,4.342 3.622,7.869 8.108,7.869 4.486,0 8.109,-3.527 8.109,-7.869 z" id="path14215" inkscape:connector-curvature="0"/>
          <path d="m 1305.712,-53.935 c -4.007,0 -6.118,3.263 -7.222,6.525 -1.104,3.262 -1.199,6.526 -1.199,6.526 l -2.063,0 c 0,0 -0.384,-13.027 -8.396,-13.051 l 18.88,0 z" id="path14217" inkscape:connector-curvature="0"/>
          <path d="m 1290.694,-29.488 c 4.559,-4.559 4.559,-11.396 4.559,-11.396 l 2.039,-0.024 c 0,0 0,6.981 4.438,11.42" id="path14219" inkscape:connector-curvature="0"/>
          <path d="m 1291.606,-44.123 c 4.559,4.559 11.396,4.559 11.396,4.559 l 0,2.039 c 0,0 -6.981,0 -11.42,4.438" id="path14221" inkscape:connector-curvature="0"/>
          <path d="m 1300.746,-44.147 c -4.559,4.559 -11.396,4.559 -11.396,4.559 l 0,2.039 c 0,0 6.982,0 11.42,4.438" id="path14223" inkscape:connector-curvature="0"/>
        </g>
      </g>
    </g> </svg>