<svg xmlns:dc="http://purl.org/dc/elements/1.1/" xmlns:cc="http://creativecommons.org/ns#" xmlns:rdf="http://www.w3.org/1999/02/22-rdf-syntax-ns#" xmlns:svg="http://www.w3.org/2000/svg" xmlns="http://www.w3.org/2000/svg" xmlns:sodipodi="http://sodipodi.sourceforge.net/DTD/sodipodi-0.dtd" xmlns:inkscape="http://www.inkscape.org/namespaces/inkscape" version="1.1" height="1216.19" width="2178.18" viewBox="-.2 -236 2178.99 1216.19" id="deck" ><g xmlns="http://www.w3.org/2000/svg" id="_x39__x5F_club" class="card">
      <g id="g14226">
        <g id="base_8_">
          <path d="m 1340.102,0.138 c 0,3.779 3.089,6.868 6.867,6.868 l 152.788,0 c 3.769,0 6.857,-3.089 6.857,-6.868 l 0,-228.315 c 0,-3.779 -3.089,-6.867 -6.857,-6.867 l -152.788,0 c -3.778,0 -6.867,3.088 -6.867,6.867 l 0,228.315 z" id="path14229" inkscape:connector-curvature="0" style="fill:#ffffff;stroke:#000000;stroke-width:2.5"/>
        </g>
      </g>
      <g id="g14231">
        <g id="n_9">
          <text transform="matrix(0.5339,0,0,1,1346.0647,-198.793)" font-size="40" id="text14234" style="font-size:40px;font-family:CopperplateGothic-Bold">9</text>
        </g>
      </g>
      <g id="g14236">
        <g id="n_9_1_">
          <text transform="matrix(-0.5339,0,0,-1,1501.7981,-30.0181)" font-size="40" id="text14239" style="font-size:40px;font-family:CopperplateGothic-Bold">9</text>
        </g>
      </g>
      <g id="g14241">
        <g id="club_52_">
          <path d="m 1350.398,-189.568 c 0,1.81 1.51,3.279 3.379,3.279 1.869,0 3.379,-1.469 3.379,-3.279 0,-1.809 -1.51,-3.278 -3.379,-3.278 -1.869,0 -3.379,1.469 -3.379,3.278 z" id="path14244" inkscape:connector-curvature="0"/>
          <path d="m 1346.039,-183.36 c 0,1.809 1.51,3.279 3.379,3.279 1.869,0 3.379,-1.47 3.379,-3.279 0,-1.81 -1.51,-3.279 -3.379,-3.279 -1.869,0 -3.379,1.469 -3.379,3.279 z" id="path14246" inkscape:connector-curvature="0"/>
          <path d="m 1354.697,-183.34 c 0,0.66 0.199,1.279 0.55,1.799 0.6,0.89 1.649,1.479 2.828,1.479 1.87,0 3.379,-1.47 3.379,-3.279 0,-1.81 -1.509,-3.279 -3.379,-3.279 -1.87,0.001 -3.378,1.47 -3.378,3.28 z" id="path14248" inkscape:connector-curvature="0"/>
          <path d="m 1349.808,-176.973 c 1.67,0 2.549,-1.359 3.009,-2.719 0.46,-1.359 0.5,-2.719 0.5,-2.719 l 0.859,0 c 0,0 0.16,5.428 3.499,5.438 l -7.867,0 z" id="path14250" inkscape:connector-curvature="0"/>
          <path d="m 1356.066,-187.159 c -1.899,1.899 -1.899,4.749 -1.899,4.749 l -0.85,0.01 c 0,0 0,-2.909 -1.85,-4.758" id="path14252" inkscape:connector-curvature="0"/>
          <path d="m 1355.686,-181.062 c -1.899,-1.899 -4.748,-1.899 -4.748,-1.899 l 0,-0.85 c 0,0 2.909,0 4.758,-1.85" id="path14254" inkscape:connector-curvature="0"/>
          <path d="m 1351.877,-181.051 c 1.899,-1.899 4.748,-1.899 4.748,-1.899 l 0,-0.85 c 0,0 -2.908,0 -4.758,-1.849" id="path14256" inkscape:connector-curvature="0"/>
        </g>
      </g>
      <g id="g14258">
        <g id="club_53_">
          <path d="m 1497.314,-39.467 c 0,-1.81 -1.51,-3.279 -3.379,-3.279 -1.869,0 -3.379,1.469 -3.379,3.279 0,1.809 1.51,3.279 3.379,3.279 1.869,0 3.379,-1.47 3.379,-3.279 z" id="path14261" inkscape:connector-curvature="0"/>
          <path d="m 1501.672,-45.675 c 0,-1.809 -1.51,-3.279 -3.379,-3.279 -1.869,0 -3.379,1.47 -3.379,3.279 0,1.81 1.51,3.279 3.379,3.279 1.869,0 3.379,-1.469 3.379,-3.279 z" id="path14263" inkscape:connector-curvature="0"/>
          <path d="m 1493.015,-45.695 c 0,-0.66 -0.2,-1.279 -0.55,-1.799 -0.6,-0.89 -1.649,-1.479 -2.829,-1.479 -1.869,0 -3.379,1.47 -3.379,3.279 0,1.81 1.51,3.279 3.379,3.279 1.869,0 3.379,-1.47 3.379,-3.28 z" id="path14265" inkscape:connector-curvature="0"/>
          <path d="m 1497.903,-52.063 c -1.669,0 -2.549,1.36 -3.008,2.719 -0.46,1.359 -0.5,2.719 -0.5,2.719 l -0.86,0 c 0,0 -0.159,-5.428 -3.498,-5.438 l 7.866,0 z" id="path14267" inkscape:connector-curvature="0"/>
          <path d="m 1491.646,-41.876 c 1.899,-1.899 1.899,-4.749 1.899,-4.749 l 0.85,-0.01 c 0,0 0,2.909 1.849,4.758" id="path14269" inkscape:connector-curvature="0"/>
          <path d="m 1492.026,-47.974 c 1.898,1.899 4.748,1.899 4.748,1.899 l 0,0.85 c 0,0 -2.909,0 -4.758,1.849" id="path14271" inkscape:connector-curvature="0"/>
          <path d="m 1495.834,-47.984 c -1.899,1.899 -4.748,1.899 -4.748,1.899 l 0,0.85 c 0,0 2.908,0 4.758,1.849" id="path14273" inkscape:connector-curvature="0"/>
        </g>
      </g>
      <g id="g14275">
        <g id="club_54_">
          <path d="m 1375.907,-209.478 c 0,4.342 3.623,7.869 8.109,7.869 4.486,0 8.108,-3.526 8.108,-7.869 0,-4.343 -3.622,-7.869 -8.108,-7.869 -4.486,0 -8.109,3.527 -8.109,7.869 z" id="path14278" inkscape:connector-curvature="0"/>
          <path d="m 1365.448,-194.579 c 0,4.342 3.623,7.869 8.109,7.869 4.486,0 8.108,-3.527 8.108,-7.869 0,-4.343 -3.622,-7.869 -8.108,-7.869 -4.486,0 -8.109,3.526 -8.109,7.869 z" id="path14280" inkscape:connector-curvature="0"/>
          <path d="m 1386.224,-194.531 c 0,1.583 0.479,3.071 1.319,4.318 1.439,2.135 3.959,3.551 6.789,3.551 4.486,0 8.109,-3.527 8.109,-7.869 0,-4.342 -3.623,-7.869 -8.109,-7.869 -4.486,0 -8.108,3.526 -8.108,7.869 z" id="path14282" inkscape:connector-curvature="0"/>
          <path d="m 1374.492,-179.249 c 4.006,0 6.117,-3.263 7.221,-6.525 1.104,-3.262 1.2,-6.526 1.2,-6.526 l 2.063,0 c 0,0 0.384,13.027 8.397,13.051 l -18.881,0 z" id="path14284" inkscape:connector-curvature="0"/>
          <path d="m 1389.51,-203.696 c -4.558,4.558 -4.558,11.396 -4.558,11.396 l -2.039,0.024 c 0,0 0,-6.981 -4.438,-11.419" id="path14286" inkscape:connector-curvature="0"/>
          <path d="m 1388.599,-189.062 c -4.559,-4.558 -11.396,-4.558 -11.396,-4.558 l 0,-2.039 c 0,0 6.981,0 11.42,-4.438" id="path14288" inkscape:connector-curvature="0"/>
          <path d="m 1379.458,-189.037 c 4.559,-4.559 11.396,-4.559 11.396,-4.559 l 0,-2.039 c 0,0 -6.981,0 -11.42,-4.438" id="path14290" inkscape:connector-curvature="0"/>
        </g>
      </g>
      <g id="g14292">
        <g id="club_55_">
          <path d="m 1375.907,-155.342 c 0,4.343 3.623,7.869 8.109,7.869 4.486,0 8.108,-3.526 8.108,-7.869 0,-4.342 -3.622,-7.869 -8.108,-7.869 -4.486,0 -8.109,3.527 -8.109,7.869 z" id="path14295" inkscape:connector-curvature="0"/>
          <path d="m 1365.448,-140.443 c 0,4.343 3.623,7.869 8.109,7.869 4.486,0 8.108,-3.526 8.108,-7.869 0,-4.342 -3.622,-7.869 -8.108,-7.869 -4.486,0 -8.109,3.526 -8.109,7.869 z" id="path14297" inkscape:connector-curvature="0"/>
          <path d="m 1386.224,-140.395 c 0,1.583 0.479,3.071 1.319,4.318 1.439,2.135 3.959,3.55 6.789,3.55 4.486,0 8.109,-3.526 8.109,-7.869 0,-4.343 -3.623,-7.869 -8.109,-7.869 -4.486,0 -8.108,3.527 -8.108,7.87 z" id="path14299" inkscape:connector-curvature="0"/>
          <path d="m 1374.492,-125.113 c 4.006,0 6.117,-3.263 7.221,-6.526 1.104,-3.263 1.2,-6.525 1.2,-6.525 l 2.063,0 c 0,0 0.384,13.027 8.397,13.051 l -18.881,0 z" id="path14301" inkscape:connector-curvature="0"/>
          <path d="m 1389.51,-149.56 c -4.558,4.558 -4.558,11.396 -4.558,11.396 l -2.039,0.024 c 0,0 0,-6.981 -4.438,-11.419" id="path14303" inkscape:connector-curvature="0"/>
          <path d="m 1388.599,-134.925 c -4.559,-4.558 -11.396,-4.558 -11.396,-4.558 l 0,-2.04 c 0,0 6.981,0 11.42,-4.438" id="path14305" inkscape:connector-curvature="0"/>
          <path d="m 1379.458,-134.901 c 4.559,-4.558 11.396,-4.558 11.396,-4.558 l 0,-2.04 c 0,0 -6.981,0 -11.42,-4.438" id="path14307" inkscape:connector-curvature="0"/>
        </g>
      </g>
      <g id="g14309">
        <g id="club_56_">
          <path d="m 1391.982,-77.843 c 0,-4.342 -3.623,-7.869 -8.109,-7.869 -4.486,0 -8.108,3.526 -8.108,7.869 0,4.343 3.622,7.869 8.108,7.869 4.486,0 8.109,-3.526 8.109,-7.869 z" id="path14312" inkscape:connector-curvature="0"/>
          <path d="m 1402.442,-92.741 c 0,-4.342 -3.622,-7.869 -8.108,-7.869 -4.486,0 -8.109,3.527 -8.109,7.869 0,4.343 3.623,7.869 8.109,7.869 4.486,0 8.108,-3.526 8.108,-7.869 z" id="path14314" inkscape:connector-curvature="0"/>
          <path d="m 1381.665,-92.789 c 0,-1.583 -0.479,-3.071 -1.319,-4.318 -1.439,-2.135 -3.959,-3.551 -6.789,-3.551 -4.486,0 -8.109,3.527 -8.109,7.869 0,4.342 3.623,7.869 8.109,7.869 4.486,0 8.108,-3.527 8.108,-7.869 z" id="path14316" inkscape:connector-curvature="0"/>
          <path d="m 1393.397,-108.071 c -4.006,0 -6.117,3.263 -7.221,6.525 -1.104,3.262 -1.199,6.526 -1.199,6.526 l -2.063,0 c 0,0 -0.384,-13.027 -8.397,-13.051 l 18.88,0 z" id="path14318" inkscape:connector-curvature="0"/>
          <path d="m 1378.379,-83.625 c 4.558,-4.558 4.558,-11.396 4.558,-11.396 l 2.04,-0.024 c 0,0 0,6.981 4.438,11.419" id="path14320" inkscape:connector-curvature="0"/>
          <path d="m 1379.29,-98.259 c 4.559,4.558 11.396,4.558 11.396,4.558 l 0,2.039 c 0,0 -6.98,0 -11.419,4.438" id="path14322" inkscape:connector-curvature="0"/>
          <path d="m 1388.431,-98.283 c -4.559,4.559 -11.396,4.559 -11.396,4.559 l 0,2.039 c 0,0 6.981,0 11.42,4.438" id="path14324" inkscape:connector-curvature="0"/>
        </g>
      </g>
      <g id="g14326">
        <g id="club_57_">
          <path d="m 1391.982,-23.707 c 0,-4.342 -3.623,-7.869 -8.109,-7.869 -4.486,0 -8.108,3.527 -8.108,7.869 0,4.342 3.622,7.869 8.108,7.869 4.486,0 8.109,-3.526 8.109,-7.869 z" id="path14329" inkscape:connector-curvature="0"/>
          <path d="m 1402.442,-38.605 c 0,-4.342 -3.622,-7.869 -8.108,-7.869 -4.486,0 -8.109,3.527 -8.109,7.869 0,4.342 3.623,7.869 8.109,7.869 4.486,0 8.108,-3.527 8.108,-7.869 z" id="path14331" inkscape:connector-curvature="0"/>
          <path d="m 1381.665,-38.653 c 0,-1.583 -0.479,-3.071 -1.319,-4.318 -1.439,-2.135 -3.959,-3.551 -6.789,-3.551 -4.486,0 -8.109,3.527 -8.109,7.869 0,4.342 3.623,7.869 8.109,7.869 4.486,0 8.108,-3.527 8.108,-7.869 z" id="path14333" inkscape:connector-curvature="0"/>
          <path d="m 1393.397,-53.935 c -4.006,0 -6.117,3.263 -7.221,6.525 -1.104,3.262 -1.199,6.526 -1.199,6.526 l -2.063,0 c 0,0 -0.384,-13.027 -8.397,-13.051 l 18.88,0 z" id="path14335" inkscape:connector-curvature="0"/>
          <path d="m 1378.379,-29.488 c 4.558,-4.559 4.558,-11.396 4.558,-11.396 l 2.04,-0.024 c 0,0 0,6.981 4.438,11.42" id="path14337" inkscape:connector-curvature="0"/>
          <path d="m 1379.29,-44.123 c 4.559,4.559 11.396,4.559 11.396,4.559 l 0,2.039 c 0,0 -6.98,0 -11.419,4.438" id="path14339" inkscape:connector-curvature="0"/>
          <path d="m 1388.431,-44.147 c -4.559,4.559 -11.396,4.559 -11.396,4.559 l 0,2.039 c 0,0 6.981,0 11.42,4.438" id="path14341" inkscape:connector-curvature="0"/>
        </g>
      </g>
      <g id="g14343">
        <g id="club_58_">
          <path d="m 1455.736,-209.478 c 0,4.342 3.623,7.869 8.109,7.869 4.486,0 8.108,-3.526 8.108,-7.869 0,-4.343 -3.622,-7.869 -8.108,-7.869 -4.486,0 -8.109,3.527 -8.109,7.869 z" id="path14346" inkscape:connector-curvature="0"/>
          <path d="m 1445.276,-194.579 c 0,4.342 3.622,7.869 8.108,7.869 4.486,0 8.109,-3.527 8.109,-7.869 0,-4.343 -3.623,-7.869 -8.109,-7.869 -4.486,0 -8.108,3.526 -8.108,7.869 z" id="path14348" inkscape:connector-curvature="0"/>
          <path d="m 1466.052,-194.531 c 0,1.583 0.479,3.071 1.319,4.318 1.439,2.135 3.959,3.551 6.789,3.551 4.486,0 8.109,-3.527 8.109,-7.869 0,-4.342 -3.623,-7.869 -8.109,-7.869 -4.486,0 -8.108,3.526 -8.108,7.869 z" id="path14350" inkscape:connector-curvature="0"/>
          <path d="m 1454.321,-179.249 c 4.006,0 6.117,-3.263 7.221,-6.525 1.104,-3.262 1.199,-6.526 1.199,-6.526 l 2.063,0 c 0,0 0.384,13.027 8.397,13.051 l -18.88,0 z" id="path14352" inkscape:connector-curvature="0"/>
          <path d="m 1469.338,-203.696 c -4.558,4.558 -4.558,11.396 -4.558,11.396 l -2.04,0.024 c 0,0 0,-6.981 -4.438,-11.419" id="path14354" inkscape:connector-curvature="0"/>
          <path d="m 1468.427,-189.062 c -4.559,-4.558 -11.396,-4.558 -11.396,-4.558 l 0,-2.039 c 0,0 6.98,0 11.419,-4.438" id="path14356" inkscape:connector-curvature="0"/>
          <path d="m 1459.286,-189.037 c 4.559,-4.559 11.396,-4.559 11.396,-4.559 l 0,-2.039 c 0,0 -6.981,0 -11.42,-4.438" id="path14358" inkscape:connector-curvature="0"/>
        </g>
      </g>
      <g id="g14360">
        <g id="club_59_">
          <path d="m 1455.736,-155.342 c 0,4.343 3.623,7.869 8.109,7.869 4.486,0 8.108,-3.526 8.108,-7.869 0,-4.342 -3.622,-7.869 -8.108,-7.869 -4.486,0 -8.109,3.527 -8.109,7.869 z" id="path14363" inkscape:connector-curvature="0"/>
          <path d="m 1445.276,-140.443 c 0,4.343 3.622,7.869 8.108,7.869 4.486,0 8.109,-3.526 8.109,-7.869 0,-4.342 -3.623,-7.869 -8.109,-7.869 -4.486,0 -8.108,3.526 -8.108,7.869 z" id="path14365" inkscape:connector-curvature="0"/>
          <path d="m 1466.052,-140.395 c 0,1.583 0.479,3.071 1.319,4.318 1.439,2.135 3.959,3.55 6.789,3.55 4.486,0 8.109,-3.526 8.109,-7.869 0,-4.343 -3.623,-7.869 -8.109,-7.869 -4.486,0 -8.108,3.527 -8.108,7.87 z" id="path14367" inkscape:connector-curvature="0"/>
          <path d="m 1454.321,-125.113 c 4.006,0 6.117,-3.263 7.221,-6.526 1.104,-3.263 1.199,-6.525 1.199,-6.525 l 2.063,0 c 0,0 0.384,13.027 8.397,13.051 l -18.88,0 z" id="path14369" inkscape:connector-curvature="0"/>
          <path d="m 1469.338,-149.56 c -4.558,4.558 -4.558,11.396 -4.558,11.396 l -2.04,0.024 c 0,0 0,-6.981 -4.438,-11.419" id="path14371" inkscape:connector-curvature="0"/>
          <path d="m 1468.427,-134.925 c -4.559,-4.558 -11.396,-4.558 -11.396,-4.558 l 0,-2.04 c 0,0 6.98,0 11.419,-4.438" id="path14373" inkscape:connector-curvature="0"/>
          <path d="m 1459.286,-134.901 c 4.559,-4.558 11.396,-4.558 11.396,-4.558 l 0,-2.04 c 0,0 -6.981,0 -11.42,-4.438" id="path14375" inkscape:connector-curvature="0"/>
        </g>
      </g>
      <g id="g14377">
        <g id="club_60_">
          <path d="m 1471.81,-77.843 c 0,-4.342 -3.623,-7.869 -8.109,-7.869 -4.486,0 -8.108,3.526 -8.108,7.869 0,4.343 3.622,7.869 8.108,7.869 4.486,0 8.109,-3.526 8.109,-7.869 z" id="path14380" inkscape:connector-curvature="0"/>
          <path d="m 1482.27,-92.741 c 0,-4.342 -3.623,-7.869 -8.109,-7.869 -4.486,0 -8.108,3.527 -8.108,7.869 0,4.343 3.622,7.869 8.108,7.869 4.486,0 8.109,-3.526 8.109,-7.869 z" id="path14382" inkscape:connector-curvature="0"/>
          <path d="m 1461.493,-92.789 c 0,-1.583 -0.479,-3.071 -1.319,-4.318 -1.439,-2.135 -3.959,-3.551 -6.789,-3.551 -4.486,0 -8.109,3.527 -8.109,7.869 0,4.342 3.623,7.869 8.109,7.869 4.486,0 8.108,-3.527 8.108,-7.869 z" id="path14384" inkscape:connector-curvature="0"/>
          <path d="m 1473.225,-108.071 c -4.006,0 -6.117,3.263 -7.221,6.525 -1.104,3.262 -1.2,6.526 -1.2,6.526 l -2.063,0 c 0,0 -0.384,-13.027 -8.397,-13.051 l 18.881,0 z" id="path14386" inkscape:connector-curvature="0"/>
          <path d="m 1458.207,-83.625 c 4.558,-4.558 4.558,-11.396 4.558,-11.396 l 2.039,-0.024 c 0,0 0,6.981 4.438,11.419" id="path14388" inkscape:connector-curvature="0"/>
          <path d="m 1459.118,-98.259 c 4.559,4.558 11.396,4.558 11.396,4.558 l 0,2.039 c 0,0 -6.981,0 -11.42,4.438" id="path14390" inkscape:connector-curvature="0"/>
          <path d="m 1468.259,-98.283 c -4.559,4.559 -11.396,4.559 -11.396,4.559 l 0,2.039 c 0,0 6.981,0 11.42,4.438" id="path14392" inkscape:connector-curvature="0"/>
        </g>
      </g>
      <g id="g14394">
        <g id="club_61_">
          <path d="m 1471.81,-23.707 c 0,-4.342 -3.623,-7.869 -8.109,-7.869 -4.486,0 -8.108,3.527 -8.108,7.869 0,4.342 3.622,7.869 8.108,7.869 4.486,0 8.109,-3.526 8.109,-7.869 z" id="path14397" inkscape:connector-curvature="0"/>
          <path d="m 1482.27,-38.605 c 0,-4.342 -3.623,-7.869 -8.109,-7.869 -4.486,0 -8.108,3.527 -8.108,7.869 0,4.342 3.622,7.869 8.108,7.869 4.486,0 8.109,-3.527 8.109,-7.869 z" id="path14399" inkscape:connector-curvature="0"/>
          <path d="m 1461.493,-38.653 c 0,-1.583 -0.479,-3.071 -1.319,-4.318 -1.439,-2.135 -3.959,-3.551 -6.789,-3.551 -4.486,0 -8.109,3.527 -8.109,7.869 0,4.342 3.623,7.869 8.109,7.869 4.486,0 8.108,-3.527 8.108,-7.869 z" id="path14401" inkscape:connector-curvature="0"/>
          <path d="m 1473.225,-53.935 c -4.006,0 -6.117,3.263 -7.221,6.525 -1.104,3.262 -1.2,6.526 -1.2,6.526 l -2.063,0 c 0,0 -0.384,-13.027 -8.397,-13.051 l 18.881,0 z" id="path14403" inkscape:connector-curvature="0"/>
          <path d="m 1458.207,-29.488 c 4.558,-4.559 4.558,-11.396 4.558,-11.396 l 2.039,-0.024 c 0,0 0,6.981 4.438,11.42" id="path14405" inkscape:connector-curvature="0"/>
          <path d="m 1459.118,-44.123 c 4.559,4.559 11.396,4.559 11.396,4.559 l 0,2.039 c 0,0 -6.981,0 -11.42,4.438" id="path14407" inkscape:connector-curvature="0"/>
          <path d="m 1468.259,-44.147 c -4.559,4.559 -11.396,4.559 -11.396,4.559 l 0,2.039 c 0,0 6.981,0 11.42,4.438" id="path14409" inkscape:connector-curvature="0"/>
        </g>
      </g>
      <g id="g14411">
        <g id="club_62_">
          <path d="m 1415.822,-182.41 c 0,4.342 3.623,7.869 8.109,7.869 4.486,0 8.108,-3.527 8.108,-7.869 0,-4.342 -3.622,-7.869 -8.108,-7.869 -4.486,0 -8.109,3.527 -8.109,7.869 z" id="path14414" inkscape:connector-curvature="0"/>
          <path d="m 1405.362,-167.511 c 0,4.342 3.623,7.869 8.109,7.869 4.486,0 8.108,-3.527 8.108,-7.869 0,-4.342 -3.622,-7.869 -8.108,-7.869 -4.486,0 -8.109,3.526 -8.109,7.869 z" id="path14416" inkscape:connector-curvature="0"/>
          <path d="m 1426.138,-167.463 c 0,1.583 0.479,3.071 1.319,4.318 1.439,2.135 3.959,3.55 6.79,3.55 4.486,0 8.108,-3.526 8.108,-7.869 0,-4.343 -3.622,-7.869 -8.108,-7.869 -4.486,0 -8.109,3.527 -8.109,7.87 z" id="path14418" inkscape:connector-curvature="0"/>
          <path d="m 1414.406,-152.181 c 4.006,0 6.117,-3.263 7.221,-6.526 1.104,-3.263 1.2,-6.525 1.2,-6.525 l 2.063,0 c 0,0 0.384,13.027 8.396,13.051 l -18.88,0 z" id="path14420" inkscape:connector-curvature="0"/>
          <path d="m 1429.425,-176.628 c -4.559,4.559 -4.559,11.396 -4.559,11.396 l -2.039,0.024 c 0,0 0,-6.981 -4.438,-11.42" id="path14422" inkscape:connector-curvature="0"/>
          <path d="m 1428.513,-161.993 c -4.559,-4.558 -11.396,-4.558 -11.396,-4.558 l 0,-2.04 c 0,0 6.981,0 11.42,-4.438" id="path14424" inkscape:connector-curvature="0"/>
          <path d="m 1419.372,-161.969 c 4.559,-4.558 11.396,-4.558 11.396,-4.558 l 0,-2.04 c 0,0 -6.981,0 -11.42,-4.438" id="path14426" inkscape:connector-curvature="0"/>
        </g>
      </g>
    </g> </svg>