<svg xmlns:dc="http://purl.org/dc/elements/1.1/" xmlns:cc="http://creativecommons.org/ns#" xmlns:rdf="http://www.w3.org/1999/02/22-rdf-syntax-ns#" xmlns:svg="http://www.w3.org/2000/svg" xmlns="http://www.w3.org/2000/svg" xmlns:sodipodi="http://sodipodi.sourceforge.net/DTD/sodipodi-0.dtd" xmlns:inkscape="http://www.inkscape.org/namespaces/inkscape" version="1.1" height="1216.19" width="2178.18" viewBox="-.2 -236 2178.99 1216.19" id="deck" ><g xmlns="http://www.w3.org/2000/svg" id="_x32__x5F_diamond" class="card">
      <g id="g15488">
        <g id="base_14_">
          <path d="m 167.513,243.185 c 0,3.778 3.089,6.867 6.867,6.867 l 152.788,0 c 3.769,0 6.857,-3.089 6.857,-6.867 l 0,-228.315 c 0,-3.779 -3.089,-6.868 -6.857,-6.868 l -152.788,0 c -3.778,0 -6.867,3.089 -6.867,6.868 l 0,228.315 z" id="path15491" inkscape:connector-curvature="0" style="fill:#ffffff;stroke:#000000;stroke-width:2.5"/>
        </g>
      </g>
      <g id="g15493">
        <g id="n_2_2_">
          <text transform="matrix(0.5339,0,0,1,173.5108,44.142)" font-size="40" id="text15496" style="font-size:40px;font-family:CopperplateGothic-Bold;fill:#e6180a">2</text>
        </g>
      </g>
      <g id="g15498">
        <g id="n_2_3_">
          <text transform="matrix(-0.5339,0,0,-1,329.0274,212.9164)" font-size="40" id="text15501" style="font-size:40px;font-family:CopperplateGothic-Bold;fill:#e6180a">2</text>
        </g>
      </g>
      <g id="g15503">
        <g id="diamond_3_">
          <path d="m 181.158,58.137 c 2.559,0 5.118,0 7.677,0 -0.874,-0.039 -1.618,-0.604 -2.321,-1.072 -1.579,-1.191 -3.057,-2.556 -4.225,-4.154 -0.545,-0.804 -1.117,-1.708 -1.131,-2.711 m 7.677,7.937 c -1.109,0.035 -2.057,0.741 -2.903,1.393 -1.494,1.254 -2.788,2.747 -3.879,4.362 -0.401,0.669 -0.873,1.377 -0.895,2.182 0,-2.646 0,-5.291 0,-7.937 m 0,7.937 c -0.038,-1.182 -0.758,-2.205 -1.438,-3.119 -1.212,-1.51 -2.647,-2.845 -4.227,-3.961 -0.614,-0.383 -1.266,-0.838 -2.013,-0.857 2.559,0 5.118,0 7.677,0 m -7.676,0 c 1.109,-0.035 2.057,-0.741 2.903,-1.392 1.495,-1.255 2.788,-2.748 3.879,-4.363 0.401,-0.668 0.873,-1.377 0.895,-2.182 0,2.646 0,5.291 0,7.937" id="path15506" inkscape:connector-curvature="0" style="fill:#e6180a"/>
        </g>
      </g>
      <g id="g15508">
        <g id="diamond_4_">
          <path d="m 321.381,198.921 c -2.56,0 -5.118,0 -7.678,0 0.875,0.039 1.618,0.605 2.321,1.072 1.578,1.191 3.057,2.556 4.225,4.154 0.545,0.804 1.117,1.708 1.132,2.711 m -7.678,-7.937 c 1.109,-0.035 2.058,-0.741 2.903,-1.393 1.494,-1.254 2.788,-2.747 3.879,-4.362 0.401,-0.668 0.873,-1.377 0.896,-2.182 0,2.646 0,5.291 0,7.937 m 0,-7.937 c 0.037,1.182 0.757,2.205 1.438,3.119 1.211,1.51 2.646,2.845 4.226,3.961 0.614,0.383 1.266,0.838 2.014,0.857 -2.56,0 -5.118,0 -7.677,0 m 7.676,0 c -1.109,0.035 -2.058,0.741 -2.903,1.392 -1.494,1.255 -2.788,2.748 -3.879,4.363 -0.401,0.668 -0.872,1.377 -0.895,2.182 0,-2.646 0,-5.291 0,-7.937" id="path15511" inkscape:connector-curvature="0" style="fill:#e6180a"/>
        </g>
      </g>
      <g id="g15513">
        <g id="diamond_5_">
          <path d="m 251.268,208.161 c -6.142,0 -12.283,0 -18.425,0 2.099,0.093 3.884,1.451 5.571,2.574 3.788,2.857 7.336,6.135 10.139,9.969 1.308,1.929 2.681,4.098 2.716,6.506 m -18.426,-19.049 c 2.663,-0.084 4.938,-1.779 6.967,-3.342 3.586,-3.011 6.691,-6.593 9.311,-10.47 0.962,-1.605 2.094,-3.306 2.147,-5.237 0,6.351 0,12.699 0,19.049 m 0,-19.049 c 0.091,2.836 1.818,5.292 3.45,7.485 2.908,3.623 6.353,6.828 10.144,9.508 1.473,0.918 3.038,2.012 4.832,2.056 -6.142,0 -12.284,0 -18.425,0 m 18.424,0 c -2.663,0.084 -4.938,1.777 -6.967,3.339 -3.586,3.013 -6.691,6.595 -9.311,10.472 -0.962,1.605 -2.093,3.306 -2.147,5.237 0,-6.351 0,-12.699 0,-19.049" id="path15516" inkscape:connector-curvature="0" style="fill:#e6180a"/>
        </g>
      </g>
      <g id="g15518">
        <g id="diamond_6_">
          <path d="m 251.268,44.749 c 6.142,0 12.284,0 18.425,0 -2.099,-0.093 -3.884,-1.451 -5.571,-2.574 -3.788,-2.858 -7.336,-6.135 -10.139,-9.969 -1.308,-1.929 -2.681,-4.098 -2.716,-6.506 m 18.426,19.049 c -2.663,0.084 -4.938,1.779 -6.967,3.342 -3.586,3.011 -6.691,6.593 -9.311,10.47 -0.962,1.605 -2.094,3.306 -2.147,5.237 0,-6.35 0,-12.698 0,-19.049 m 0,19.049 c -0.091,-2.835 -1.818,-5.292 -3.45,-7.485 -2.908,-3.623 -6.353,-6.828 -10.144,-9.508 -1.473,-0.919 -3.037,-2.012 -4.832,-2.056 6.142,0 12.284,0 18.425,0 m -18.424,0 c 2.663,-0.084 4.938,-1.777 6.967,-3.339 3.586,-3.013 6.691,-6.595 9.311,-10.472 0.962,-1.605 2.093,-3.306 2.147,-5.237 0,6.351 0,12.699 0,19.049" id="path15521" inkscape:connector-curvature="0" style="fill:#e6180a"/>
        </g>
      </g>
    </g> </svg>