<svg xmlns:dc="http://purl.org/dc/elements/1.1/" xmlns:cc="http://creativecommons.org/ns#" xmlns:rdf="http://www.w3.org/1999/02/22-rdf-syntax-ns#" xmlns:svg="http://www.w3.org/2000/svg" xmlns="http://www.w3.org/2000/svg" xmlns:sodipodi="http://sodipodi.sourceforge.net/DTD/sodipodi-0.dtd" xmlns:inkscape="http://www.inkscape.org/namespaces/inkscape" version="1.1" height="1216.19" width="2178.18" viewBox="-.2 -236 2178.99 1216.19" id="deck" ><g xmlns="http://www.w3.org/2000/svg" id="_x38__x5F_diamond" class="card">
      <g id="g15779">
        <g id="base_20_">
          <path d="m 1172.584,243.185 c 0,3.778 3.089,6.867 6.867,6.867 l 152.788,0 c 3.769,0 6.857,-3.089 6.857,-6.867 l 0,-228.315 c 0,-3.779 -3.089,-6.868 -6.857,-6.868 l -152.788,0 c -3.778,0 -6.867,3.089 -6.867,6.868 l 0,228.315 z" id="path15782" inkscape:connector-curvature="0" style="fill:#ffffff;stroke:#000000;stroke-width:2.5"/>
        </g>
      </g>
      <g id="g15784">
        <g id="n_8_2_">
          <text transform="matrix(0.5339,0,0,1,1178.582,44.142)" font-size="40" id="text15787" style="font-size:40px;font-family:CopperplateGothic-Bold;fill:#e6180a">8</text>
        </g>
      </g>
      <g id="g15789">
        <g id="n_8_3_">
          <text transform="matrix(-0.5339,0,0,-1,1334.1035,212.9164)" font-size="40" id="text15792" style="font-size:40px;font-family:CopperplateGothic-Bold;fill:#e6180a">8</text>
        </g>
      </g>
      <g id="g15794">
        <g id="diamond_42_">
          <path d="m 1186.229,58.137 c 2.56,0 5.118,0 7.678,0 -0.875,-0.039 -1.619,-0.604 -2.321,-1.072 -1.578,-1.191 -3.057,-2.556 -4.225,-4.154 -0.545,-0.804 -1.117,-1.708 -1.132,-2.711 m 7.677,7.937 c -1.109,0.035 -2.058,0.741 -2.903,1.393 -1.494,1.254 -2.788,2.747 -3.88,4.362 -0.4,0.669 -0.872,1.377 -0.895,2.182 0,-2.646 0,-5.291 0,-7.937 m 10e-4,7.937 c -0.037,-1.182 -0.758,-2.205 -1.438,-3.119 -1.211,-1.51 -2.646,-2.845 -4.227,-3.961 -0.613,-0.383 -1.265,-0.838 -2.013,-0.857 2.56,0 5.118,0 7.677,0 m -7.676,0 c 1.109,-0.035 2.058,-0.741 2.903,-1.392 1.494,-1.255 2.787,-2.748 3.879,-4.363 0.401,-0.668 0.872,-1.377 0.895,-2.182 0,2.646 0,5.291 0,7.937" id="path15797" inkscape:connector-curvature="0" style="fill:#e6180a"/>
        </g>
      </g>
      <g id="g15799">
        <g id="diamond_43_">
          <path d="m 1326.457,198.921 c -2.56,0 -5.118,0 -7.678,0 0.875,0.039 1.618,0.605 2.321,1.072 1.578,1.191 3.057,2.556 4.225,4.154 0.545,0.804 1.117,1.708 1.132,2.711 m -7.678,-7.937 c 1.109,-0.035 2.058,-0.741 2.903,-1.393 1.494,-1.254 2.788,-2.747 3.879,-4.362 0.401,-0.668 0.873,-1.377 0.896,-2.182 0,2.646 0,5.291 0,7.937 m 0,-7.937 c 0.037,1.182 0.757,2.205 1.438,3.119 1.211,1.51 2.646,2.845 4.226,3.961 0.614,0.383 1.266,0.838 2.014,0.857 -2.56,0 -5.118,0 -7.677,0 m 7.676,0 c -1.109,0.035 -2.058,0.741 -2.903,1.392 -1.494,1.255 -2.788,2.748 -3.879,4.363 -0.401,0.668 -0.873,1.377 -0.895,2.182 0,-2.646 0,-5.291 0,-7.937" id="path15802" inkscape:connector-curvature="0" style="fill:#e6180a"/>
        </g>
      </g>
      <g id="g15804">
        <g id="diamond_44_">
          <path d="m 1216.432,44.749 c 6.142,0 12.283,0 18.425,0 -2.099,-0.093 -3.884,-1.451 -5.57,-2.574 -3.788,-2.858 -7.337,-6.135 -10.139,-9.969 -1.308,-1.929 -2.682,-4.098 -2.716,-6.506 m 18.424,19.049 c -2.663,0.084 -4.937,1.779 -6.967,3.342 -3.587,3.011 -6.691,6.593 -9.311,10.47 -0.962,1.605 -2.095,3.306 -2.147,5.237 0,-6.35 0,-12.698 0,-19.049 m 10e-4,19.049 c -0.091,-2.835 -1.818,-5.292 -3.45,-7.485 -2.907,-3.623 -6.353,-6.828 -10.144,-9.508 -1.473,-0.919 -3.037,-2.012 -4.831,-2.056 6.142,0 12.283,0 18.425,0 m -18.425,0 c 2.663,-0.084 4.937,-1.777 6.967,-3.339 3.587,-3.013 6.691,-6.595 9.311,-10.472 0.962,-1.605 2.094,-3.306 2.147,-5.237 0,6.351 0,12.699 0,19.049" id="path15807" inkscape:connector-curvature="0" style="fill:#e6180a"/>
        </g>
      </g>
      <g id="g15809">
        <g id="diamond_45_">
          <path d="m 1216.432,98.885 c 6.142,0 12.283,0 18.425,0 -2.099,-0.093 -3.884,-1.452 -5.57,-2.574 -3.788,-2.858 -7.337,-6.135 -10.139,-9.969 -1.308,-1.929 -2.682,-4.098 -2.716,-6.506 m 18.424,19.049 c -2.663,0.084 -4.937,1.778 -6.967,3.342 -3.587,3.011 -6.691,6.592 -9.311,10.469 -0.962,1.605 -2.095,3.306 -2.147,5.237 0,-6.35 0,-12.698 0,-19.049 m 10e-4,19.05 c -0.091,-2.835 -1.818,-5.292 -3.45,-7.485 -2.907,-3.623 -6.353,-6.828 -10.144,-9.508 -1.473,-0.919 -3.037,-2.012 -4.831,-2.056 6.142,0 12.283,0 18.425,0 m -18.425,0 c 2.663,-0.084 4.937,-1.778 6.967,-3.339 3.587,-3.014 6.691,-6.595 9.311,-10.472 0.962,-1.605 2.094,-3.306 2.147,-5.237 0,6.351 0,12.698 0,19.049" id="path15812" inkscape:connector-curvature="0" style="fill:#e6180a"/>
        </g>
      </g>
      <g id="g15814">
        <g id="diamond_46_">
          <path d="m 1216.432,154.025 c -6.142,0 -12.283,0 -18.425,0 2.099,0.093 3.884,1.451 5.57,2.574 3.788,2.858 7.337,6.135 10.139,9.969 1.308,1.929 2.682,4.098 2.716,6.506 m -18.425,-19.049 c 2.663,-0.084 4.937,-1.779 6.967,-3.342 3.587,-3.011 6.691,-6.593 9.311,-10.47 0.962,-1.605 2.095,-3.306 2.147,-5.237 0,6.35 0,12.698 0,19.049 m 0,-19.049 c 0.091,2.835 1.818,5.292 3.45,7.485 2.907,3.623 6.353,6.828 10.144,9.508 1.473,0.919 3.037,2.012 4.831,2.056 -6.142,0 -12.283,0 -18.425,0 m 18.424,0 c -2.663,0.084 -4.937,1.778 -6.967,3.339 -3.587,3.013 -6.691,6.595 -9.311,10.472 -0.962,1.605 -2.094,3.306 -2.147,5.237 0,-6.351 0,-12.699 0,-19.049" id="path15817" inkscape:connector-curvature="0" style="fill:#e6180a"/>
        </g>
      </g>
      <g id="g15819">
        <g id="diamond_47_">
          <path d="m 1216.432,208.161 c -6.142,0 -12.283,0 -18.425,0 2.099,0.093 3.884,1.451 5.57,2.574 3.788,2.857 7.337,6.135 10.139,9.969 1.308,1.929 2.682,4.098 2.716,6.506 m -18.425,-19.049 c 2.663,-0.084 4.937,-1.779 6.967,-3.342 3.587,-3.011 6.691,-6.593 9.311,-10.47 0.962,-1.605 2.095,-3.306 2.147,-5.237 0,6.351 0,12.699 0,19.049 m 0,-19.049 c 0.091,2.836 1.818,5.292 3.45,7.485 2.907,3.623 6.353,6.828 10.144,9.508 1.473,0.918 3.037,2.012 4.831,2.056 -6.142,0 -12.283,0 -18.425,0 m 18.424,0 c -2.663,0.084 -4.937,1.777 -6.967,3.339 -3.587,3.013 -6.691,6.595 -9.311,10.472 -0.962,1.605 -2.094,3.306 -2.147,5.237 0,-6.351 0,-12.699 0,-19.049" id="path15822" inkscape:connector-curvature="0" style="fill:#e6180a"/>
        </g>
      </g>
      <g id="g15824">
        <g id="diamond_48_">
          <path d="m 1296.26,44.749 c 6.142,0 12.283,0 18.425,0 -2.099,-0.093 -3.884,-1.451 -5.57,-2.574 -3.788,-2.858 -7.337,-6.135 -10.139,-9.969 -1.308,-1.929 -2.682,-4.098 -2.716,-6.506 m 18.425,19.049 c -2.663,0.084 -4.938,1.779 -6.967,3.342 -3.587,3.011 -6.691,6.593 -9.311,10.47 -0.962,1.605 -2.095,3.306 -2.147,5.237 0,-6.35 0,-12.698 0,-19.049 m 0,19.049 c -0.092,-2.835 -1.818,-5.292 -3.45,-7.485 -2.907,-3.623 -6.353,-6.828 -10.144,-9.508 -1.473,-0.919 -3.037,-2.012 -4.832,-2.056 6.143,0 12.284,0 18.426,0 m -18.426,0 c 2.664,-0.084 4.938,-1.777 6.968,-3.339 3.587,-3.013 6.69,-6.595 9.311,-10.472 0.962,-1.605 2.094,-3.306 2.147,-5.237 0,6.351 0,12.699 0,19.049" id="path15827" inkscape:connector-curvature="0" style="fill:#e6180a"/>
        </g>
      </g>
      <g id="g15829">
        <g id="diamond_49_">
          <path d="m 1296.26,98.885 c 6.142,0 12.283,0 18.425,0 -2.099,-0.093 -3.884,-1.452 -5.57,-2.574 -3.788,-2.858 -7.337,-6.135 -10.139,-9.969 -1.308,-1.929 -2.682,-4.098 -2.716,-6.506 m 18.425,19.049 c -2.663,0.084 -4.938,1.778 -6.967,3.342 -3.587,3.011 -6.691,6.592 -9.311,10.469 -0.962,1.605 -2.095,3.306 -2.147,5.237 0,-6.35 0,-12.698 0,-19.049 m 0,19.05 c -0.092,-2.835 -1.818,-5.292 -3.45,-7.485 -2.907,-3.623 -6.353,-6.828 -10.144,-9.508 -1.473,-0.919 -3.037,-2.012 -4.832,-2.056 6.143,0 12.284,0 18.426,0 m -18.426,0 c 2.664,-0.084 4.938,-1.778 6.968,-3.339 3.587,-3.014 6.69,-6.595 9.311,-10.472 0.962,-1.605 2.094,-3.306 2.147,-5.237 0,6.351 0,12.698 0,19.049" id="path15832" inkscape:connector-curvature="0" style="fill:#e6180a"/>
        </g>
      </g>
      <g id="g15834">
        <g id="diamond_50_">
          <path d="m 1296.26,154.025 c -6.142,0 -12.283,0 -18.426,0 2.099,0.093 3.885,1.451 5.571,2.574 3.788,2.858 7.336,6.135 10.139,9.969 1.308,1.929 2.681,4.098 2.716,6.506 m -18.426,-19.049 c 2.663,-0.084 4.938,-1.779 6.968,-3.342 3.586,-3.011 6.69,-6.593 9.311,-10.47 0.962,-1.605 2.095,-3.306 2.147,-5.237 0,6.35 0,12.698 0,19.049 m 0,-19.049 c 0.091,2.835 1.818,5.292 3.449,7.485 2.908,3.623 6.354,6.828 10.144,9.508 1.474,0.919 3.038,2.012 4.832,2.056 -6.142,0 -12.283,0 -18.425,0 m 18.425,0 c -2.663,0.084 -4.938,1.778 -6.967,3.339 -3.587,3.013 -6.691,6.595 -9.312,10.472 -0.962,1.605 -2.093,3.306 -2.146,5.237 0,-6.351 0,-12.699 0,-19.049" id="path15837" inkscape:connector-curvature="0" style="fill:#e6180a"/>
        </g>
      </g>
      <g id="g15839">
        <g id="diamond_51_">
          <path d="m 1296.26,208.161 c -6.142,0 -12.283,0 -18.426,0 2.099,0.093 3.885,1.451 5.571,2.574 3.788,2.857 7.336,6.135 10.139,9.969 1.308,1.929 2.681,4.098 2.716,6.506 m -18.426,-19.049 c 2.663,-0.084 4.938,-1.779 6.968,-3.342 3.586,-3.011 6.69,-6.593 9.311,-10.47 0.962,-1.605 2.095,-3.306 2.147,-5.237 0,6.351 0,12.699 0,19.049 m 0,-19.049 c 0.091,2.836 1.818,5.292 3.449,7.485 2.908,3.623 6.354,6.828 10.144,9.508 1.474,0.918 3.038,2.012 4.832,2.056 -6.142,0 -12.283,0 -18.425,0 m 18.425,0 c -2.663,0.084 -4.938,1.777 -6.967,3.339 -3.587,3.013 -6.691,6.595 -9.312,10.472 -0.962,1.605 -2.093,3.306 -2.146,5.237 0,-6.351 0,-12.699 0,-19.049" id="path15842" inkscape:connector-curvature="0" style="fill:#e6180a"/>
        </g>
      </g>
    </g> </svg>