<svg xmlns:dc="http://purl.org/dc/elements/1.1/" xmlns:cc="http://creativecommons.org/ns#" xmlns:rdf="http://www.w3.org/1999/02/22-rdf-syntax-ns#" xmlns:svg="http://www.w3.org/2000/svg" xmlns="http://www.w3.org/2000/svg" xmlns:sodipodi="http://sodipodi.sourceforge.net/DTD/sodipodi-0.dtd" xmlns:inkscape="http://www.inkscape.org/namespaces/inkscape" version="1.1" height="1216.19" width="2178.18" viewBox="-.2 -236 2178.99 1216.19" id="deck" ><g xmlns="http://www.w3.org/2000/svg" id="_x31_0_x5F_heart" class="card">
      <g id="g17175">
        <g id="base_35_">
          <path d="m 1507.609,486.232 c 0,3.778 3.089,6.867 6.867,6.867 l 152.788,0 c 3.769,0 6.857,-3.089 6.857,-6.867 l 0,-228.315 c 0,-3.779 -3.089,-6.868 -6.857,-6.868 l -152.788,0 c -3.778,0 -6.867,3.089 -6.867,6.868 l 0,228.315 z" id="path17178" inkscape:connector-curvature="0" style="fill:#ffffff;stroke:#000000;stroke-width:2.5"/>
        </g>
      </g>
      <g id="g17180">
        <g id="n_10_4_">
          <text transform="matrix(0.44,0,0,1,1508.6084,287.1882)" font-size="40" id="text17183" style="font-size:40px;font-family:CopperplateGothic-Bold;fill:#e6180a">10</text>
        </g>
      </g>
      <g id="g17185">
        <g id="n_10_5_">
          <text transform="matrix(-0.44,0,0,-1,1674.1289,455.9636)" font-size="40" id="text17188" style="font-size:40px;font-family:CopperplateGothic-Bold;fill:#e6180a">10</text>
        </g>
      </g>
      <g id="g17190">
        <g id="heart_63_">
          <path d="m 1528.932,297.255 c -0.011,4.708 -5.908,8.137 -7.638,11.866 -1.749,-3.719 -7.657,-7.118 -7.697,-11.826 -0.01,-2.219 1.71,-4.029 3.819,-4.029 2.119,0 3.848,1.79 3.848,4.009 0,-2.229 1.71,-4.029 3.819,-4.029 2.119,-0.01 3.838,1.789 3.849,4.009 z" id="path17193" inkscape:connector-curvature="0" style="fill:#e6180a"/>
        </g>
      </g>
      <g id="g17195">
        <g id="heart_64_">
          <path d="m 1653.814,445.897 c 0.011,-4.708 5.908,-8.137 7.638,-11.865 1.749,3.719 7.657,7.117 7.697,11.825 0.01,2.22 -1.71,4.028 -3.819,4.028 -2.119,0 -3.848,-1.789 -3.848,-4.008 0,2.229 -1.71,4.028 -3.819,4.028 -2.119,0.011 -3.838,-1.788 -3.849,-4.008 z" id="path17198" inkscape:connector-curvature="0" style="fill:#e6180a"/>
        </g>
      </g>
      <g id="g17200">
        <g id="heart_65_">
          <path d="m 1569.858,278.367 c -0.023,11.3 -14.179,19.529 -18.329,28.478 -4.198,-8.925 -18.377,-17.082 -18.473,-28.382 -0.024,-5.326 4.102,-9.668 9.164,-9.668 5.086,0 9.236,4.295 9.236,9.621 0,-5.35 4.103,-9.668 9.165,-9.668 5.087,-0.025 9.214,4.293 9.237,9.619 z" id="path17203" inkscape:connector-curvature="0" style="fill:#e6180a"/>
        </g>
      </g>
      <g id="g17205">
        <g id="heart_66_">
          <path d="m 1569.858,332.503 c -0.023,11.3 -14.179,19.529 -18.329,28.478 -4.198,-8.925 -18.377,-17.082 -18.473,-28.381 -0.024,-5.326 4.102,-9.668 9.164,-9.668 5.086,0 9.236,4.294 9.236,9.62 0,-5.35 4.103,-9.668 9.165,-9.668 5.087,-0.025 9.214,4.293 9.237,9.619 z" id="path17208" inkscape:connector-curvature="0" style="fill:#e6180a"/>
        </g>
      </g>
      <g id="g17210">
        <g id="heart_67_">
          <path d="m 1533.057,406.502 c 0.023,-11.3 14.179,-19.529 18.329,-28.478 4.198,8.924 18.377,17.082 18.473,28.381 0.024,5.326 -4.103,9.669 -9.164,9.669 -5.086,0 -9.237,-4.295 -9.237,-9.62 0,5.35 -4.102,9.668 -9.164,9.668 -5.087,0.024 -9.214,-4.294 -9.237,-9.62 z" id="path17213" inkscape:connector-curvature="0" style="fill:#e6180a"/>
        </g>
      </g>
      <g id="g17215">
        <g id="heart_68_">
          <path d="m 1533.057,460.637 c 0.023,-11.3 14.179,-19.529 18.329,-28.478 4.198,8.925 18.377,17.082 18.473,28.381 0.024,5.326 -4.103,9.669 -9.164,9.669 -5.086,0 -9.237,-4.294 -9.237,-9.62 0,5.35 -4.102,9.668 -9.164,9.668 -5.087,0.025 -9.214,-4.293 -9.237,-9.62 z" id="path17218" inkscape:connector-curvature="0" style="fill:#e6180a"/>
        </g>
      </g>
      <g id="g17220">
        <g id="heart_69_">
          <path d="m 1649.687,278.367 c -0.024,11.3 -14.179,19.529 -18.329,28.478 -4.198,-8.925 -18.377,-17.082 -18.474,-28.382 -0.023,-5.326 4.103,-9.668 9.165,-9.668 5.086,0 9.236,4.295 9.236,9.621 0,-5.35 4.103,-9.668 9.165,-9.668 5.086,-0.025 9.212,4.293 9.237,9.619 z" id="path17223" inkscape:connector-curvature="0" style="fill:#e6180a"/>
        </g>
      </g>
      <g id="g17225">
        <g id="heart_70_">
          <path d="m 1649.687,332.503 c -0.024,11.3 -14.179,19.529 -18.329,28.478 -4.198,-8.925 -18.377,-17.082 -18.474,-28.381 -0.023,-5.326 4.103,-9.668 9.165,-9.668 5.086,0 9.236,4.294 9.236,9.62 0,-5.35 4.103,-9.668 9.165,-9.668 5.086,-0.025 9.212,4.293 9.237,9.619 z" id="path17228" inkscape:connector-curvature="0" style="fill:#e6180a"/>
        </g>
      </g>
      <g id="g17230">
        <g id="heart_71_">
          <path d="m 1612.885,406.502 c 0.023,-11.3 14.178,-19.529 18.328,-28.478 4.199,8.924 18.378,17.082 18.474,28.381 0.024,5.326 -4.103,9.669 -9.165,9.669 -5.086,0 -9.236,-4.295 -9.236,-9.62 0,5.35 -4.103,9.668 -9.164,9.668 -5.087,0.024 -9.214,-4.294 -9.237,-9.62 z" id="path17233" inkscape:connector-curvature="0" style="fill:#e6180a"/>
        </g>
      </g>
      <g id="g17235">
        <g id="heart_72_">
          <path d="m 1612.885,460.637 c 0.023,-11.3 14.178,-19.529 18.328,-28.478 4.199,8.925 18.378,17.082 18.474,28.381 0.024,5.326 -4.103,9.669 -9.165,9.669 -5.086,0 -9.236,-4.294 -9.236,-9.62 0,5.35 -4.103,9.668 -9.164,9.668 -5.087,0.025 -9.214,-4.293 -9.237,-9.62 z" id="path17238" inkscape:connector-curvature="0" style="fill:#e6180a"/>
        </g>
      </g>
      <g id="g17240">
        <g id="heart_73_">
          <path d="m 1609.772,305.436 c -0.024,11.3 -14.179,19.529 -18.329,28.478 -4.198,-8.925 -18.377,-17.082 -18.474,-28.381 -0.023,-5.326 4.103,-9.668 9.165,-9.668 5.086,0 9.236,4.294 9.236,9.621 0,-5.35 4.103,-9.668 9.165,-9.668 5.087,-0.026 9.213,4.293 9.237,9.618 z" id="path17243" inkscape:connector-curvature="0" style="fill:#e6180a"/>
        </g>
      </g>
      <g id="g17245">
        <g id="heart_74_">
          <path d="m 1572.971,433.568 c 0.023,-11.3 14.178,-19.528 18.328,-28.478 4.199,8.925 18.378,17.082 18.474,28.382 0.024,5.326 -4.103,9.668 -9.165,9.668 -5.086,0 -9.236,-4.294 -9.236,-9.62 0,5.35 -4.103,9.668 -9.164,9.668 -5.087,0.025 -9.214,-4.294 -9.237,-9.62 z" id="path17248" inkscape:connector-curvature="0" style="fill:#e6180a"/>
        </g>
      </g>
    </g> </svg>