<svg xmlns:dc="http://purl.org/dc/elements/1.1/" xmlns:cc="http://creativecommons.org/ns#" xmlns:rdf="http://www.w3.org/1999/02/22-rdf-syntax-ns#" xmlns:svg="http://www.w3.org/2000/svg" xmlns="http://www.w3.org/2000/svg" xmlns:sodipodi="http://sodipodi.sourceforge.net/DTD/sodipodi-0.dtd" xmlns:inkscape="http://www.inkscape.org/namespaces/inkscape" version="1.1" height="1216.19" width="2178.18" viewBox="-.2 -236 2178.99 1216.19" id="deck" ><g xmlns="http://www.w3.org/2000/svg" id="_x31__x5F_heart" class="card">
      <g id="g16716">
        <g id="base_26_">
          <path d="m 0,486.232 c 0,3.778 3.089,6.867 6.867,6.867 l 152.789,0 c 3.769,0 6.857,-3.089 6.857,-6.867 l 0,-228.315 c 0,-3.779 -3.089,-6.868 -6.857,-6.868 l -152.789,0 C 3.089,251.049 0,254.138 0,257.917 l 0,228.315 z" id="path16719" inkscape:connector-curvature="0" style="fill:#ffffff;stroke:#000000;stroke-width:2.5"/>
        </g>
      </g>
      <g id="g16721">
        <g id="ace_4_">
          <text transform="matrix(0.5339,0,0,1,4.998,287.1882)" font-size="40" id="text16724" style="font-size:40px;font-family:CopperplateGothic-Bold;fill:#e6180a">A</text>
        </g>
      </g>
      <g id="g16726">
        <g id="ace_5_">
          <text transform="matrix(-0.5339,0,0,-1,162.5132,455.9636)" font-size="40" id="text16729" style="font-size:40px;font-family:CopperplateGothic-Bold;fill:#e6180a">A</text>
        </g>
      </g>
      <g id="g16731">
        <g id="heart">
          <path d="m 21.312,297.255 c -0.01,4.708 -5.908,8.137 -7.637,11.866 -1.75,-3.719 -7.657,-7.118 -7.697,-11.826 -0.01,-2.219 1.709,-4.029 3.819,-4.029 2.119,0 3.849,1.79 3.849,4.009 0,-2.229 1.709,-4.029 3.818,-4.029 2.119,-0.01 3.838,1.789 3.848,4.009 z" id="path16734" inkscape:connector-curvature="0" style="fill:#e6180a"/>
        </g>
      </g>
      <g id="g16736">
        <g id="heart_1_">
          <path d="m 146.201,445.897 c 0.01,-4.708 5.908,-8.137 7.637,-11.865 1.749,3.719 7.657,7.117 7.697,11.825 0.01,2.22 -1.709,4.028 -3.818,4.028 -2.119,0 -3.849,-1.789 -3.849,-4.008 0,2.229 -1.709,4.028 -3.818,4.028 -2.12,0.011 -3.84,-1.788 -3.849,-4.008 z" id="path16739" inkscape:connector-curvature="0" style="fill:#e6180a"/>
        </g>
      </g>
      <g id="g16741">
        <g id="heart_2_">
          <path d="m 102.158,355.281 c -0.024,11.3 -14.179,19.529 -18.33,28.477 -4.198,-8.925 -18.377,-17.082 -18.473,-28.381 -0.024,-5.326 4.103,-9.668 9.165,-9.668 5.086,0 9.236,4.294 9.236,9.621 0,-5.35 4.103,-9.668 9.165,-9.668 5.086,-0.026 9.212,4.292 9.237,9.619 z" id="path16744" inkscape:connector-curvature="0" style="fill:#e6180a"/>
        </g>
      </g>
    </g> </svg>