<svg xmlns:dc="http://purl.org/dc/elements/1.1/" xmlns:cc="http://creativecommons.org/ns#" xmlns:rdf="http://www.w3.org/1999/02/22-rdf-syntax-ns#" xmlns:svg="http://www.w3.org/2000/svg" xmlns="http://www.w3.org/2000/svg" xmlns:sodipodi="http://sodipodi.sourceforge.net/DTD/sodipodi-0.dtd" xmlns:inkscape="http://www.inkscape.org/namespaces/inkscape" version="1.1" height="1216.19" width="2178.18" viewBox="-.2 -236 2178.99 1216.19" id="deck" ><g xmlns="http://www.w3.org/2000/svg" id="_x37__x5F_heart" class="card">
      <g id="g16977">
        <g id="base_32_">
          <path d="m 1005.076,486.232 c 0,3.778 3.089,6.867 6.867,6.867 l 152.788,0 c 3.769,0 6.857,-3.089 6.857,-6.867 l 0,-228.315 c 0,-3.779 -3.089,-6.868 -6.857,-6.868 l -152.788,0 c -3.778,0 -6.867,3.089 -6.867,6.868 l 0,228.315 z" id="path16980" inkscape:connector-curvature="0" style="fill:#ffffff;stroke:#000000;stroke-width:2.5"/>
        </g>
      </g>
      <g id="g16982">
        <g id="n_7_4_">
          <text transform="matrix(0.5339,0,0,1,1011.0742,287.1882)" font-size="40" id="text16985" style="font-size:40px;font-family:CopperplateGothic-Bold;fill:#e6180a">7</text>
        </g>
      </g>
      <g id="g16987">
        <g id="n_7_5_">
          <text transform="matrix(-0.5339,0,0,-1,1166.5859,455.9636)" font-size="40" id="text16990" style="font-size:40px;font-family:CopperplateGothic-Bold;fill:#e6180a">7</text>
        </g>
      </g>
      <g id="g16992">
        <g id="heart_33_">
          <path d="m 1026.389,297.255 c -0.011,4.708 -5.908,8.137 -7.638,11.866 -1.749,-3.719 -7.657,-7.118 -7.697,-11.826 -0.01,-2.219 1.71,-4.029 3.818,-4.029 2.119,0 3.849,1.79 3.849,4.009 0,-2.229 1.71,-4.029 3.819,-4.029 2.119,-0.01 3.838,1.789 3.849,4.009 z" id="path16995" inkscape:connector-curvature="0" style="fill:#e6180a"/>
        </g>
      </g>
      <g id="g16997">
        <g id="heart_34_">
          <path d="m 1151.271,445.897 c 0.011,-4.708 5.908,-8.137 7.638,-11.865 1.749,3.719 7.657,7.117 7.697,11.825 0.01,2.22 -1.71,4.028 -3.819,4.028 -2.119,0 -3.848,-1.789 -3.848,-4.008 0,2.229 -1.71,4.028 -3.819,4.028 -2.119,0.011 -3.838,-1.788 -3.849,-4.008 z" id="path17000" inkscape:connector-curvature="0" style="fill:#e6180a"/>
        </g>
      </g>
      <g id="g17002">
        <g id="heart_35_">
          <path d="m 1067.319,278.367 c -0.023,11.3 -14.179,19.529 -18.329,28.478 -4.198,-8.925 -18.377,-17.082 -18.473,-28.382 -0.024,-5.326 4.103,-9.668 9.164,-9.668 5.086,0 9.237,4.295 9.237,9.621 0,-5.35 4.103,-9.668 9.164,-9.668 5.087,-0.025 9.214,4.293 9.237,9.619 z" id="path17005" inkscape:connector-curvature="0" style="fill:#e6180a"/>
        </g>
      </g>
      <g id="g17007">
        <g id="heart_36_">
          <path d="m 1067.319,355.281 c -0.023,11.3 -14.179,19.529 -18.329,28.477 -4.198,-8.925 -18.377,-17.082 -18.473,-28.381 -0.024,-5.326 4.103,-9.668 9.164,-9.668 5.086,0 9.237,4.294 9.237,9.621 0,-5.35 4.103,-9.668 9.164,-9.668 5.087,-0.026 9.214,4.292 9.237,9.619 z" id="path17010" inkscape:connector-curvature="0" style="fill:#e6180a"/>
        </g>
      </g>
      <g id="g17012">
        <g id="heart_37_">
          <path d="m 1030.518,460.637 c 0.023,-11.3 14.179,-19.529 18.329,-28.478 4.198,8.925 18.377,17.082 18.474,28.381 0.023,5.326 -4.103,9.669 -9.165,9.669 -5.086,0 -9.236,-4.294 -9.236,-9.62 0,5.35 -4.103,9.668 -9.165,9.668 -5.087,0.025 -9.214,-4.293 -9.237,-9.62 z" id="path17015" inkscape:connector-curvature="0" style="fill:#e6180a"/>
        </g>
      </g>
      <g id="g17017">
        <g id="heart_38_">
          <path d="m 1147.147,278.367 c -0.023,11.3 -14.179,19.529 -18.329,28.478 -4.198,-8.925 -18.377,-17.082 -18.473,-28.382 -0.024,-5.326 4.102,-9.668 9.164,-9.668 5.086,0 9.236,4.295 9.236,9.621 0,-5.35 4.103,-9.668 9.165,-9.668 5.087,-0.025 9.214,4.293 9.237,9.619 z" id="path17020" inkscape:connector-curvature="0" style="fill:#e6180a"/>
        </g>
      </g>
      <g id="g17022">
        <g id="heart_39_">
          <path d="m 1147.147,355.281 c -0.023,11.3 -14.179,19.529 -18.329,28.477 -4.198,-8.925 -18.377,-17.082 -18.473,-28.381 -0.024,-5.326 4.102,-9.668 9.164,-9.668 5.086,0 9.236,4.294 9.236,9.621 0,-5.35 4.103,-9.668 9.165,-9.668 5.087,-0.026 9.214,4.292 9.237,9.619 z" id="path17025" inkscape:connector-curvature="0" style="fill:#e6180a"/>
        </g>
      </g>
      <g id="g17027">
        <g id="heart_40_">
          <path d="m 1110.346,460.637 c 0.023,-11.3 14.179,-19.529 18.329,-28.478 4.198,8.925 18.377,17.082 18.473,28.381 0.024,5.326 -4.103,9.669 -9.164,9.669 -5.086,0 -9.237,-4.294 -9.237,-9.62 0,5.35 -4.102,9.668 -9.164,9.668 -5.087,0.025 -9.214,-4.293 -9.237,-9.62 z" id="path17030" inkscape:connector-curvature="0" style="fill:#e6180a"/>
        </g>
      </g>
      <g id="g17032">
        <g id="heart_41_">
          <path d="m 1107.233,332.503 c -0.023,11.3 -14.179,19.529 -18.329,28.478 -4.198,-8.925 -18.377,-17.082 -18.473,-28.381 -0.024,-5.326 4.103,-9.668 9.164,-9.668 5.086,0 9.236,4.294 9.236,9.62 0,-5.35 4.103,-9.668 9.165,-9.668 5.087,-0.025 9.214,4.293 9.237,9.619 z" id="path17035" inkscape:connector-curvature="0" style="fill:#e6180a"/>
        </g>
      </g>
    </g> </svg>