<svg xmlns:dc="http://purl.org/dc/elements/1.1/" xmlns:cc="http://creativecommons.org/ns#" xmlns:rdf="http://www.w3.org/1999/02/22-rdf-syntax-ns#" xmlns:svg="http://www.w3.org/2000/svg" xmlns="http://www.w3.org/2000/svg" xmlns:sodipodi="http://sodipodi.sourceforge.net/DTD/sodipodi-0.dtd" xmlns:inkscape="http://www.inkscape.org/namespaces/inkscape" version="1.1" height="1216.19" width="2178.18" viewBox="-.2 -236 2178.99 1216.19" id="deck" ><g xmlns="http://www.w3.org/2000/svg" id="_x38__x5F_heart" class="card">
      <g id="g17038">
        <g id="base_33_">
          <path d="m 1172.584,486.232 c 0,3.778 3.089,6.867 6.867,6.867 l 152.788,0 c 3.769,0 6.857,-3.089 6.857,-6.867 l 0,-228.315 c 0,-3.779 -3.089,-6.868 -6.857,-6.868 l -152.788,0 c -3.778,0 -6.867,3.089 -6.867,6.868 l 0,228.315 z" id="path17041" inkscape:connector-curvature="0" style="fill:#ffffff;stroke:#000000;stroke-width:2.5"/>
        </g>
      </g>
      <g id="g17043">
        <g id="n_8_4_">
          <text transform="matrix(0.5339,0,0,1,1178.582,287.1882)" font-size="40" id="text17046" style="font-size:40px;font-family:CopperplateGothic-Bold;fill:#e6180a">8</text>
        </g>
      </g>
      <g id="g17048">
        <g id="n_8_5_">
          <text transform="matrix(-0.5339,0,0,-1,1334.1035,455.9636)" font-size="40" id="text17051" style="font-size:40px;font-family:CopperplateGothic-Bold;fill:#e6180a">8</text>
        </g>
      </g>
      <g id="g17053">
        <g id="heart_42_">
          <path d="m 1193.896,297.255 c -0.011,4.708 -5.908,8.137 -7.638,11.866 -1.749,-3.719 -7.657,-7.118 -7.697,-11.826 -0.01,-2.219 1.71,-4.029 3.819,-4.029 2.119,0 3.848,1.79 3.848,4.009 0,-2.229 1.71,-4.029 3.819,-4.029 2.12,-0.01 3.839,1.789 3.849,4.009 z" id="path17056" inkscape:connector-curvature="0" style="fill:#e6180a"/>
        </g>
      </g>
      <g id="g17058">
        <g id="heart_43_">
          <path d="m 1318.789,445.897 c 0.011,-4.708 5.908,-8.137 7.638,-11.865 1.749,3.719 7.657,7.117 7.697,11.825 0.01,2.22 -1.71,4.028 -3.819,4.028 -2.119,0 -3.848,-1.789 -3.848,-4.008 0,2.229 -1.71,4.028 -3.819,4.028 -2.119,0.011 -3.838,-1.788 -3.849,-4.008 z" id="path17061" inkscape:connector-curvature="0" style="fill:#e6180a"/>
        </g>
      </g>
      <g id="g17063">
        <g id="heart_44_">
          <path d="m 1234.833,278.367 c -0.024,11.3 -14.179,19.529 -18.329,28.478 -4.199,-8.925 -18.377,-17.082 -18.474,-28.382 -0.023,-5.326 4.103,-9.668 9.165,-9.668 5.086,0 9.236,4.295 9.236,9.621 0,-5.35 4.103,-9.668 9.164,-9.668 5.088,-0.025 9.214,4.293 9.238,9.619 z" id="path17066" inkscape:connector-curvature="0" style="fill:#e6180a"/>
        </g>
      </g>
      <g id="g17068">
        <g id="heart_45_">
          <path d="m 1234.833,332.503 c -0.024,11.3 -14.179,19.529 -18.329,28.478 -4.199,-8.925 -18.377,-17.082 -18.474,-28.381 -0.023,-5.326 4.103,-9.668 9.165,-9.668 5.086,0 9.236,4.294 9.236,9.62 0,-5.35 4.103,-9.668 9.164,-9.668 5.088,-0.025 9.214,4.293 9.238,9.619 z" id="path17071" inkscape:connector-curvature="0" style="fill:#e6180a"/>
        </g>
      </g>
      <g id="g17073">
        <g id="heart_46_">
          <path d="m 1198.03,406.502 c 0.024,-11.3 14.179,-19.529 18.329,-28.478 4.199,8.924 18.377,17.082 18.474,28.381 0.023,5.326 -4.103,9.669 -9.165,9.669 -5.086,0 -9.236,-4.295 -9.236,-9.62 0,5.35 -4.103,9.668 -9.164,9.668 -5.087,0.024 -9.213,-4.294 -9.238,-9.62 z" id="path17076" inkscape:connector-curvature="0" style="fill:#e6180a"/>
        </g>
      </g>
      <g id="g17078">
        <g id="heart_47_">
          <path d="m 1198.03,460.637 c 0.024,-11.3 14.179,-19.529 18.329,-28.478 4.199,8.925 18.377,17.082 18.474,28.381 0.023,5.326 -4.103,9.669 -9.165,9.669 -5.086,0 -9.236,-4.294 -9.236,-9.62 0,5.35 -4.103,9.668 -9.164,9.668 -5.087,0.025 -9.213,-4.293 -9.238,-9.62 z" id="path17081" inkscape:connector-curvature="0" style="fill:#e6180a"/>
        </g>
      </g>
      <g id="g17083">
        <g id="heart_48_">
          <path d="m 1314.661,278.367 c -0.024,11.3 -14.179,19.529 -18.329,28.478 -4.199,-8.925 -18.378,-17.082 -18.474,-28.382 -0.024,-5.326 4.103,-9.668 9.165,-9.668 5.086,0 9.236,4.295 9.236,9.621 0,-5.35 4.103,-9.668 9.164,-9.668 5.088,-0.025 9.214,4.293 9.238,9.619 z" id="path17086" inkscape:connector-curvature="0" style="fill:#e6180a"/>
        </g>
      </g>
      <g id="g17088">
        <g id="heart_49_">
          <path d="m 1314.661,332.503 c -0.024,11.3 -14.179,19.529 -18.329,28.478 -4.199,-8.925 -18.378,-17.082 -18.474,-28.381 -0.024,-5.326 4.103,-9.668 9.165,-9.668 5.086,0 9.236,4.294 9.236,9.62 0,-5.35 4.103,-9.668 9.164,-9.668 5.088,-0.025 9.214,4.293 9.238,9.619 z" id="path17091" inkscape:connector-curvature="0" style="fill:#e6180a"/>
        </g>
      </g>
      <g id="g17093">
        <g id="heart_50_">
          <path d="m 1277.858,406.502 c 0.024,-11.3 14.179,-19.529 18.329,-28.478 4.198,8.924 18.377,17.082 18.473,28.381 0.024,5.326 -4.102,9.669 -9.164,9.669 -5.086,0 -9.236,-4.295 -9.236,-9.62 0,5.35 -4.103,9.668 -9.165,9.668 -5.086,0.024 -9.212,-4.294 -9.237,-9.62 z" id="path17096" inkscape:connector-curvature="0" style="fill:#e6180a"/>
        </g>
      </g>
      <g id="g17098">
        <g id="heart_51_">
          <path d="m 1277.858,460.637 c 0.024,-11.3 14.179,-19.529 18.329,-28.478 4.198,8.925 18.377,17.082 18.473,28.381 0.024,5.326 -4.102,9.669 -9.164,9.669 -5.086,0 -9.236,-4.294 -9.236,-9.62 0,5.35 -4.103,9.668 -9.165,9.668 -5.086,0.025 -9.212,-4.293 -9.237,-9.62 z" id="path17101" inkscape:connector-curvature="0" style="fill:#e6180a"/>
        </g>
      </g>
    </g> </svg>