<svg xmlns:dc="http://purl.org/dc/elements/1.1/" xmlns:cc="http://creativecommons.org/ns#" xmlns:rdf="http://www.w3.org/1999/02/22-rdf-syntax-ns#" xmlns:svg="http://www.w3.org/2000/svg" xmlns="http://www.w3.org/2000/svg" xmlns:sodipodi="http://sodipodi.sourceforge.net/DTD/sodipodi-0.dtd" xmlns:inkscape="http://www.inkscape.org/namespaces/inkscape" version="1.1" height="1216.19" width="2178.18" viewBox="-.2 -236 2178.99 1216.19" id="deck" ><g xmlns="http://www.w3.org/2000/svg" id="_x31_0_x5F_spade" class="card">
      <g id="g18553">
        <g id="base_48_">
          <path d="m 1507.609,729.279 c 0,3.778 3.089,6.867 6.867,6.867 l 152.788,0 c 3.769,0 6.857,-3.089 6.857,-6.867 l 0,-228.315 c 0,-3.778 -3.089,-6.867 -6.857,-6.867 l -152.788,0 c -3.778,0 -6.867,3.089 -6.867,6.867 l 0,228.315 z" id="path18556" inkscape:connector-curvature="0" style="fill:#ffffff;stroke:#000000;stroke-width:2.5"/>
        </g>
      </g>
      <g id="g18558">
        <g id="n_10_6_">
          <text transform="matrix(0.44,0,0,1,1508.6083,530.2361)" font-size="40" id="text18561" style="font-size:40px;font-family:CopperplateGothic-Bold">10</text>
        </g>
      </g>
      <g id="g18563">
        <g id="n_10_7_">
          <text transform="matrix(-0.44,0,0,-1,1674.1288,699.0095)" font-size="40" id="text18566" style="font-size:40px;font-family:CopperplateGothic-Bold">10</text>
        </g>
      </g>
      <g id="g18568">
        <g id="spade_63_">
          <path d="m 1517.346,552.158 c 1.669,0 2.549,-1.779 3.009,-3.559 0.46,-1.78 0.5,-3.559 0.5,-3.559 l 0.85,-0.011 c 0,0 0.16,7.128 3.499,7.128 l -7.858,0 z" id="path18571" inkscape:connector-curvature="0"/>
          <path d="m 1514.516,545.03 c 0.01,-3.469 5.218,-5.987 6.747,-8.727 1.53,2.749 6.738,5.269 6.748,8.727 0,1.64 -1.51,2.97 -3.379,2.97 -1.859,0 -3.369,-1.33 -3.369,-2.97 0,1.64 -1.509,2.97 -3.378,2.97 -1.869,0 -3.369,-1.33 -3.369,-2.97 z" id="path18573" inkscape:connector-curvature="0"/>
        </g>
      </g>
      <g id="g18575">
        <g id="spade_64_">
          <path d="m 1665.4,677.089 c -1.669,0 -2.549,1.779 -3.009,3.559 -0.46,1.78 -0.5,3.559 -0.5,3.559 l -0.85,0.01 c 0,0 -0.159,-7.127 -3.498,-7.127 l 7.857,0 z" id="path18578" inkscape:connector-curvature="0"/>
          <path d="m 1668.229,684.216 c -0.01,3.469 -5.218,5.988 -6.747,8.727 -1.529,-2.749 -6.738,-5.268 -6.748,-8.727 0,-1.64 1.51,-2.969 3.379,-2.969 1.859,0 3.369,1.329 3.369,2.969 0,-1.64 1.509,-2.969 3.379,-2.969 1.869,0 3.368,1.329 3.368,2.969 z" id="path18580" inkscape:connector-curvature="0"/>
        </g>
      </g>
      <g id="g18582">
        <g id="spade_65_">
          <path d="m 1542.053,549.867 c 4.007,0 6.118,-4.271 7.222,-8.541 1.104,-4.27 1.199,-8.54 1.199,-8.54 l 2.039,-0.024 c 0,0 0.384,17.105 8.397,17.105 l -18.857,0 z" id="path18585" inkscape:connector-curvature="0"/>
          <path d="m 1535.264,532.761 c 0.023,-8.325 12.523,-14.37 16.193,-20.944 3.671,6.598 16.17,12.644 16.194,20.944 0,3.935 -3.623,7.125 -8.109,7.125 -4.462,0 -8.085,-3.19 -8.085,-7.125 0,3.935 -3.622,7.125 -8.108,7.125 -4.486,0 -8.085,-3.19 -8.085,-7.125 z" id="path18587" inkscape:connector-curvature="0"/>
        </g>
      </g>
      <g id="g18589">
        <g id="spade_66_">
          <path d="m 1542.053,604.003 c 4.007,0 6.118,-4.271 7.222,-8.54 1.104,-4.271 1.199,-8.541 1.199,-8.541 l 2.039,-0.024 c 0,0 0.384,17.105 8.397,17.105 l -18.857,0 z" id="path18592" inkscape:connector-curvature="0"/>
          <path d="m 1535.264,586.897 c 0.023,-8.324 12.523,-14.37 16.193,-20.944 3.671,6.598 16.17,12.644 16.194,20.944 0,3.935 -3.623,7.126 -8.109,7.126 -4.462,0 -8.085,-3.191 -8.085,-7.126 0,3.935 -3.622,7.126 -8.108,7.126 -4.486,0 -8.085,-3.191 -8.085,-7.126 z" id="path18594" inkscape:connector-curvature="0"/>
        </g>
      </g>
      <g id="g18596">
        <g id="spade_67_">
          <path d="m 1560.862,621.094 c -4.007,0 -6.118,4.271 -7.222,8.541 -1.104,4.27 -1.199,8.54 -1.199,8.54 l -2.039,0.024 c 0,0 -0.385,-17.105 -8.397,-17.105 l 18.857,0 z" id="path18599" inkscape:connector-curvature="0"/>
          <path d="m 1567.651,638.2 c -0.023,8.325 -12.523,14.371 -16.194,20.944 -3.67,-6.598 -16.17,-12.644 -16.193,-20.944 0,-3.935 3.623,-7.125 8.109,-7.125 4.462,0 8.084,3.19 8.084,7.125 0,-3.935 3.623,-7.125 8.109,-7.125 4.486,0 8.085,3.19 8.085,7.125 z" id="path18601" inkscape:connector-curvature="0"/>
        </g>
      </g>
      <g id="g18603">
        <g id="spade_68_">
          <path d="m 1560.862,675.23 c -4.007,0 -6.118,4.271 -7.222,8.541 -1.104,4.27 -1.199,8.541 -1.199,8.541 l -2.039,0.023 c 0,0 -0.385,-17.105 -8.397,-17.105 l 18.857,0 z" id="path18606" inkscape:connector-curvature="0"/>
          <path d="m 1567.651,692.336 c -0.023,8.325 -12.523,14.371 -16.194,20.944 -3.67,-6.598 -16.17,-12.644 -16.193,-20.944 0,-3.935 3.623,-7.125 8.109,-7.125 4.462,0 8.084,3.19 8.084,7.125 0,-3.935 3.623,-7.125 8.109,-7.125 4.486,0 8.085,3.19 8.085,7.125 z" id="path18608" inkscape:connector-curvature="0"/>
        </g>
      </g>
      <g id="g18610">
        <g id="spade_69_">
          <path d="m 1621.881,549.867 c 4.007,0 6.117,-4.271 7.221,-8.541 1.104,-4.27 1.2,-8.54 1.2,-8.54 l 2.039,-0.024 c 0,0 0.384,17.105 8.397,17.105 l -18.857,0 z" id="path18613" inkscape:connector-curvature="0"/>
          <path d="m 1615.092,532.761 c 0.023,-8.325 12.522,-14.37 16.193,-20.944 3.671,6.598 16.17,12.644 16.194,20.944 0,3.935 -3.623,7.125 -8.109,7.125 -4.462,0 -8.085,-3.19 -8.085,-7.125 0,3.935 -3.623,7.125 -8.109,7.125 -4.486,0 -8.084,-3.19 -8.084,-7.125 z" id="path18615" inkscape:connector-curvature="0"/>
        </g>
      </g>
      <g id="g18617">
        <g id="spade_70_">
          <path d="m 1621.881,604.003 c 4.007,0 6.117,-4.271 7.221,-8.54 1.104,-4.271 1.2,-8.541 1.2,-8.541 l 2.039,-0.024 c 0,0 0.384,17.105 8.397,17.105 l -18.857,0 z" id="path18620" inkscape:connector-curvature="0"/>
          <path d="m 1615.092,586.897 c 0.023,-8.324 12.522,-14.37 16.193,-20.944 3.671,6.598 16.17,12.644 16.194,20.944 0,3.935 -3.623,7.126 -8.109,7.126 -4.462,0 -8.085,-3.191 -8.085,-7.126 0,3.935 -3.623,7.126 -8.109,7.126 -4.486,0 -8.084,-3.191 -8.084,-7.126 z" id="path18622" inkscape:connector-curvature="0"/>
        </g>
      </g>
      <g id="g18624">
        <g id="spade_71_">
          <path d="m 1640.689,621.094 c -4.006,0 -6.117,4.271 -7.221,8.541 -1.104,4.27 -1.199,8.54 -1.199,8.54 l -2.04,0.024 c 0,0 -0.384,-17.105 -8.396,-17.105 l 18.856,0 z" id="path18627" inkscape:connector-curvature="0"/>
          <path d="m 1647.479,638.2 c -0.024,8.325 -12.523,14.371 -16.194,20.944 -3.67,-6.598 -16.17,-12.644 -16.193,-20.944 0,-3.935 3.622,-7.125 8.108,-7.125 4.463,0 8.085,3.19 8.085,7.125 0,-3.935 3.623,-7.125 8.109,-7.125 4.486,0 8.085,3.19 8.085,7.125 z" id="path18629" inkscape:connector-curvature="0"/>
        </g>
      </g>
      <g id="g18631">
        <g id="spade_72_">
          <path d="m 1640.689,675.23 c -4.006,0 -6.117,4.271 -7.221,8.541 -1.104,4.27 -1.199,8.541 -1.199,8.541 l -2.04,0.023 c 0,0 -0.384,-17.105 -8.396,-17.105 l 18.856,0 z" id="path18634" inkscape:connector-curvature="0"/>
          <path d="m 1647.479,692.336 c -0.024,8.325 -12.523,14.371 -16.194,20.944 -3.67,-6.598 -16.17,-12.644 -16.193,-20.944 0,-3.935 3.622,-7.125 8.108,-7.125 4.463,0 8.085,3.19 8.085,7.125 0,-3.935 3.623,-7.125 8.109,-7.125 4.486,0 8.085,3.19 8.085,7.125 z" id="path18636" inkscape:connector-curvature="0"/>
        </g>
      </g>
      <g id="g18638">
        <g id="spade_73_">
          <path d="m 1581.967,576.936 c 4.007,0 6.117,-4.271 7.221,-8.541 1.104,-4.271 1.2,-8.54 1.2,-8.54 l 2.039,-0.024 c 0,0 0.384,17.105 8.397,17.105 l -18.857,0 z" id="path18641" inkscape:connector-curvature="0"/>
          <path d="m 1575.178,559.831 c 0.023,-8.325 12.522,-14.371 16.193,-20.944 3.671,6.598 16.17,12.644 16.194,20.944 0,3.935 -3.623,7.125 -8.109,7.125 -4.462,0 -8.085,-3.19 -8.085,-7.125 0,3.935 -3.623,7.125 -8.109,7.125 -4.486,0 -8.084,-3.191 -8.084,-7.125 z" id="path18643" inkscape:connector-curvature="0"/>
        </g>
      </g>
      <g id="g18645">
        <g id="spade_74_">
          <path d="m 1600.775,648.161 c -4.006,0 -6.117,4.271 -7.221,8.541 -1.104,4.27 -1.199,8.541 -1.199,8.541 l -2.04,0.023 c 0,0 -0.384,-17.105 -8.396,-17.105 l 18.856,0 z" id="path18648" inkscape:connector-curvature="0"/>
          <path d="m 1607.565,665.266 c -0.024,8.325 -12.523,14.371 -16.194,20.944 -3.67,-6.598 -16.17,-12.643 -16.193,-20.944 0,-3.935 3.622,-7.125 8.108,-7.125 4.463,0 8.085,3.19 8.085,7.125 0,-3.935 3.623,-7.125 8.109,-7.125 4.486,0 8.085,3.191 8.085,7.125 z" id="path18650" inkscape:connector-curvature="0"/>
        </g>
      </g>
    </g> </svg>