<svg xmlns:dc="http://purl.org/dc/elements/1.1/" xmlns:cc="http://creativecommons.org/ns#" xmlns:rdf="http://www.w3.org/1999/02/22-rdf-syntax-ns#" xmlns:svg="http://www.w3.org/2000/svg" xmlns="http://www.w3.org/2000/svg" xmlns:sodipodi="http://sodipodi.sourceforge.net/DTD/sodipodi-0.dtd" xmlns:inkscape="http://www.inkscape.org/namespaces/inkscape" version="1.1" height="1216.19" width="2178.18" viewBox="-.2 -236 2178.99 1216.19" id="deck" ><g xmlns="http://www.w3.org/2000/svg" id="_x31__x5F_spade" class="card">
      <g id="g17963">
        <g id="base_39_">
          <path d="m 0,729.279 c 0,3.778 3.089,6.867 6.867,6.867 l 152.789,0 c 3.769,0 6.857,-3.089 6.857,-6.867 l 0,-228.315 c 0,-3.778 -3.089,-6.867 -6.857,-6.867 l -152.789,0 C 3.089,494.097 0,497.186 0,500.964 l 0,228.315 z" id="path17966" inkscape:connector-curvature="0" style="fill:#ffffff;stroke:#000000;stroke-width:2.5"/>
        </g>
      </g>
      <g id="g17968">
        <g id="ace_6_">
          <text transform="matrix(0.5339,0,0,1,4.9979,530.2361)" font-size="40" id="text17971" style="font-size:40px;font-family:CopperplateGothic-Bold">A</text>
        </g>
      </g>
      <g id="g17973">
        <g id="ace_7_">
          <text transform="matrix(-0.5339,0,0,-1,162.5131,699.0095)" font-size="40" id="text17976" style="font-size:40px;font-family:CopperplateGothic-Bold">A</text>
        </g>
      </g>
      <g id="g17978">
        <g id="spade">
          <path d="m 9.726,552.158 c 1.669,0 2.549,-1.779 3.009,-3.559 0.459,-1.779 0.5,-3.559 0.5,-3.559 l 0.85,-0.011 c 0,0 0.16,7.128 3.499,7.128 l -7.858,0 z" id="path17981" inkscape:connector-curvature="0"/>
          <path d="m 6.897,545.03 c 0.01,-3.469 5.218,-5.987 6.748,-8.727 1.529,2.749 6.737,5.269 6.748,8.727 0,1.64 -1.51,2.97 -3.379,2.97 -1.859,0 -3.369,-1.33 -3.369,-2.97 0,1.64 -1.51,2.97 -3.379,2.97 -1.869,0 -3.369,-1.33 -3.369,-2.97 z" id="path17983" inkscape:connector-curvature="0"/>
        </g>
      </g>
      <g id="g17985">
        <g id="spade_1_">
          <path d="m 157.786,677.089 c -1.669,0 -2.549,1.779 -3.009,3.559 -0.46,1.78 -0.5,3.559 -0.5,3.559 l -0.85,0.01 c 0,0 -0.16,-7.127 -3.499,-7.127 l 7.858,0 z" id="path17988" inkscape:connector-curvature="0"/>
          <path d="m 160.615,684.216 c -0.01,3.469 -5.218,5.988 -6.748,8.727 -1.529,-2.749 -6.737,-5.268 -6.748,-8.727 0,-1.64 1.51,-2.969 3.379,-2.969 1.859,0 3.369,1.329 3.369,2.969 0,-1.64 1.509,-2.969 3.379,-2.969 1.87,0 3.369,1.329 3.369,2.969 z" id="path17990" inkscape:connector-curvature="0"/>
        </g>
      </g>
      <g id="g17992">
        <g id="spade_2_">
          <path d="m 74.352,626.78 c 4.006,0 6.118,-4.271 7.221,-8.541 1.104,-4.27 1.2,-8.54 1.2,-8.54 l 2.039,-0.024 c 0,0 0.384,17.105 8.397,17.105 l -18.857,0 z" id="path17995" inkscape:connector-curvature="0"/>
          <path d="m 67.562,609.675 c 0.024,-8.325 12.523,-14.37 16.194,-20.944 3.67,6.598 16.17,12.644 16.194,20.944 0,3.935 -3.623,7.125 -8.109,7.125 -4.462,0 -8.085,-3.19 -8.085,-7.125 0,3.935 -3.623,7.125 -8.109,7.125 -4.486,0 -8.085,-3.191 -8.085,-7.125 z" id="path17997" inkscape:connector-curvature="0"/>
        </g>
      </g>
      <g id="g17999">
        <g id="laurel">
          <path d="m 94.263,645.684 c 1.158,0.475 -0.045,1.142 0,0 m -16.006,0 c 0,1.753 1.343,0.295 0,0 m 2.274,-1.112 c 0.705,-0.015 1.831,0.894 0.612,1.2 -0.796,0.2 -1.718,-0.985 -0.612,-1.2 m 5.773,1.2 c -2.33,-0.74 0.548,-2.58 0,0 m -8.222,-1.837 c 0.441,0.925 0.714,2.54 2.012,2.536 -0.5,-0.7 -0.918,-0.939 -1.05,-1.836 0.269,0.21 1.581,1.434 1.447,1.74 -0.669,1.543 -2.46,-0.006 -3.108,-0.591 -1.678,-1.506 -1.849,-1.518 0.699,-1.849 m -3.044,-0.126 c 0.245,0.493 -0.111,0.633 0,0 m 15.377,-0.574 c -0.098,0.194 -0.244,0.311 -0.438,0.35 0.056,-0.212 0.215,-0.337 0.438,-0.35 m -0.875,0.088 c -0.232,-0.115 -0.465,-0.145 -0.7,-0.088 0.212,0.199 0.33,0.434 0.35,0.7 l -0.438,0 c 0.34,1.192 0.307,2.075 -0.772,2.911 -0.437,0.34 -1.126,0.834 -1.352,0.237 0.382,-0.58 1.538,-6.022 2.912,-3.76 m -14.869,0.262 c -0.221,1.479 -2.679,0.113 -2.624,-0.874 0.868,0.387 1.701,0.47 2.624,0.874 m 13.207,-0.874 c -0.208,0.499 -0.543,0.892 -1.05,1.05 -0.026,-0.538 0.367,-1.405 1.05,-1.05 M 75.02,642.536 c 0.481,0.643 -0.65,0.818 0,0 m 4.986,1.049 c 0.02,0.28 -4.236,0.414 -4.111,-0.524 1.011,0.255 0.641,-0.765 1.761,-0.462 0.466,0.126 1.038,0.092 1.462,0.287 0.419,0.428 0.304,0.694 0.888,0.699 m 18.368,-0.874 c 0.421,0.015 0.827,-0.1 1.224,-0.263 -0.416,-0.073 -0.864,0.025 -1.224,0.263 m -8.047,-0.351 0.088,0.088 c -0.114,0.469 -0.816,0.62 -0.088,-0.088 m -8.047,-0.524 c 0.345,0.438 0.67,1.044 1.05,1.312 0.271,-0.534 -0.382,-1.67 -1.05,-1.312 m 0.963,2.362 c -0.809,-0.203 -2.565,-1.959 -1.579,-2.648 1.587,-1.111 2.344,0.961 2.57,2.021 0.116,0.549 2.43,3.449 1.282,3.574 -0.647,0.047 -2.888,-2.359 -2.273,-2.947 m 13.644,-3.412 c 0.121,0.038 0.186,0.48 0.438,0 -0.184,-0.097 -0.281,0.028 -0.438,0 M 69.423,639.3 c -0.101,0.473 -0.071,0.938 0.087,1.399 -0.563,-0.348 -1.685,-1.913 -0.087,-1.399 m 24.316,-0.263 c 0.55,2.49 -3.448,0.88 -3.412,2.887 -1.358,-1.753 1.602,-3.399 1.225,-1.749 0.744,-0.331 1.43,-0.807 2.187,-1.138 m -28.515,-1.05 c 0.987,0.762 2.235,1.082 3.056,2.027 0.143,0.163 0.928,0.992 0.005,0.859 -0.314,0.082 -0.62,-0.648 -0.707,-0.729 -0.848,-0.485 -2.146,-1.2 -2.354,-2.157 m 26.94,1.225 c -0.466,-0.084 -0.917,-0.621 -0.612,-1.135 0.567,-0.953 1.153,0.415 0.612,1.135 m -4.723,-1.836 c -0.029,0.291 -0.059,0.582 -0.087,0.874 -0.359,-0.28 -0.281,-0.649 0.087,-0.874 M 86.654,637.2 c 0.031,0.422 -0.008,0.876 0,1.313 -0.381,-0.341 -0.368,-0.932 0,-1.313 m 11.545,-0.524 c -0.081,0.209 -0.175,0.372 -0.175,0.612 0.231,-0.069 0.377,-0.244 0.438,-0.525 -0.005,-0.007 -0.264,-0.168 -0.263,-0.087 m -33.675,0 c 0.383,0.301 0.613,0.652 0.612,1.137 -0.478,-0.203 -0.728,-0.64 -0.612,-1.137 m 34.987,-0.875 c -0.059,0.233 -0.116,0.466 -0.175,0.7 0.31,-0.286 0.19,-0.824 0.175,-0.7 m 1.4,-0.525 c -0.453,1.334 -2.178,2.145 -2.449,3.236 0.77,-0.212 1.564,-0.329 2.361,-0.35 -0.348,-0.27 -0.823,-0.181 -1.312,-0.176 0.459,-0.672 1.278,-0.792 1.837,-1.225 l -0.35,0 c 0.253,-0.221 0.428,-0.482 0.524,-0.787 -0.146,0.029 -0.291,0.059 -0.437,0.088 -0.042,-2.009 0.016,-0.233 -0.174,-0.786 m 11.283,-0.875 c -0.113,1.18 -0.69,3.269 -2.323,3.088 -1.428,-0.158 -2.152,2.461 -3.56,0.814 -0.647,-0.16 -2.012,0.484 -2.295,-0.141 -0.452,-0.998 3.467,-0.93 3.892,-0.787 -0.718,-1.021 1.009,-0.949 1.575,-0.7 0.124,-1.18 1.776,-1.679 2.711,-2.274 m -44.696,-0.787 c 0.169,0.511 0.628,1.018 0.437,1.574 -0.438,-0.08 -0.876,-0.139 -1.312,-0.088 0.738,1.288 2.025,0.203 2.624,1.662 -0.833,0.031 -1.165,-0.467 -2.012,-0.438 0.221,0.263 0.449,0.204 0.787,0.263 -0.269,0.417 -0.502,0.315 -0.612,0.7 0.89,-0.044 2.603,-0.349 3.149,0.611 -0.481,0.078 -0.882,0.051 -1.225,0.351 0.501,0.005 0.997,-0.043 1.487,-0.145 0.722,0.466 1.409,0.993 2.187,1.369 -0.298,-0.374 -0.618,-0.886 -0.612,-1.399 -0.832,0.03 -0.75,-0.021 -1.026,-0.852 -0.522,-1.573 -1.266,-1.986 -0.548,-0.023 -1.538,-0.218 -2.084,-2.858 -3.324,-3.585 m 29.827,6.035 c 0.144,-0.68 -0.781,0.65 0.175,-0.787 -0.791,0.378 -1.727,0.324 -2.449,0.787 0.325,-0.312 0.487,-0.66 0.524,-1.137 -0.873,0.336 -1.397,1.375 -0.35,1.662 -0.149,0.834 -1.069,0.816 -1.717,1.044 -0.802,0.281 -1.769,1.39 -2.481,1.492 0.713,-1.387 1.467,-1.315 2.616,-2.392 0.281,-0.262 1.468,-3.067 0.49,-2.566 -0.54,0.275 -1.646,-0.066 -1.399,-0.896 0.506,-1.459 1.552,0.295 2.143,0.169 0.524,0.339 0.833,0.716 1.487,0.461 1.182,-0.461 0.703,-2.45 1.749,-2.86 0.334,-0.132 0.746,0.451 1.181,0.36 0.881,-0.185 1.023,-1.75 1.793,-1.842 0.751,-0.262 0.663,0.776 1.225,1.04 0.793,0.374 1.507,-0.859 2.055,0.129 0.273,0.491 -0.038,0.803 -0.308,1.201 -1.228,0.899 -1.018,0.895 -1.177,2.298 -0.269,0.729 -2.207,2.736 -3.02,2.763 -0.954,-0.41 -0.964,-0.73 -1.875,-0.127 -0.389,0.671 -1.122,1.912 -1.984,1.084 -0.544,-1.499 -0.156,-1.772 1.322,-1.883 m 13.557,-5.073 c -0.061,-0.107 -0.089,-0.225 -0.087,-0.35 -0.527,0.493 -0.773,1.23 -1.575,1.487 0.063,-0.338 0.012,-0.682 0.175,-1.05 -0.442,0.704 -0.532,1.516 -1.487,1.661 -0.081,-0.383 0.007,-0.732 0.263,-1.049 -0.824,0.832 -1.064,1.98 -1.487,0.35 -0.32,0.164 -1.035,2.481 -2.099,1.643 -0.798,-0.629 0.858,-2.657 1.487,-2.986 1.3,0.09 1.566,-0.826 2.537,-1.288 0.753,-0.358 1.392,0.136 2.266,-0.167 0.6,-0.209 1.675,-0.381 1.668,0.524 -0.007,0.8 -1.103,0.878 -1.661,1.225 m -55.28,-2.536 c -0.16,0.455 0.17,0.978 0.438,1.312 -0.763,-0.345 -1.512,-0.942 -2.274,-1.137 0.491,0.743 1.287,1.132 1.836,1.749 -0.244,0.049 -0.319,0.08 -0.524,0.088 l 0,0.175 c 1.811,0.067 3.102,1.223 4.898,1.661 -0.583,-0.844 -1.412,-1.906 -2.274,-2.448 0.163,0.52 0.564,0.889 0.787,1.399 -1.639,-0.428 -1.836,-1.993 -2.887,-2.799 m 18.281,8.396 c -1.342,-0.417 -3.513,0.008 -3.849,-1.837 -2.455,0.812 -2.555,-0.331 -4.418,-1.528 -0.2,-0.311 -0.222,-0.594 -0.375,-0.92 0.191,-1 -1.188,-1.48 -0.979,-2.188 0.188,-0.635 0.207,-0.471 0.965,-0.519 1.032,-0.064 1.075,-0.532 1.452,-1.45 1.144,-0.719 1.748,0.74 1.976,1.618 0.688,0.655 1.709,0.17 2.33,0.769 0.555,0.537 0.163,1.348 0.713,1.915 1.028,1.058 1.183,-0.044 1.103,1.559 -0.026,0.53 0.481,0.62 0.789,1.013 0.199,0.443 0.142,1.093 0.293,1.568 m 35.862,-9.096 c -0.032,1.848 -2.429,0.775 0,0 m 1.75,-1.4 c 0.046,0.879 -0.563,0.689 0,0 m -5.599,1.924 c -0.936,-0.137 -1.432,-1.832 -0.262,-1.828 1.925,0.73 -0.008,0.754 0.262,1.828 m -45.745,-2.012 c -0.48,0.298 -1.656,0.073 -1.399,-0.785 0.072,-0.721 1.626,-0.397 1.399,0.785 m 50.993,-1.661 c -0.022,0.459 -0.077,0.729 -0.438,0.787 -0.022,-0.343 0.112,-0.7 0.438,-0.787 m -4.036,-0.263 c 0.98,0.705 0.714,2.451 -0.73,1.918 -1.095,-0.404 0.062,-1.723 0.73,-1.918 m 9.022,-0.406 c 1.387,0.087 0.516,1.221 -0.146,1.645 -1.518,0.972 -0.757,-1.326 0.146,-1.645 m -3.761,-0.031 c 0.422,0.711 0.31,1.857 -0.438,2.274 0.074,-0.676 -0.22,-1.86 0.438,-2.274 m -52.48,-0.962 c 0.852,3.302 -2.69,0.802 0,0 m 53.617,-0.524 c -0.004,0.176 -0.079,0.376 -0.175,0.524 -0.33,-0.083 -0.488,-0.076 -0.437,-0.35 0.205,-0.058 0.408,-0.116 0.612,-0.174 m -59.478,-0.438 c 0.587,0.311 0.79,1.514 0.875,2.1 -0.548,-0.1 -0.895,-1.565 -0.875,-2.1 m -4.636,-1.527 c 0.992,0.075 1.705,1.147 0.438,1.439 -1.136,0.114 -1.83,-1.076 -0.438,-1.439 m 4.111,0.477 c -0.679,-0.764 0.444,-1.102 0,0 m -4.723,-2.098 c -0.169,0.583 0.158,0.566 0.612,0.787 -0.803,2.292 -2.272,-0.873 -0.612,-0.787 m 2.187,-2.8 c 0.562,0.536 1.119,1.06 1.575,1.662 -0.802,0.222 -1.427,-1.121 -1.575,-1.662 m 61.752,-0.525 c 0.188,1.168 0.326,2.632 -0.263,3.674 0.003,-0.238 -0.119,-0.4 -0.35,-0.438 0.017,0.195 0,1.977 0.466,1.709 0.347,-0.199 1.174,-2.12 1.283,-2.584 -0.249,0.207 -0.597,0.622 -0.7,0.787 -0.261,-1.044 0.27,-1.738 0.525,-2.711 -0.42,0.471 -0.66,0.193 -0.7,-0.438 l -0.261,0 m 4.985,-0.086 c -0.117,0.729 -0.233,1.459 -0.35,2.188 0.412,-0.479 0.648,-1.813 0.35,-2.188 m -0.174,-1.924 c 0.017,0.33 0.068,1.656 -0.7,1.225 0.141,-0.498 0.316,-0.999 0.7,-1.225 m -68.05,-0.875 c 0.974,0.84 0.904,1.16 0.438,2.274 -0.649,-0.53 -1.115,-1.622 -0.438,-2.274 m 67.525,6.735 c 0.282,-0.398 0.662,-0.447 1.137,-0.612 -1.336,-0.438 0.813,-1.811 1.487,-2.012 -1.141,-0.277 0.849,-2.2 1.225,-2.712 -0.646,0.317 -0.934,1.056 -1.574,1.399 0.02,-0.45 0.107,-0.888 0.262,-1.312 -0.648,0.681 -0.875,1.933 -1.349,2.814 -0.595,1.109 -1.387,2.06 -2.15,3.046 0.53,0.62 -0.35,1.002 -0.925,1.194 -1.926,0.647 -0.295,-0.787 0.187,-1.424 0.418,-0.552 1.195,-1.421 1.195,-2.132 -0.35,-0.607 -0.713,-1.263 -0.337,-1.906 0.282,-0.482 0.749,-0.444 1.28,-0.563 0.647,-0.479 0.395,-0.546 0.556,-1.429 0.367,-1.995 1.591,-0.69 2.898,-0.925 1.543,-0.275 1.795,0.59 0.641,1.76 -0.212,0.777 0.426,1.441 0.227,2.174 -0.171,0.634 -1.388,0.472 -1.874,0.681 -1.791,1.381 -0.135,2.007 -2.886,1.959 m -0.787,-7.522 c 0.114,0.251 0.062,0.493 -0.175,0.612 -0.003,-0.212 0.06,-0.431 0.175,-0.612 m -65.426,-0.35 c 0.152,1.209 0.592,2.877 2.012,2.799 -0.129,0.672 -2.079,1.746 -2.223,0.641 -0.057,-0.434 0.272,-0.815 0.193,-1.253 -0.319,-1.08 -1.066,-1.244 0.018,-2.187 m 65.951,-0.176 c 0.259,0.218 0.28,0.44 0,0.613 -0.134,-0.236 -0.134,-0.439 0,-0.613 m -65.251,1.051 c -0.145,-0.473 -0.225,-0.932 -0.087,-1.4 0.686,0.15 0.74,1.213 0.087,1.4 m 61.752,-2.162 c 1.063,-0.114 1.626,1.202 0.525,1.199 -0.727,0.077 -1.206,-0.875 -0.525,-1.199 m 2.974,-0.287 c 0.27,0.399 0.444,0.837 0.525,1.312 -0.422,-0.278 -0.697,-0.834 -0.525,-1.312 m -65.251,-0.7 c 2.597,0.87 -0.542,1.917 0,0 m 65.338,-0.787 c -0.029,0.116 -0.059,0.233 -0.087,0.35 0.267,0.087 0.529,0.058 0.787,-0.087 0.017,0.443 0.012,0.884 -0.087,1.312 -0.477,-0.356 -1.217,-1.213 -0.613,-1.575 m -66.125,0 c 0.119,0.399 0.178,0.808 0.175,1.225 -0.61,-0.067 -0.376,-0.927 -0.175,-1.225 m 69.187,-0.208 c 0.682,0.143 1.731,1.548 0.524,1.738 -0.919,0.145 -1.022,-1.288 -0.524,-1.738 m -5.511,1.432 c -1.623,0.874 -1.341,-1.28 -0.673,-1.347 1.083,-0.105 0.311,0.655 0.673,1.347 m -60.353,0.175 c -2.562,0.803 -0.749,-4.03 0,0 m -0.087,-1.837 c -1.927,-0.318 1.864,-2.292 0,0 m -2.886,-1.574 c 0.669,0.367 0.604,1.288 0.7,1.925 -0.664,-0.419 -0.961,-1.198 -0.7,-1.925 m -1.662,6.21 c -0.683,-0.418 -0.354,-1.415 -0.087,-2.1 -1.133,1.184 -0.85,-0.91 -0.612,-1.836 -0.169,0.176 -0.241,0.078 -0.438,0.35 -0.672,-0.957 -1.421,-2.232 -0.7,0.175 -0.282,0.111 -0.575,0.081 -0.875,-0.087 0.579,0.703 1.267,1.355 1.399,2.361 -0.371,-0.121 -0.818,-0.26 -1.225,-0.263 0.294,0.39 0.892,0.786 1.399,0.612 0.352,0.931 0.667,1.674 1.137,2.537 -0.571,0.161 -1.135,0.186 -1.509,-0.263 -0.269,-1.288 -1.089,-1.064 -1.481,-2.1 -0.095,-0.252 0.073,-0.606 0.108,-0.822 0.129,-0.812 -0.513,-0.92 -0.817,-1.551 -0.434,-0.899 0.803,-1.53 0.568,-2.55 -0.663,-2.887 1.706,0.362 2.518,0.637 0.783,0.762 0.315,0.871 0.705,1.881 0.172,0.447 0.876,0.586 0.998,1.008 0.169,0.622 -0.705,1.605 -1.088,2.011 m 1.574,-7.522 c 0.155,0.279 0.331,0.385 0.175,0.611 -0.376,-0.111 -0.295,-0.354 -0.438,-0.611 l 0.263,0 m 66.388,2.711 c -0.583,-0.337 -0.532,-0.765 -0.525,-1.486 -0.445,-0.807 -0.742,-0.656 -0.533,-1.547 0.664,-2.824 1.038,2.646 1.058,3.033 m -65.688,-2.711 c -0.607,-3.974 1.794,-1.698 0,0 m 65.163,-3.849 c 0.065,0.514 0.103,1.051 0.087,1.574 -0.609,-0.465 -0.75,-1.154 -0.087,-1.574 m -65.601,-0.174 c 0.245,0.574 0.182,1.225 0,1.836 -0.734,-0.516 -0.355,-1.385 0,-1.836 m 63.064,-0.176 c -0.043,0.525 -0.19,1.021 -0.438,1.487 -0.637,-0.198 -0.823,-0.603 -1.224,-0.175 0.371,0.129 1.291,0.834 1.707,0.62 0.345,-0.176 0.499,-1.825 -0.045,-1.932 m -61.752,1.05 c -0.579,-0.375 -1.196,-1.408 -1.225,-2.099 0.728,0.39 1.114,1.292 1.225,2.099 m -3.936,-3.323 c -0.096,0.518 -0.098,2.149 -1.17,1.008 -0.76,-0.809 0.483,-1.067 1.17,-1.008 m 72.773,0.699 c -0.585,0.049 -1.917,0.711 -1.52,-0.612 1.301,-1.748 1.106,-0.127 1.52,0.612 m -5.073,-1.486 c 0.028,0.107 0.003,0.196 -0.087,0.262 -0.216,-0.193 -0.218,-0.298 0.087,-0.262 m -64.726,-1.051 c 0.423,0.574 0.369,1.214 0.088,1.838 -0.644,-0.393 -0.564,-1.307 -0.088,-1.838 m -2.974,-0.525 c -0.104,0.163 -0.163,0.338 -0.175,0.524 0.955,-0.063 -0.422,1.668 -1.079,1.275 -0.806,-0.481 0.373,-2.716 1.254,-1.799 m 66.388,7.784 c 0.318,0.916 0.874,1.723 1.225,2.625 -1.63,-0.206 -1.438,-1.793 -2.843,-2.053 -1.415,-0.263 -0.909,-1.439 -1.531,-2.408 -0.289,-0.449 -1.039,-0.563 -0.941,-1.226 0.85,-1.7 1.618,-0.562 2.778,0.175 0.152,-0.629 0.808,-2.57 0.175,-2.887 -0.079,0.433 -0.138,0.882 -0.175,1.313 -0.657,-0.777 -0.416,-1.965 -0.787,-2.799 -0.177,1.214 0.199,2.394 0.35,3.586 -1.086,-0.615 -2.956,-1.811 -1.962,-3.195 1.038,-0.781 0.84,-1.137 1.024,-2.217 0.169,-0.988 1.698,-0.217 1.849,0.426 0.144,0.608 -0.186,1.176 0.443,1.617 0.482,0.34 0.581,0.759 0.292,1.27 -0.563,0.991 0.555,1.135 0.873,1.924 0.268,0.664 -0.625,1.149 -0.558,1.837 0.411,0.669 0.972,1.819 -0.212,2.012 m -62.539,-8.833 c -0.379,-0.133 -0.548,-0.483 -0.438,-0.874 0.373,0.137 0.443,0.426 0.438,0.874 m 3.936,-1.75 c 0.375,0.786 0.73,0.485 1.312,0.263 0.059,0.481 -0.002,0.947 -0.181,1.399 0.107,0.457 0.421,0.825 0.4,1.312 -0.012,0.285 -0.492,0.43 -0.637,0.709 -0.186,0.355 -0.002,0.908 0.011,1.303 -0.615,1.064 -1.256,0.279 -1.524,1.75 -0.712,0.539 -1.228,0.491 -2.094,0.611 0,-0.438 0.213,-0.461 0.35,-0.85 1.077,-0.964 0.396,-0.102 0.635,-0.986 0.143,-0.527 0.636,-0.756 0.938,-1.165 0.15,-1.181 0.895,-2.134 1.489,-3.121 -0.601,0.222 -0.855,0.819 -1.399,1.225 -0.638,-0.774 -0.4,1.426 -0.962,1.837 -0.066,-0.495 -0.125,-0.99 -0.175,-1.487 -0.452,0.458 -0.434,1.327 0.175,1.575 -0.464,1.012 -1.095,2.529 -1.836,3.236 -0.371,-1.094 1.837,-2.877 0.525,-3.236 l 0,0.961 c -0.893,-0.575 -0.521,-0.89 -0.35,-1.533 0.729,-0.481 0.468,-1.049 0.77,-1.788 0.388,-0.517 0.91,-0.362 1.504,-0.599 0.496,-0.323 0.62,-1.043 1.049,-1.416 m 58.428,1.4 c -1.636,-0.374 1.024,-2.838 0,0 m -0.699,-2.537 c -0.288,-0.1 -0.447,-0.314 -0.438,-0.611 0.382,0.057 0.552,0.244 0.438,0.611 m -59.741,-0.612 c -0.036,0.254 -0.182,0.43 -0.438,0.524 -0.121,-0.349 0.163,-0.343 0.438,-0.524 m 58.166,-1.224 0,0.175 -0.175,0 c -0.002,-0.104 0.067,-0.158 0.175,-0.175 m 0.35,-0.526 c -0.031,0.209 -0.075,0.341 -0.262,0.438 0.064,-0.325 -0.025,-0.494 0.262,-0.438 m -55.804,1.138 c -0.662,0.038 -1.252,-0.483 -1.11,-1.181 0.349,-1.715 1.838,-0.486 1.11,1.181 m 55.279,-2.099 c 1.659,-0.369 0.287,1.727 0,0 m -54.142,1.049 c -0.921,-0.164 -0.721,-1.55 0.126,-1.697 2,-0.346 0.137,1.319 -0.126,1.697 m 53.18,-2.011 c 0.237,0.379 0.23,0.881 0.087,1.313 -0.564,-0.268 -0.409,-0.801 -0.087,-1.313 m -4.636,-0.438 c 0.472,1.027 0.37,1.904 1.282,2.748 0.575,0.533 0.806,1.551 1.691,1.625 0.01,-0.79 -0.332,-1.789 -1.225,-1.808 -0.88,-0.72 -1.122,-0.89 -0.524,-2.04 -0.396,-0.201 -0.804,-0.376 -1.224,-0.525 m 3.674,-0.088 c 0.064,0.191 0.003,0.352 -0.175,0.438 0.008,-0.196 0.023,-0.321 0.175,-0.438 m 4.286,-1.398 c 0.278,1.058 0.898,2.205 0.7,3.323 -0.334,-0.35 -0.713,-0.642 -1.137,-0.874 0.469,0.779 1.221,1.43 1.662,2.273 0.382,0.067 1.068,-2.052 1.225,-2.361 -0.387,-10e-4 -0.708,0.145 -0.962,0.438 -0.044,-0.715 0.92,-2.113 -0.175,-2.361 -0.108,0.396 -0.169,0.82 -0.175,1.224 -0.449,-0.494 -0.728,-1.325 -1.138,-1.662 m -55.98,-1.313 c 1.741,0.34 -0.204,1.201 0,0 m 48.545,-0.612 c 0.098,0.423 0.054,0.782 0.35,0.962 -0.013,-0.498 -0.005,-0.789 -0.35,-0.962 m -1.4,-0.962 c 0.078,0.377 0.224,0.728 0.438,1.049 0.107,-0.397 -0.082,-0.831 -0.438,-1.049 m 7.085,1.4 c 0.195,-0.941 0.441,-1.076 1.185,-0.964 0.432,0.066 0.636,0.777 0.789,1.139 0.573,0.595 1.161,0.434 1.875,0.619 0.315,0.237 0.316,0.414 0.573,0.693 -0.206,1.311 0.96,0.802 1.208,1.749 0.109,0.417 -0.427,0.886 -0.588,1.225 -0.128,0.771 0.793,1.331 0.394,2.041 -0.485,0.862 -0.931,1.022 -0.599,2.069 -0.259,0.771 -1.337,1.248 -0.899,2.188 0.492,-0.573 1.26,-1.195 1.509,-1.925 0.061,-1.045 0.805,-1.864 0.711,-2.844 -0.063,-0.655 -0.563,-1.188 -0.18,-1.786 0.303,-0.473 0.422,-1.084 0.087,-1.555 -0.758,-1.06 -1.061,-1.881 -2.126,-2.551 -1.339,-0.012 -1.645,-1.328 -2.968,-1.62 -1.289,-0.283 -1.521,0.534 -0.971,1.522 m -10.496,-2.012 c 0.186,0.115 -0.011,0.184 0.35,0.175 -0.092,-0.119 -0.209,-0.177 -0.35,-0.175 m 1.75,-0.175 c 0.062,0.107 0.338,0.926 0.262,0.787 -0.485,0.119 -1.016,-0.346 -1.487,-0.438 0.869,0.656 1.85,1.277 2.799,1.837 -0.462,-0.745 -1.096,-1.426 -1.574,-2.186 m -49.42,1.836 c -0.086,-0.068 -0.375,-0.286 -0.524,-0.35 -0.014,0.945 -0.009,1.818 -0.438,2.712 -0.382,-0.435 -0.328,-2.034 -0.921,-1.925 -0.167,0.031 0.27,3.249 0.134,3.674 -0.327,-0.363 -0.45,-0.99 -1.05,-0.699 0.68,1.086 0.664,2.212 0.787,3.411 0.3,-0.328 0.482,-1.089 0.612,-1.66 0.408,-0.628 1.261,-0.947 1.776,-1.511 1.524,-1.669 -1.244,0.525 -1.513,0.723 0.206,-1.609 1.78,-2.402 2.537,-3.674 -0.585,-0.049 -0.991,0.647 -1.4,0.962 0.482,-1.454 1.342,-5.452 0,-1.663 m 5.773,-0.262 c 1.46,-0.158 2.782,0.508 4.199,0.699 -0.21,-0.242 -0.52,-0.453 -0.788,-0.611 1.051,-0.473 1.576,0.35 2.537,0.35 -0.185,-0.248 -0.343,-0.689 -0.525,-0.875 0.614,-0.129 1.213,0.055 1.837,0.088 -0.319,-0.412 -0.231,-0.703 0.263,-0.875 -1.527,-0.354 -1.09,0.216 -2.537,0.541 -0.7,0.177 -1.027,-0.348 -1.924,0.268 -0.354,0.068 -0.55,-0.326 -0.876,-0.283 -0.773,0.322 -1.619,0.428 -2.447,0.304 -0.388,0.306 -0.544,0.507 -1.05,0.483 0.466,-0.385 0.97,-0.965 1.56,-1.234 0.449,-0.204 0.927,0.011 1.327,-0.197 1.033,-0.539 0.851,-1.854 2.183,-1.102 0.768,0.433 0.715,0.387 1.629,0.028 1.327,-0.521 0.917,0.104 2.091,0.265 0.295,0.04 2.224,-0.336 1.658,0.736 -0.329,0.623 -0.885,0.767 -1.373,1.282 -0.351,0.37 -0.549,1.274 -1.031,1.478 -0.741,0.313 -1.46,-0.309 -2.19,0.237 -0.831,0.62 -1.393,-0.475 -2.225,-0.553 -0.962,-0.089 -2.035,0.338 -2.318,-1.029 m -5.335,-3.031 c 0.526,0.014 0.82,0.408 1.083,0.844 0.018,0.93 0.973,1.405 0.991,2.188 0.02,0.813 -0.693,1.178 -0.586,2.08 0.195,1.639 -1.338,3.037 -2.624,3.787 -0.622,0.955 -0.457,1.418 -1.574,2.005 -0.578,-0.001 -0.634,-1.146 -0.812,-1.521 -0.263,-0.555 -0.83,-0.984 -0.85,-1.629 -0.016,-0.506 0.508,-0.808 0.557,-1.312 -0.727,-2.251 0.015,-1.003 0.999,-2.624 0.642,-1.059 -0.166,-1.346 1.382,-1.929 1.148,-0.433 0.424,-1.479 1.434,-1.889 m 51.781,5.742 c -0.541,-0.1 -1.424,-0.729 -2.187,-0.928 -0.884,0.326 -1.534,0.248 -1.977,-0.55 -0.445,-0.804 -1.017,-0.169 -1.673,-0.671 -0.371,-0.283 -1.446,-2.311 -1.361,-2.574 0.373,-1.15 2.236,-0.457 3.087,-0.787 0.123,0.746 1.062,0.559 1.662,0.699 -0.514,-1.94 -2.337,-0.761 -3.761,-0.938 -2.238,0.461 -1.113,1.491 -0.621,2.749 0.585,1.493 1.596,1.426 2.815,2.31 0.622,0.45 1.272,0.323 2.003,0.12 0.54,0.285 1.359,0.974 2.013,0.57 m 2.361,-6.473 c -0.261,0.552 -0.744,0.436 -1.225,0.146 -0.147,-0.089 -0.186,-0.298 -0.119,-0.429 0.242,-0.478 1.039,0.221 1.344,0.283 m -45.658,-0.349 c 0.007,-1.733 1.585,-0.075 0,0 m -3.236,-1.486 c 0.107,0.698 0.061,1.432 -0.175,2.099 -0.445,-0.564 -0.429,-1.758 0.175,-2.099 m 5.598,-0.875 c -0.052,0.373 -0.255,0.704 -0.612,0.787 -0.083,-0.387 0.217,-0.645 0.612,-0.787 m 42.158,-0.285 c 0.689,0.596 0.807,2.537 -0.583,2.101 -0.809,-0.256 -0.365,-2.074 0.583,-2.101 m -45.219,-1.202 c -0.264,1.133 -0.479,2.494 -1.487,3.235 0.071,-0.973 0.721,-2.616 1.487,-3.235 m 29.738,-0.35 c -0.525,0.036 -0.787,-0.22 -0.962,0.263 1.032,0.159 2.779,0.893 1.531,-0.82 -0.493,-0.177 -0.507,0.124 -0.569,0.557 m -20.817,0.612 c 0.719,0.424 1.313,0.273 2.096,0.49 0.959,0.264 1.838,0.749 2.802,0.996 -0.498,-1.243 1.614,0.139 2.012,0.351 -0.178,-1.189 1.264,-0.792 1.837,-1.05 -1.127,-0.067 -2.309,0.24 -3.411,-0.175 0.196,-0.354 0.622,-0.504 1.049,-0.7 -1.011,0.015 -1.936,0.927 -2.886,0.438 0.072,-0.323 0.275,-0.557 0.612,-0.699 -0.615,0.26 -2.787,1.023 -3.264,0.175 -0.734,-1.311 3.475,-1.068 3.486,-1.072 0.749,-0.276 0.626,-0.315 1.347,10e-4 0.742,0.326 1.906,-0.433 2.424,-0.011 0.578,0.979 0.501,0.993 1.604,1.286 0.222,0.193 0.636,0.497 0.6,0.846 -0.091,0.883 -1.044,0.742 -1.643,1.117 -0.41,0.258 -0.733,0.801 -1.231,0.879 -0.489,0.077 -0.902,-0.377 -1.399,-0.303 -1.378,0.208 -0.786,1.095 -2.016,0.084 -0.825,-0.678 -1.663,-0.4 -2.526,-1.18 -0.486,-0.442 -1.289,-0.954 -1.493,-1.473 m 19.068,-1.662 c -0.011,0.353 0.019,0.703 0.087,1.05 -0.687,-0.323 -0.925,0.157 -0.787,0.874 0.064,-0.062 2.788,-1.677 0.7,-1.924 m 6.735,-0.175 0,0.175 0.7,0 c -0.192,-0.154 -0.426,-0.213 -0.7,-0.175 m -8.572,0.087 c -1.168,-0.9 -0.997,0.688 -0.438,0.788 0.061,-0.108 0.09,-0.226 0.087,-0.351 0.563,0.186 1.059,0.443 1.662,0.438 -0.256,-0.631 -1.203,-2.275 -1.311,-0.875 m 10.409,-1.399 c 0.019,0.268 0.136,0.5 0.35,0.699 0.245,-0.439 -0.106,-0.436 -0.35,-0.699 m -1.05,0 c -0.409,0.014 -0.065,0.198 -0.875,0.087 0.422,0.406 1.314,0.613 1.049,1.312 0.914,-0.055 1.499,-0.146 1.05,0.7 0.496,0.092 0.991,0.092 1.487,0 -0.76,-0.974 -1.758,-1.345 -2.711,-2.099 m -29.389,-0.437 c -0.12,0.854 -0.021,1.825 -0.875,2.273 0.021,-0.835 -1.629,-1.557 -0.763,-2.5 0.506,-0.548 1.164,0.002 1.638,0.227 m 22.654,0.088 c 0.156,0.398 0.333,1.006 0.7,1.317 0.765,0.267 1.466,1.076 2.143,1.253 0.544,0.142 2.051,0.239 0.929,1.141 -0.722,0.58 -1.266,0.367 -2.11,0.465 -0.665,0.613 -0.625,0.856 -1.453,0.352 -1.297,-0.793 -0.434,0.184 -1.784,0.02 -1.255,-0.416 -1.021,-0.922 -2.298,-0.531 -1.213,0.37 -1.116,-0.542 -1.033,-1.393 -0.353,-0.807 -0.943,-0.524 -1.654,-0.946 -1.18,-0.7 1.058,-2.035 1.399,-2.728 0.372,0.13 1.357,0.769 1.73,0.751 0.16,-0.007 0.376,-0.782 0.716,-0.664 0.579,0.201 0.617,0.942 1.314,1.26 0.531,0.144 0.905,-0.184 1.401,-0.297 m 2.274,0 c 0.375,-0.954 1.714,1.209 1.541,1.857 -0.215,0.807 -2.876,-2.029 -3.187,-2.271 -0.451,-0.352 -2.277,0.376 -1.996,-0.541 0.536,-1.75 3.177,0.58 3.642,0.955 m -13.469,-1.662 0,0.174 c 0.28,0.119 0.542,0.119 0.787,0 -0.223,-0.156 -0.506,-0.214 -0.787,-0.174 m 21.254,4.81 -0.437,0 0,0.175 c 1.633,0 0.017,-1.354 0.484,-2.005 0.291,-1.037 1.817,1.965 1.856,2.354 -0.636,1.644 -0.153,1.019 -1.991,1.267 -0.381,-0.131 -0.632,-0.131 -0.894,-0.479 -0.743,-0.986 -1.438,0.149 -2.375,-0.438 -0.65,-1.215 -1.413,-0.453 -2.099,-1.4 -0.318,-1.248 -0.332,-1.896 -1.262,-2.908 -0.34,-0.369 -0.8,-0.689 -0.28,-1.147 0.427,-0.378 1.412,0.056 1.837,0.171 1.307,-0.604 1.631,-0.324 2.711,0.432 0.516,0.24 1.101,0.075 1.457,0.545 0.536,0.704 1.056,2.491 0.993,3.433 m -22.829,-5.86 c -0.996,1.782 -2.902,2.739 0.875,2.187 -0.899,-0.014 -1.006,-0.131 -0.875,-0.787 -0.305,0.239 -0.626,0.327 -0.962,0.262 0.442,-0.436 1.146,-1.315 0.962,-1.662 m 1.312,-0.7 c -0.341,0.498 -0.586,1.069 -0.7,1.662 0.206,0.002 0.437,-0.074 0.612,-0.175 -0.162,-0.544 0.386,-1.261 0.088,-1.487 m -13.382,7.347 c 0.42,-0.145 0.789,-0.477 1.137,-0.787 0.584,-0.286 1.093,0.063 1.662,-0.438 -0.377,0.061 -0.755,0.09 -1.137,0.088 0.357,-1.66 1.67,-0.996 2.624,-1.75 -2.19,0.145 -0.107,-1.114 0.7,-1.313 -0.842,-0.285 -0.495,-0.398 -0.263,-1.225 -0.314,0.427 -1,1.211 -0.875,0 -0.279,0.41 -0.547,2.362 -1.225,2.362 -0.732,0 0.233,-3.146 0.35,-3.499 1.104,0.693 1.395,-0.167 2.361,-0.649 0.809,-0.405 1.605,0.044 1.451,0.938 -0.24,1.393 0.134,2.776 -1.398,3.573 -0.391,0.822 -0.441,1.314 -1.385,1.656 -0.577,0.207 -0.777,0.072 -1.021,0.606 -0.307,0.67 -0.86,0.711 -1.521,0.878 -1.273,0.322 -1.541,1.07 -1.891,-0.236 -0.542,-2.026 2.157,-2.229 0.431,-0.204 m 15.831,-7.609 c -0.094,0.1 -0.152,0.217 -0.175,0.35 0.188,-0.057 0.261,-0.182 0.175,-0.35 m 6.385,1.662 c 0.272,-0.178 0.765,-1.387 1.295,-0.92 0.286,0.252 -0.341,1.459 0.629,0.744 0.06,1.582 -3.395,0.212 -3.271,-1.135 0.061,-0.658 0.937,-1.166 1.518,-0.786 0.712,0.468 -0.38,1.501 -0.171,2.097 m -2.099,-2.275 c 0.329,0.521 1.386,2.579 1.064,3.063 -0.285,0.428 -1.343,-0.188 -1.721,-0.142 -0.693,0.087 -1.131,0.942 -1.52,1.431 -1.024,1.283 -0.308,1.877 1.117,2.23 0.296,0.423 -0.132,0.855 0.064,1.378 0.482,0.967 1.093,0.968 1.952,0.759 0.842,-0.206 0.601,-0.15 1.247,0.342 0.714,0.543 1.226,0.34 2.082,0.094 0.595,0.061 1.115,0.777 1.795,0.419 0.465,-0.246 0.7,-0.593 1.181,-0.772 1.413,0.207 2.159,-1.403 3.315,-0.928 0.407,0.166 0.399,0.865 0.883,1.095 1.565,0.438 1.454,-0.712 2.537,0.917 -1.372,-0.363 -2.162,0.19 -3.467,0.393 -1.011,0.156 -2.413,-0.109 -3.18,0.569 1.011,-0.304 3.014,-0.068 1.574,1.312 0.625,-0.624 1.358,-1.021 2.132,-1.441 1.452,-0.792 2.366,-0.033 3.816,-0.479 0.555,0.431 1.394,0.483 1.885,0.9 0.489,0.908 0.755,2.136 1.876,2.072 0.545,0.378 1.085,0.853 1.662,1.223 0.976,0.178 1.071,-0.213 1.352,0.829 0.179,0.665 -0.023,1.479 0.123,1.97 0.436,0.729 0.87,1.084 0.539,1.924 -0.673,-0.425 -1.017,-1.525 -1.837,-1.574 0.475,0.699 0.919,1.42 1.448,2.081 0.502,0.629 0.538,1.676 1.351,1.331 -0.065,0.471 0.147,0.773 0.612,0.874 -0.191,0.355 -0.346,0.759 -0.437,1.138 0.4,-0.046 0.75,0.07 1.049,0.35 -0.387,-0.813 0.102,-1.705 0.788,-2.188 -0.18,0.529 0.269,1.199 -0.35,1.313 0.09,0.673 0.143,0.381 0.262,0.699 0.222,-0.082 0.426,-0.199 0.612,-0.35 -0.138,0.764 -0.4,1.471 -1.137,0.613 0.451,2.205 1.213,-0.26 1.749,-0.088 -0.281,1.168 -0.35,1.74 -1.399,2.559 -0.277,0.535 -0.397,0.904 -0.304,1.553 -0.192,0.453 -0.68,0.703 -0.95,1.146 -0.927,1.522 0.363,1.385 0.466,2.439 0.105,1.068 -1.613,1.281 -0.343,2.449 0.821,0.756 0.613,1.701 1.305,2.623 0.489,0.412 1.26,0.426 1.783,0.789 0.202,1.033 1.061,1.243 1.883,1.75 0.351,0.577 0.239,1.323 0.216,1.988 -0.042,1.212 0.06,4.559 -0.646,5.182 -0.126,-0.736 -0.261,-1.477 -0.261,-2.228 0,-0.969 0.569,-1.624 0.297,-2.61 -0.31,-1.121 -1.236,-1.641 -1.699,-2.597 -1.134,0.87 -1.686,3.847 -0.064,4.648 0.261,0.13 0.708,0.026 0.909,0.218 0.386,0.366 0.39,2.212 0.38,2.656 -0.999,-0.702 -1.88,-1.951 -2.948,-0.418 -0.565,0.811 0.097,1.535 -0.698,2.266 -0.087,0.515 0.279,1.361 0.063,1.738 -0.395,0.691 -1.494,1.319 -0.852,2.219 0.495,0.693 1.076,0.749 1.372,1.63 0.045,0.493 -0.551,1.204 -0.7,1.662 0.606,-0.58 1.158,-1.318 1.662,-2.012 -0.432,-0.158 -2.01,-1.231 -2.13,-1.749 -0.091,-0.393 0.117,-0.623 0.293,-0.95 0.75,-0.603 1.009,-0.639 0.722,-1.54 -0.161,-0.505 0.249,-2.596 0.572,-3.113 0.489,-0.785 1.074,-0.657 1.615,0.018 0.296,0.902 1.278,1.241 1.45,2.088 -0.289,1.146 -0.813,1.637 0.104,2.536 -0.114,0.782 -0.398,1.255 -1.225,1.487 0.021,-0.1 0.093,-0.682 0.087,-0.612 -1.244,1.079 0.17,1.65 -1.148,2.472 -2.197,1.369 -2.763,4.178 -4.713,5.662 -0.145,-0.869 -0.103,-1.774 0.138,-2.623 -0.271,-0.665 -0.378,-1.385 -0.313,-2.1 -1.152,0.76 -4.258,3.345 -3.121,4.982 1.913,2.755 -3.201,0.734 -4.139,1.204 -0.379,0.311 -0.997,1.646 -1.533,1.503 -0.488,-0.13 -0.708,-0.44 -1.266,-0.27 -0.763,0.598 -1.188,2.908 -2.1,2.839 -0.685,-0.052 -0.734,-0.446 -0.524,-1.075 -1.542,0.087 -3.619,-0.071 -4.287,1.705 -0.659,1.755 -2.424,5.543 -4.897,4.506 0.97,-1.379 3.526,-2.488 2.29,-4.436 -0.816,-1.284 -2.517,-0.897 -3.799,-0.863 -1.605,0.043 -3.031,-0.209 -4.594,-0.524 -4.898,-0.987 -3.592,4.356 0.331,4.773 -0.789,-0.846 -2.092,-1.225 -2.895,-2.274 -0.422,-0.725 -0.468,-2.035 0.62,-2.031 1.211,0.005 3.049,-0.371 4.031,0.621 0.429,0.433 0.093,1.139 0.692,1.322 0.066,-1.322 0.041,-1.98 0.875,-0.611 0.134,-1.158 0.651,-0.851 0.962,0.175 0.371,-0.027 0.228,-0.761 0.612,-1.05 0,0.416 0.059,0.824 0.175,1.225 0.491,-0.307 0.07,-0.94 0.525,-1.225 0.162,0.742 -0.272,1.664 0.087,2.012 -0.345,0.554 -0.842,1.029 -1.049,1.574 0.603,-0.506 1.351,-1.127 2.099,-1.399 0.358,0.995 -1.491,2.562 -2.362,2.638 -0.32,0.028 -1.116,-0.684 -1.419,-0.817 -1.317,-0.581 -1.891,-1.007 -2.691,-2.257 1.543,0.268 3.172,0.662 4.723,0.262 -1.442,-0.229 -6.298,-1.921 -7.26,-0.438 1.121,0 0.829,-0.378 1.462,0.535 0.486,0.701 1.076,0.546 1.597,1.11 0.798,0.863 -0.268,1.075 -0.697,1.766 0.334,0.018 0.558,0.203 0.612,0.524 -1.374,-0.329 -3.052,-0.227 -4.326,-0.813 -1.001,-0.462 -1.233,-1.062 -2.146,-0.935 0.513,-0.508 0.119,-2.095 -0.171,-2.752 -0.612,-1.387 -0.129,-1.625 -1.491,-2.672 -0.603,-1.046 -1.526,-2.477 -2.974,-2.217 -0.679,-0.438 -0.878,-1.267 -1.636,-1.693 -1.591,-0.896 -1.813,0.684 -2.825,1.296 -0.7,-0.059 -1.582,0.057 -1.793,0.865 -0.267,1.017 1.052,1.182 1.006,2.012 -0.788,-0.362 -1.838,-0.93 -2.482,-1.575 -0.489,-1.19 -1.562,-1.71 -2.004,-2.93 -0.281,-0.773 1.124,-1.601 1.259,-2.533 0.2,-1.385 -0.856,-2.447 -1.496,-3.545 -0.208,0.484 -0.536,0.856 -0.885,1.275 -0.709,0.849 -0.584,2.445 -1.651,1.436 0.284,0.857 0.571,1.725 1.023,2.512 0.376,0.654 1.077,1.072 1.419,1.691 0.269,0.486 -0.226,0.686 -0.694,0.694 -0.071,-0.206 -0.231,-0.366 -0.437,-0.438 -0.148,1.116 0.68,1.253 1.616,1.235 0.722,-0.015 0.854,0.282 1.276,0.898 0.724,1.057 0.707,1.61 2.004,2.064 -0.194,0.171 -0.311,0.375 -0.35,0.612 -0.898,-0.451 -1.561,-1.091 -2.274,-1.661 0.118,0.895 1.107,1.251 0.612,2.012 1.307,-0.383 2.669,0.625 3.499,1.574 1.475,-0.537 -1.196,0.494 -0.962,0.438 l 0.875,0 c -1.003,0.559 0.268,1.248 0.262,2.273 0.388,-0.302 2.36,-1.357 1.947,0.088 -0.445,1.559 -4.582,-0.291 -3.784,-2.274 -0.587,0.179 -1.109,0.03 -1.574,0.263 0.72,0.031 0.755,0.43 0.817,1.049 0.441,0.894 1.328,1.498 2.286,1.715 1.012,0.229 2.069,0.096 2.693,-0.771 0.74,-1.029 1.51,-0.738 2.689,-0.418 -0.04,-0.431 -0.14,-0.984 -0.175,-1.313 0.688,0.402 3.471,1.24 4.024,0.35 0.142,0.515 -0.094,0.898 -0.7,0.875 0.029,0.349 0.204,0.641 0.525,0.875 -0.626,-0.062 -2.675,0.099 -2.187,-1.137 -0.442,-0.147 -0.925,0.217 -1.137,0.524 0.197,0.27 0.431,0.503 0.7,0.7 -0.24,0.077 -0.236,0.064 -0.437,0.087 1.396,1.591 -0.906,1.462 -0.438,0.087 -0.538,-0.006 -0.916,0.33 -0.77,0.832 0.089,0.306 0.394,0.545 0.682,0.693 1.329,0.188 2.362,-0.287 3.576,0.637 0.863,0.658 -1.682,1.254 -0.908,1.858 0.774,0.604 2.6,0.998 3.368,0.354 -0.769,0.019 -1.938,0.301 -1.137,-0.7 -0.422,0.173 -0.86,0.289 -1.312,0.35 -0.126,-2.721 2.753,-1.104 3.617,-0.025 1.847,2.305 3.349,-0.9 4.999,-1.399 0.639,-0.193 1.407,1.438 1.733,1.836 1.14,1.052 2.697,0.782 3.92,0.044 0.423,-0.257 1.095,-1.227 1.629,-0.826 0.815,0.613 1.054,1.957 2.383,1.598 -1.081,-0.171 -2.698,-1.771 -1.05,-2.449 0.183,0.665 1.995,3.063 2.449,2.012 -1.083,-0.147 -2.042,-1.142 -2.012,-2.274 0.674,0.285 2.559,2.069 3.324,1.806 0.792,-0.274 0.496,-1.107 -0.091,-1.4 -1.219,-0.607 -3.063,0.285 -4.021,-1.386 -0.186,-0.325 0.055,-0.204 0.089,-0.491 0.281,-0.186 0.589,-0.275 0.925,-0.268 0.404,-0.287 0.148,-0.865 0.649,-1.234 -0.031,0.453 0.179,0.771 0.612,0.875 -0.135,-1.635 1.214,-1.674 2.21,-0.926 2.086,1.566 4.85,1.471 7.324,1.362 -1.23,-0.375 -2.019,0.011 -3.264,-0.226 -1.194,-0.227 -3.14,-0.133 -1.771,-1.309 0.347,-0.298 0.55,-1.023 1.01,-1.156 0.319,-0.093 0.911,0.456 1.402,0.439 1.139,-0.034 1.823,0.318 2.878,-0.35 0.333,0.049 0.363,-0.045 0.602,0.283 0.245,0.336 0.457,0.987 0.628,1.373 0.069,0.154 0.583,0.105 0.628,0.422 -0.064,0.448 -0.446,0.481 -0.803,0.643 -0.285,0.262 -0.549,0.542 -0.792,0.842 -0.838,0.197 -1.374,-0.179 -2.2,0.158 -1.448,0.593 -2.146,-0.953 -3.655,0.074 -1.379,0.167 -1.774,-2.754 -3.761,-2.419 0.611,0.631 1.594,0.788 2.181,1.695 0.214,0.331 0.398,0.819 0.793,1.017 0.714,0.145 1.633,-0.373 2.203,-0.23 0.972,1.618 2.201,0.345 3.524,0.39 1.217,0.041 2.328,-0.728 3.207,-1.54 0.548,-0.507 0.337,-0.787 0.134,-1.266 -0.991,-0.477 -1.214,-1.733 -2.332,-1.895 -0.564,-0.082 -1.341,0.881 -1.759,0.342 -0.518,-0.681 0.591,-1.182 0.966,-1.388 0.521,-0.329 0.375,-0.451 0.858,-0.503 0.794,0.882 2.204,0.111 3.205,0.393 1.571,0.443 1.86,-0.932 3.111,-1.035 1.273,-0.105 1.223,-0.646 2.282,-1.355 1.599,-1.07 2.013,-5.102 -0.803,-4.162 -0.282,0.095 -1.595,0.631 -1.492,-0.215 0.091,-0.748 0.465,-1.916 1.153,-2.318 0.018,0.793 -0.621,1.487 0.525,1.487 1.014,-0.39 1.939,-0.985 2.711,-1.749 1.446,-0.035 2.217,-0.496 3.144,-1.575 0.738,-1.544 -1.377,-0.809 -1.804,-0.448 -1.034,0.873 -2.224,3.264 -3.739,3.16 1.529,-2.154 1.568,-4.297 4.032,-5.813 1.125,-0.692 1.516,-1.547 2.915,-1.171 1.102,-0.444 1.058,-1.433 1.837,-2.073 1.116,-0.202 2.266,-1.007 2.136,-2.247 -0.041,-0.39 -0.4,-0.981 -0.331,-1.335 0.102,-0.525 0.56,-0.875 0.684,-1.443 0.004,-1.154 -1.066,-1.234 -1.931,-1.009 -1.028,0.267 -1.634,-0.318 -2.745,0.046 0.36,-1.513 1.709,-1.84 2.886,-2.502 1.388,-1.14 0.357,-2.625 0.612,-4.058 -0.757,0.642 -2.077,0.546 -2.449,1.661 0.844,-0.436 1.858,-1.225 2.274,0.264 -1.075,0.273 -1.344,0.25 -2.449,-0.088 -0.489,0.809 -0.56,1.584 -0.12,2.449 -0.133,0.66 -1.231,1.646 -1.629,2.361 -0.151,-1.776 0.083,-3.986 0.549,-5.728 0.317,-1.185 0.751,-2.333 1.075,-3.517 0.366,-1.332 0.803,-0.365 1.349,-1.34 -0.641,0.051 -2.486,-0.863 -1.662,-1.746 0.522,-0.835 2.125,0.689 2.099,1.396 1.453,-0.915 0.748,-3.514 0.7,-4.898 -0.69,0.248 -2.313,1.785 -2.703,2.393 -0.661,1.029 -0.536,1.832 -0.075,2.943 -0.048,0.369 -0.182,0.705 -0.401,1.007 -0.74,0.515 -0.546,1.118 -0.932,1.88 -1.436,-2.414 -1.524,-6.576 -1.05,-9.271 -0.773,0.055 -1.222,0.094 -1.471,-0.963 0.452,-1.228 -0.288,-1.762 -0.793,-2.791 -0.269,-0.551 -1.001,-0.615 -1.184,-1.232 -0.173,-0.588 0.558,-1.119 0.106,-1.656 -1.48,-1.254 -0.352,-1.236 -0.855,-2.805 -0.389,0.277 -0.613,0.863 -0.787,1.4 -1.339,-0.938 -0.398,-1.974 -0.788,-3.324 0.363,-1.623 -0.551,-1.809 -1.021,-3.205 -0.346,-1.028 -0.232,-2.594 -0.834,-3.484 -0.379,-0.559 -1.265,-0.719 -1.818,-1.008 -0.321,1.587 -0.743,4.241 1.574,4.516 1.352,1.144 0.74,2.642 1.312,4.145 -0.929,0.169 -0.871,-2.634 -1.924,-3.148 0.103,2.078 -1.707,-1.25 -1.945,-1.762 -0.839,-1.811 -0.851,-0.41 -1.903,-0.076 1.105,-3.53 -0.64,-5.855 -3.177,-8.057 -1.498,-1.299 -2.955,-0.904 -4.607,-0.885 -1.073,-0.473 -2.514,-0.143 -2.537,1.157 -0.77,-0.541 -1.552,-1.063 -2.325,-1.599 -0.333,-0.43 -0.279,-1.005 -0.589,-1.463 -1.045,-1.155 -2.778,-1.012 -4.168,-0.791 m -6.123,2.011 c 0.321,-0.204 2.363,-3.881 3.033,-1.92 0.128,0.377 -0.158,0.592 -0.357,0.894 -0.381,0.581 0.15,1.101 -0.224,1.624 -0.27,0.379 -0.945,0.416 -1.285,0.58 -0.241,0.171 -0.191,0.574 -0.37,0.795 -0.51,0.631 -1.913,0.375 -2.611,0.713 -0.767,0.369 -1.718,0.482 -2.209,-0.236 -0.431,-1.691 0.867,-1.377 0.648,-2.975 0.614,-0.778 1.163,-0.55 1.903,-1.242 0.35,-0.212 0.364,-1.168 0.963,-0.512 1.039,1.139 0.722,0.563 0.509,2.279 m -20.117,11.372 c -0.426,-2.021 2.545,-4.443 2.974,-6.473 -1.618,-0.697 -2.022,2.467 -2.711,2.887 -0.037,-0.962 0.307,-2.094 -0.875,-2.187 -0.265,1.888 -0.434,3.788 -0.621,5.687 -0.117,1.184 -0.703,1.055 -0.866,2.011 -1.255,-1.306 -3.568,-5.298 -4.728,-1.706 -0.21,0.65 -1.472,0.663 -1.866,1.27 -0.793,1.222 -0.12,1.229 -1.578,2.21 -0.411,0.694 0.09,1.269 0.038,1.987 -0.785,1.615 0.299,2.699 0.924,4.199 0.659,1.582 -0.44,3.863 -0.721,5.459 -0.354,2.016 -0.625,4.048 -0.815,6.086 -0.132,-0.398 -0.243,-1.035 -0.574,-1.399 -0.434,-0.226 -0.928,-0.538 -0.939,-1.091 -0.011,-0.534 0.533,-0.6 0.849,-0.947 0.674,-0.745 0.378,-1.584 0.131,-2.453 -0.21,-0.738 -0.635,-2.249 -1.354,-2.641 -0.376,-0.205 -1.076,1.436 -1.223,1.744 -1.177,2.464 0.869,3.588 1.538,5.738 -0.495,-0.104 -0.831,-0.353 -1.312,-0.351 0.774,1.095 2.155,0.784 2.529,2.452 0.284,1.266 0.849,2.176 0.883,3.583 -0.813,-0.884 -1.808,-1.678 -2.745,-2.381 -0.617,-0.464 -1.594,-0.417 -2,0.282 -0.112,0.191 -0.084,0.484 -0.153,0.699 0.342,1.125 -0.104,1.48 -0.5,2.537 -0.002,0.52 0.059,0.622 0.404,1.111 0.621,0.88 0.125,0.776 0.216,1.688 0.083,0.834 1.081,0.982 1.5,1.576 0.45,0.637 0.209,0.924 1.004,1.35 1.386,-0.232 2.619,1.565 3.388,2.484 1.218,1.457 1.695,3.416 2.298,5.173 -1.403,-0.323 0.474,1.145 0.612,1.312 -1.723,0.348 -3.061,-1.598 -2.904,-3.061 -0.438,-2.237 -1.794,-1.969 -3.154,-3.062 -0.756,0.231 -0.574,2.739 -0.159,3.501 0.458,0.84 1.34,1.246 2.28,1.076 0.897,0.348 1.802,1.086 2.6,1.644 0.945,0.661 4.178,3.05 1.256,3.346 -1.047,0.106 -1.277,0.217 -1.836,1.05 -0.574,0.854 0.67,1.459 0.892,2.11 0.327,0.962 0.159,1.671 1.199,2.265 1.088,0.316 1.463,0.292 2.509,0.834 0.945,0.491 1.405,-0.402 2.214,-0.188 0.95,0.547 1.167,1.244 2.362,0.98 -0.825,-0.742 -2.119,-1.655 -3.273,-1.125 -1.082,0.496 -1.644,-0.758 -2.669,-0.881 -1.225,-0.146 -1.257,-0.666 -1.586,-1.792 -0.203,-0.692 -1.435,-1.536 -1.04,-2.218 0.458,-0.793 0.838,-0.381 1.746,-0.514 1.18,-0.328 1.087,-1.068 2.034,0.408 0.832,0.414 0.767,-0.004 1.727,-0.088 -0.785,-0.389 -1.042,-0.959 -1.137,-1.924 -0.187,0.141 -0.274,0.345 -0.263,0.612 -0.901,-0.439 -1.7,-1.165 -2.099,-2.1 0.576,0.482 0.954,-0.177 1.05,-0.437 0.112,0.691 0.04,1.334 0.437,1.661 0,-1.479 0.012,-1.487 -0.395,-2.407 -0.545,-0.8 -1.343,-1.591 -1.749,-2.403 -0.274,-0.548 0.408,-0.714 -0.185,-1.312 -0.426,-0.428 -0.997,-0.247 -1.263,-0.963 -0.136,-0.529 0.558,-0.891 0.498,-1.399 -0.938,-1.624 -0.199,-1.358 0.346,-2.755 0.25,-0.638 -0.396,-1.162 0.154,-1.646 0.96,-0.845 1.753,1.053 2.419,1.468 1.98,-0.304 1.227,0.809 1.571,1.884 0.196,0.613 0.695,0.8 0.825,1.4 0.038,0.176 -0.352,0.428 -0.34,0.611 0.061,0.219 0.512,1.217 0.416,1.4 -0.136,0.258 -0.524,0.488 -0.729,0.701 -0.171,0.356 0.173,0.703 0.104,1.092 -0.029,0.165 -0.173,0.608 -0.446,0.522 -0.734,-0.229 -0.247,-2.439 -0.087,-2.929 -0.183,0.147 -0.384,0.338 -0.525,0.525 -0.434,-1.07 -0.248,-1.914 0.175,-2.975 -0.409,-0.047 -0.769,0.393 -0.962,0.7 -0.27,-0.827 0.013,-1.205 0.087,-2.012 -0.241,0.02 -0.313,0.186 -0.437,0.351 -0.301,-0.418 -0.504,-1.557 -1.137,-1.4 0.169,0.459 0.315,0.926 0.437,1.4 -0.299,-0.176 -0.62,-0.293 -0.962,-0.351 0.51,0.86 1.311,1.36 1.574,2.362 -0.441,-0.188 -1.558,-0.979 -1.924,-0.438 1.153,0.328 2.092,1.211 2.449,2.361 -0.55,-0.148 -0.785,-0.344 -1.312,-0.35 0.761,0.846 1.543,0.978 1.809,2.189 0.187,0.855 0.246,1.953 0.728,2.621 0.351,-1.852 2.392,-3.396 1.856,-5.336 0.129,-0.944 0.646,-0.935 0.07,-1.811 -0.545,-0.83 -0.782,-2.148 -1.415,-2.803 -0.503,-0.52 -0.964,-0.395 -1.562,-0.703 -0.457,-0.568 -1.091,-0.988 -1.805,-1.151 -1.333,-0.306 -2.396,0.994 -2.2,-1.489 0.056,-0.107 0.091,-0.182 0.175,-0.263 1.095,-0.024 1.683,-0.346 2.177,-1.335 0.609,-1.222 0.205,-2.477 0.166,-3.741 -0.562,0.933 -1.966,0.911 -2.862,1.597 -0.936,-0.263 -0.126,-2.428 0.196,-2.996 -0.02,-0.758 0.022,-1.752 0.529,-2.361 0.69,-0.829 1.634,-0.395 2.502,-0.813 0.637,-0.308 0.752,-0.494 0.83,-1.11 0.538,-0.527 1.2,-0.637 1.414,-1.475 0.182,-0.712 0.792,-1.021 0.923,-1.676 0.132,-0.662 -0.07,-1.326 0.011,-2.009 0.102,-0.855 -0.053,-1.16 -0.832,-1.659 -0.465,-0.158 -1.879,-0.549 -2.316,-0.227 -0.481,1.648 -0.541,1.225 -1.533,1.895 -0.601,0.407 -0.728,0.14 -0.946,1.003 -0.147,0.581 -0.097,0.964 -0.715,1.085 0.812,-2.033 2.051,-3.86 2.974,-5.86 2.308,2.078 4.05,-1.03 4.724,-2.887 -1.299,-0.275 -2.414,0.163 -3.626,0.466 0.093,-0.884 1.464,-1.495 2.262,-1.828 1.158,-0.482 0.391,-0.445 0.979,-1.139 0.348,-0.412 1.101,0.344 1.26,0.445 0.534,0.139 0.73,0.135 1.32,-0.02 1.001,-0.263 1.228,0.277 2.217,0.166 0.862,-0.095 1.158,-0.51 2.047,-0.459 0.87,0.051 1.373,-0.283 1.97,-0.912 0.511,-0.537 2.257,-1.403 2.08,-2.324 -0.284,-1.475 -2.852,-1.647 -4.124,-1.543 -1.081,0.58 -1.518,0.817 -2.405,-0.068 -0.178,-0.179 -0.186,-0.342 -0.045,-0.554 0.632,-0.96 2.878,-1.757 3.896,-2.269 2.025,-1.018 3.208,-1.727 4.909,0.068 0.709,0.749 1.249,0.92 2.305,0.966 0.376,0.309 0.739,0.718 1.224,0.815 0.568,0.116 1.195,-0.253 1.662,-0.551 0.465,0.139 1.238,0.285 1.703,0.081 0.541,-0.236 2.071,-1.109 2.467,-1.509 0.305,-0.309 0.288,-0.73 0.132,-1.116 -0.39,-0.964 -1.485,-0.708 -1.966,-1.747 -0.851,-0.479 -1.287,0.084 -2.162,-0.027 -1.336,-0.695 -1.415,-0.123 -2.755,-0.109 -0.426,0.005 -0.945,-0.156 -0.921,-0.646 0.045,-0.92 1.908,0.017 2.284,-0.131 2.599,-1.02 5.127,-0.071 7.074,-2.676 0.477,-1.289 1.418,-3.852 -1.026,-3.492 -0.883,0.129 -1.124,0.305 -1.973,0.014 -0.655,-0.227 -0.951,-0.157 -1.546,0.133 -0.412,0.147 -0.894,0.781 -1.422,0.996 -1.396,0.57 -0.679,1.445 -1.759,2.375 -0.101,0.195 -0.113,1.016 -0.347,1.08 -1.449,0.406 -1.146,-1.355 -1.261,-2.395 -0.196,-1.768 -1.881,-1.822 -3.073,-0.621 -0.672,0.678 -1.455,-0.108 -2.076,0.531 -0.413,0.424 -0.478,1.064 -0.966,1.389 -0.741,0.492 -1.646,0.566 -1.779,1.652 0.142,0.732 0.758,1.286 0.092,1.893 -0.517,0.471 -0.995,0.42 -1.02,1.212 -0.077,2.262 -3.946,3.76 -5.024,5.739" id="path18002" inkscape:connector-curvature="0"/>
        </g>
      </g>
    </g> </svg>