<svg xmlns:dc="http://purl.org/dc/elements/1.1/" xmlns:cc="http://creativecommons.org/ns#" xmlns:rdf="http://www.w3.org/1999/02/22-rdf-syntax-ns#" xmlns:svg="http://www.w3.org/2000/svg" xmlns="http://www.w3.org/2000/svg" xmlns:sodipodi="http://sodipodi.sourceforge.net/DTD/sodipodi-0.dtd" xmlns:inkscape="http://www.inkscape.org/namespaces/inkscape" version="1.1" height="1216.19" width="2178.18" viewBox="-.2 -236 2178.99 1216.19" id="deck" ><g xmlns="http://www.w3.org/2000/svg" id="_x33__x5F_spade" class="card">
      <g id="g18049">
        <g id="base_41_">
          <path d="m 335.025,729.279 c 0,3.778 3.089,6.867 6.867,6.867 l 152.788,0 c 3.769,0 6.857,-3.089 6.857,-6.867 l 0,-228.315 c 0,-3.778 -3.089,-6.867 -6.857,-6.867 l -152.788,0 c -3.778,0 -6.867,3.089 -6.867,6.867 l 0,228.315 z" id="path18052" inkscape:connector-curvature="0" style="fill:#ffffff;stroke:#000000;stroke-width:2.5"/>
        </g>
      </g>
      <g id="g18054">
        <g id="n_3_6_">
          <text transform="matrix(0.5339,0,0,1,341.0233,530.2361)" font-size="40" id="text18057" style="font-size:40px;font-family:CopperplateGothic-Bold">3</text>
        </g>
      </g>
      <g id="g18059">
        <g id="n_3_7_">
          <text transform="matrix(-0.5339,0,0,-1,496.5389,699.0095)" font-size="40" id="text18062" style="font-size:40px;font-family:CopperplateGothic-Bold">3</text>
        </g>
      </g>
      <g id="g18064">
        <g id="spade_7_">
          <path d="m 344.752,552.158 c 1.669,0 2.549,-1.779 3.009,-3.559 0.46,-1.78 0.5,-3.559 0.5,-3.559 l 0.85,-0.011 c 0,0 0.159,7.128 3.498,7.128 l -7.857,0 z" id="path18067" inkscape:connector-curvature="0"/>
          <path d="m 341.923,545.03 c 0.01,-3.469 5.218,-5.987 6.747,-8.727 1.529,2.749 6.738,5.269 6.748,8.727 0,1.64 -1.51,2.97 -3.379,2.97 -1.859,0 -3.369,-1.33 -3.369,-2.97 0,1.64 -1.509,2.97 -3.379,2.97 -1.869,0 -3.368,-1.33 -3.368,-2.97 z" id="path18069" inkscape:connector-curvature="0"/>
        </g>
      </g>
      <g id="g18071">
        <g id="spade_8_">
          <path d="m 492.811,677.089 c -1.669,0 -2.549,1.779 -3.009,3.559 -0.46,1.78 -0.5,3.559 -0.5,3.559 l -0.85,0.01 c 0,0 -0.16,-7.127 -3.498,-7.127 l 7.857,0 z" id="path18074" inkscape:connector-curvature="0"/>
          <path d="m 495.641,684.216 c -0.01,3.469 -5.218,5.988 -6.747,8.727 -1.53,-2.749 -6.738,-5.268 -6.748,-8.727 0,-1.64 1.51,-2.969 3.379,-2.969 1.859,0 3.369,1.329 3.369,2.969 0,-1.64 1.509,-2.969 3.378,-2.969 1.869,0 3.369,1.329 3.369,2.969 z" id="path18076" inkscape:connector-curvature="0"/>
        </g>
      </g>
      <g id="g18078">
        <g id="spade_9_">
          <path d="m 428.185,675.23 c -4.007,0 -6.118,4.271 -7.222,8.541 -1.104,4.27 -1.199,8.541 -1.199,8.541 l -2.039,0.023 c 0,0 -0.384,-17.105 -8.397,-17.105 l 18.857,0 z" id="path18081" inkscape:connector-curvature="0"/>
          <path d="m 434.974,692.336 c -0.023,8.325 -12.523,14.371 -16.193,20.944 -3.671,-6.598 -16.17,-12.644 -16.194,-20.944 0,-3.935 3.623,-7.125 8.109,-7.125 4.462,0 8.085,3.19 8.085,7.125 0,-3.935 3.622,-7.125 8.108,-7.125 4.486,0 8.085,3.19 8.085,7.125 z" id="path18083" inkscape:connector-curvature="0"/>
        </g>
      </g>
      <g id="g18085">
        <g id="spade_10_">
          <path d="m 409.377,626.78 c 4.006,0 6.117,-4.271 7.221,-8.541 1.104,-4.27 1.199,-8.54 1.199,-8.54 l 2.04,-0.024 c 0,0 0.384,17.105 8.396,17.105 l -18.856,0 z" id="path18088" inkscape:connector-curvature="0"/>
          <path d="m 402.587,609.675 c 0.024,-8.325 12.523,-14.37 16.194,-20.944 3.67,6.598 16.17,12.644 16.193,20.944 0,3.935 -3.622,7.125 -8.108,7.125 -4.463,0 -8.085,-3.19 -8.085,-7.125 0,3.935 -3.623,7.125 -8.109,7.125 -4.486,0 -8.085,-3.191 -8.085,-7.125 z" id="path18090" inkscape:connector-curvature="0"/>
        </g>
      </g>
      <g id="g18092">
        <g id="spade_11_">
          <path d="m 409.377,549.867 c 4.006,0 6.117,-4.271 7.221,-8.541 1.104,-4.27 1.199,-8.54 1.199,-8.54 l 2.04,-0.024 c 0,0 0.384,17.105 8.396,17.105 l -18.856,0 z" id="path18095" inkscape:connector-curvature="0"/>
          <path d="m 402.587,532.761 c 0.024,-8.325 12.523,-14.37 16.194,-20.944 3.67,6.598 16.17,12.644 16.193,20.944 0,3.935 -3.622,7.125 -8.108,7.125 -4.463,0 -8.085,-3.19 -8.085,-7.125 0,3.935 -3.623,7.125 -8.109,7.125 -4.486,0 -8.085,-3.19 -8.085,-7.125 z" id="path18097" inkscape:connector-curvature="0"/>
        </g>
      </g>
    </g> </svg>