<svg xmlns:dc="http://purl.org/dc/elements/1.1/" xmlns:cc="http://creativecommons.org/ns#" xmlns:rdf="http://www.w3.org/1999/02/22-rdf-syntax-ns#" xmlns:svg="http://www.w3.org/2000/svg" xmlns="http://www.w3.org/2000/svg" xmlns:sodipodi="http://sodipodi.sourceforge.net/DTD/sodipodi-0.dtd" xmlns:inkscape="http://www.inkscape.org/namespaces/inkscape" version="1.1" height="1216.19" width="2178.18" viewBox="-.2 -236 2178.99 1216.19" id="deck" ><g xmlns="http://www.w3.org/2000/svg" id="_x34__x5F_spade" class="card">
      <g id="g18100">
        <g id="base_42_">
          <path d="m 502.538,729.279 c 0,3.778 3.089,6.867 6.867,6.867 l 152.788,0 c 3.769,0 6.857,-3.089 6.857,-6.867 l 0,-228.315 c 0,-3.778 -3.089,-6.867 -6.857,-6.867 l -152.788,0 c -3.778,0 -6.867,3.089 -6.867,6.867 l 0,228.315 z" id="path18103" inkscape:connector-curvature="0" style="fill:#ffffff;stroke:#000000;stroke-width:2.5"/>
        </g>
      </g>
      <g id="g18105">
        <g id="n_4_6_">
          <text transform="matrix(0.5339,0,0,1,508.536,530.2361)" font-size="40" id="text18108" style="font-size:40px;font-family:CopperplateGothic-Bold">4</text>
        </g>
      </g>
      <g id="g18110">
        <g id="n_4_7_">
          <text transform="matrix(-0.5339,0,0,-1,664.0526,699.0095)" font-size="40" id="text18113" style="font-size:40px;font-family:CopperplateGothic-Bold">4</text>
        </g>
      </g>
      <g id="g18115">
        <g id="spade_12_">
          <path d="m 512.265,552.158 c 1.669,0 2.549,-1.779 3.009,-3.559 0.46,-1.78 0.5,-3.559 0.5,-3.559 l 0.85,-0.011 c 0,0 0.16,7.128 3.498,7.128 l -7.857,0 z" id="path18118" inkscape:connector-curvature="0"/>
          <path d="m 509.435,545.03 c 0.01,-3.469 5.218,-5.987 6.747,-8.727 1.529,2.749 6.737,5.269 6.748,8.727 0,1.64 -1.51,2.97 -3.379,2.97 -1.859,0 -3.369,-1.33 -3.369,-2.97 0,1.64 -1.509,2.97 -3.378,2.97 -1.87,0 -3.369,-1.33 -3.369,-2.97 z" id="path18120" inkscape:connector-curvature="0"/>
        </g>
      </g>
      <g id="g18122">
        <g id="spade_13_">
          <path d="m 660.324,677.089 c -1.669,0 -2.549,1.779 -3.009,3.559 -0.46,1.78 -0.5,3.559 -0.5,3.559 l -0.85,0.01 c 0,0 -0.16,-7.127 -3.499,-7.127 l 7.858,0 z" id="path18125" inkscape:connector-curvature="0"/>
          <path d="m 663.153,684.216 c -0.01,3.469 -5.218,5.988 -6.747,8.727 -1.53,-2.749 -6.738,-5.268 -6.748,-8.727 0,-1.64 1.51,-2.969 3.379,-2.969 1.859,0 3.369,1.329 3.369,2.969 0,-1.64 1.509,-2.969 3.378,-2.969 1.87,0 3.369,1.329 3.369,2.969 z" id="path18127" inkscape:connector-curvature="0"/>
        </g>
      </g>
      <g id="g18129">
        <g id="spade_14_">
          <path d="m 536.975,549.867 c 4.006,0 6.117,-4.271 7.221,-8.541 1.104,-4.27 1.2,-8.54 1.2,-8.54 l 2.039,-0.024 c 0,0 0.384,17.105 8.396,17.105 l -18.856,0 z" id="path18132" inkscape:connector-curvature="0"/>
          <path d="m 530.185,532.761 c 0.024,-8.325 12.523,-14.37 16.194,-20.944 3.671,6.598 16.17,12.644 16.194,20.944 0,3.935 -3.623,7.125 -8.109,7.125 -4.462,0 -8.085,-3.19 -8.085,-7.125 0,3.935 -3.623,7.125 -8.109,7.125 -4.486,0 -8.085,-3.19 -8.085,-7.125 z" id="path18134" inkscape:connector-curvature="0"/>
        </g>
      </g>
      <g id="g18136">
        <g id="spade_15_">
          <path d="m 555.784,675.23 c -4.006,0 -6.117,4.271 -7.221,8.541 -1.104,4.27 -1.2,8.541 -1.2,8.541 l -2.039,0.023 c 0,0 -0.384,-17.105 -8.396,-17.105 l 18.856,0 z" id="path18139" inkscape:connector-curvature="0"/>
          <path d="m 562.574,692.336 c -0.024,8.325 -12.523,14.371 -16.194,20.944 -3.671,-6.598 -16.17,-12.644 -16.194,-20.944 0,-3.935 3.623,-7.125 8.109,-7.125 4.462,0 8.085,3.19 8.085,7.125 0,-3.935 3.623,-7.125 8.109,-7.125 4.486,0 8.085,3.19 8.085,7.125 z" id="path18141" inkscape:connector-curvature="0"/>
        </g>
      </g>
      <g id="g18143">
        <g id="spade_16_">
          <path d="m 616.804,549.867 c 4.006,0 6.117,-4.271 7.221,-8.541 1.104,-4.27 1.2,-8.54 1.2,-8.54 l 2.039,-0.024 c 0,0 0.384,17.105 8.396,17.105 l -18.856,0 z" id="path18146" inkscape:connector-curvature="0"/>
          <path d="m 610.014,532.761 c 0.024,-8.325 12.523,-14.37 16.194,-20.944 3.671,6.598 16.17,12.644 16.193,20.944 0,3.935 -3.622,7.125 -8.108,7.125 -4.463,0 -8.085,-3.19 -8.085,-7.125 0,3.935 -3.623,7.125 -8.109,7.125 -4.486,0 -8.085,-3.19 -8.085,-7.125 z" id="path18148" inkscape:connector-curvature="0"/>
        </g>
      </g>
      <g id="g18150">
        <g id="spade_17_">
          <path d="m 635.612,675.23 c -4.007,0 -6.117,4.271 -7.222,8.541 -1.104,4.271 -1.199,8.541 -1.199,8.541 l -2.039,0.023 c 0,0 -0.384,-17.105 -8.396,-17.105 l 18.856,0 z" id="path18153" inkscape:connector-curvature="0"/>
          <path d="m 642.402,692.336 c -0.024,8.325 -12.523,14.371 -16.194,20.944 -3.671,-6.598 -16.17,-12.644 -16.194,-20.944 0,-3.935 3.623,-7.125 8.109,-7.125 4.462,0 8.085,3.19 8.085,7.125 0,-3.935 3.622,-7.125 8.108,-7.125 4.486,0 8.086,3.19 8.086,7.125 z" id="path18155" inkscape:connector-curvature="0"/>
        </g>
      </g>
    </g> </svg>