<svg xmlns:dc="http://purl.org/dc/elements/1.1/" xmlns:cc="http://creativecommons.org/ns#" xmlns:rdf="http://www.w3.org/1999/02/22-rdf-syntax-ns#" xmlns:svg="http://www.w3.org/2000/svg" xmlns="http://www.w3.org/2000/svg" xmlns:sodipodi="http://sodipodi.sourceforge.net/DTD/sodipodi-0.dtd" xmlns:inkscape="http://www.inkscape.org/namespaces/inkscape" version="1.1" height="1216.19" width="2178.18" viewBox="-.2 -236 2178.99 1216.19" id="deck" ><g xmlns="http://www.w3.org/2000/svg" id="_x35__x5F_spade" class="card">
      <g id="g18158">
        <g id="base_43_">
          <path d="m 670.051,729.279 c 0,3.778 3.089,6.867 6.867,6.867 l 152.788,0 c 3.769,0 6.857,-3.089 6.857,-6.867 l 0,-228.315 c 0,-3.778 -3.089,-6.867 -6.857,-6.867 l -152.788,0 c -3.778,0 -6.867,3.089 -6.867,6.867 l 0,228.315 z" id="path18161" inkscape:connector-curvature="0" style="fill:#ffffff;stroke:#000000;stroke-width:2.5"/>
        </g>
      </g>
      <g id="g18163">
        <g id="n_5_6_">
          <text transform="matrix(0.5339,0,0,1,676.0487,530.2361)" font-size="40" id="text18166" style="font-size:40px;font-family:CopperplateGothic-Bold">5</text>
        </g>
      </g>
      <g id="g18168">
        <g id="n_5_7_">
          <text transform="matrix(-0.5339,0,0,-1,831.5643,699.0095)" font-size="40" id="text18171" style="font-size:40px;font-family:CopperplateGothic-Bold">5</text>
        </g>
      </g>
      <g id="g18173">
        <g id="spade_18_">
          <path d="m 679.777,552.158 c 1.669,0 2.549,-1.779 3.009,-3.559 0.46,-1.78 0.5,-3.559 0.5,-3.559 l 0.85,-0.011 c 0,0 0.16,7.128 3.499,7.128 l -7.858,0 z" id="path18176" inkscape:connector-curvature="0"/>
          <path d="m 676.948,545.03 c 0.01,-3.469 5.218,-5.987 6.747,-8.727 1.53,2.749 6.738,5.269 6.748,8.727 0,1.64 -1.51,2.97 -3.379,2.97 -1.859,0 -3.369,-1.33 -3.369,-2.97 0,1.64 -1.509,2.97 -3.378,2.97 -1.87,0 -3.369,-1.33 -3.369,-2.97 z" id="path18178" inkscape:connector-curvature="0"/>
        </g>
      </g>
      <g id="g18180">
        <g id="spade_19_">
          <path d="m 827.837,677.089 c -1.669,0 -2.549,1.779 -3.009,3.559 -0.46,1.78 -0.5,3.559 -0.5,3.559 l -0.85,0.01 c 0,0 -0.16,-7.127 -3.499,-7.127 l 7.858,0 z" id="path18183" inkscape:connector-curvature="0"/>
          <path d="m 830.666,684.216 c -0.01,3.469 -5.218,5.988 -6.748,8.727 -1.529,-2.749 -6.737,-5.268 -6.747,-8.727 0,-1.64 1.51,-2.969 3.379,-2.969 1.859,0 3.368,1.329 3.368,2.969 0,-1.64 1.51,-2.969 3.379,-2.969 1.869,0 3.369,1.329 3.369,2.969 z" id="path18185" inkscape:connector-curvature="0"/>
        </g>
      </g>
      <g id="g18187">
        <g id="spade_20_">
          <path d="m 704.488,549.867 c 4.007,0 6.118,-4.271 7.222,-8.541 1.104,-4.27 1.199,-8.54 1.199,-8.54 l 2.039,-0.024 c 0,0 0.384,17.105 8.397,17.105 l -18.857,0 z" id="path18190" inkscape:connector-curvature="0"/>
          <path d="m 697.699,532.761 c 0.023,-8.325 12.523,-14.37 16.193,-20.944 3.671,6.598 16.17,12.644 16.194,20.944 0,3.935 -3.623,7.125 -8.109,7.125 -4.462,0 -8.085,-3.19 -8.085,-7.125 0,3.935 -3.622,7.125 -8.108,7.125 -4.486,0 -8.085,-3.19 -8.085,-7.125 z" id="path18192" inkscape:connector-curvature="0"/>
        </g>
      </g>
      <g id="g18194">
        <g id="spade_21_">
          <path d="m 723.297,675.23 c -4.006,0 -6.117,4.271 -7.221,8.541 -1.104,4.27 -1.199,8.541 -1.199,8.541 l -2.04,0.023 c 0,0 -0.384,-17.105 -8.396,-17.105 l 18.856,0 z" id="path18197" inkscape:connector-curvature="0"/>
          <path d="m 730.087,692.336 c -0.024,8.325 -12.523,14.371 -16.194,20.944 -3.67,-6.598 -16.17,-12.644 -16.193,-20.944 0,-3.935 3.622,-7.125 8.108,-7.125 4.463,0 8.085,3.19 8.085,7.125 0,-3.935 3.623,-7.125 8.109,-7.125 4.486,0 8.085,3.19 8.085,7.125 z" id="path18199" inkscape:connector-curvature="0"/>
        </g>
      </g>
      <g id="g18201">
        <g id="spade_22_">
          <path d="m 784.316,549.867 c 4.006,0 6.117,-4.271 7.221,-8.541 1.104,-4.27 1.2,-8.54 1.2,-8.54 l 2.039,-0.024 c 0,0 0.384,17.105 8.396,17.105 l -18.856,0 z" id="path18204" inkscape:connector-curvature="0"/>
          <path d="m 777.526,532.761 c 0.024,-8.325 12.523,-14.37 16.194,-20.944 3.671,6.598 16.17,12.644 16.194,20.944 0,3.935 -3.623,7.125 -8.109,7.125 -4.462,0 -8.085,-3.19 -8.085,-7.125 0,3.935 -3.623,7.125 -8.109,7.125 -4.486,0 -8.085,-3.19 -8.085,-7.125 z" id="path18206" inkscape:connector-curvature="0"/>
        </g>
      </g>
      <g id="g18208">
        <g id="spade_23_">
          <path d="m 803.125,675.23 c -4.006,0 -6.117,4.271 -7.221,8.541 -1.104,4.27 -1.2,8.541 -1.2,8.541 l -2.039,0.023 c 0,0 -0.384,-17.105 -8.396,-17.105 l 18.856,0 z" id="path18211" inkscape:connector-curvature="0"/>
          <path d="m 809.915,692.336 c -0.024,8.325 -12.523,14.371 -16.194,20.944 -3.671,-6.598 -16.17,-12.644 -16.194,-20.944 0,-3.935 3.623,-7.125 8.109,-7.125 4.462,0 8.085,3.19 8.085,7.125 0,-3.935 3.623,-7.125 8.109,-7.125 4.486,0 8.085,3.19 8.085,7.125 z" id="path18213" inkscape:connector-curvature="0"/>
        </g>
      </g>
      <g id="g18215">
        <g id="spade_24_">
          <path d="m 744.402,626.78 c 4.006,0 6.117,-4.271 7.221,-8.541 1.104,-4.27 1.2,-8.54 1.2,-8.54 l 2.039,-0.024 c 0,0 0.384,17.105 8.396,17.105 l -18.856,0 z" id="path18218" inkscape:connector-curvature="0"/>
          <path d="m 737.612,609.675 c 0.024,-8.325 12.523,-14.37 16.194,-20.944 3.671,6.598 16.17,12.644 16.194,20.944 0,3.935 -3.623,7.125 -8.109,7.125 -4.462,0 -8.085,-3.19 -8.085,-7.125 0,3.935 -3.623,7.125 -8.109,7.125 -4.486,0 -8.085,-3.191 -8.085,-7.125 z" id="path18220" inkscape:connector-curvature="0"/>
        </g>
      </g>
    </g> </svg>