<svg xmlns:dc="http://purl.org/dc/elements/1.1/" xmlns:cc="http://creativecommons.org/ns#" xmlns:rdf="http://www.w3.org/1999/02/22-rdf-syntax-ns#" xmlns:svg="http://www.w3.org/2000/svg" xmlns="http://www.w3.org/2000/svg" xmlns:sodipodi="http://sodipodi.sourceforge.net/DTD/sodipodi-0.dtd" xmlns:inkscape="http://www.inkscape.org/namespaces/inkscape" version="1.1" height="1216.19" width="2178.18" viewBox="-.2 -236 2178.99 1216.19" id="deck" ><g xmlns="http://www.w3.org/2000/svg" id="_x37__x5F_spade" class="card">
      <g id="g18295">
        <g id="base_45_">
          <path d="m 1005.076,729.279 c 0,3.778 3.089,6.867 6.867,6.867 l 152.788,0 c 3.769,0 6.857,-3.089 6.857,-6.867 l 0,-228.315 c 0,-3.778 -3.089,-6.867 -6.857,-6.867 l -152.788,0 c -3.778,0 -6.867,3.089 -6.867,6.867 l 0,228.315 z" id="path18298" inkscape:connector-curvature="0" style="fill:#ffffff;stroke:#000000;stroke-width:2.5"/>
        </g>
      </g>
      <g id="g18300">
        <g id="n_7_6_">
          <text transform="matrix(0.5339,0,0,1,1011.0741,530.2361)" font-size="40" id="text18303" style="font-size:40px;font-family:CopperplateGothic-Bold">7</text>
        </g>
      </g>
      <g id="g18305">
        <g id="n_7_7_">
          <text transform="matrix(-0.5339,0,0,-1,1166.5858,699.0095)" font-size="40" id="text18308" style="font-size:40px;font-family:CopperplateGothic-Bold">7</text>
        </g>
      </g>
      <g id="g18310">
        <g id="spade_33_">
          <path d="m 1014.803,552.158 c 1.669,0 2.549,-1.779 3.009,-3.559 0.46,-1.78 0.5,-3.559 0.5,-3.559 l 0.85,-0.011 c 0,0 0.159,7.128 3.498,7.128 l -7.857,0 z" id="path18313" inkscape:connector-curvature="0"/>
          <path d="m 1011.974,545.03 c 0.01,-3.469 5.218,-5.987 6.747,-8.727 1.529,2.749 6.738,5.269 6.748,8.727 0,1.64 -1.51,2.97 -3.379,2.97 -1.859,0 -3.369,-1.33 -3.369,-2.97 0,1.64 -1.509,2.97 -3.379,2.97 -1.869,0 -3.368,-1.33 -3.368,-2.97 z" id="path18315" inkscape:connector-curvature="0"/>
        </g>
      </g>
      <g id="g18317">
        <g id="spade_34_">
          <path d="m 1162.857,677.089 c -1.669,0 -2.549,1.779 -3.009,3.559 -0.46,1.78 -0.5,3.559 -0.5,3.559 l -0.85,0.01 c 0,0 -0.16,-7.127 -3.499,-7.127 l 7.858,0 z" id="path18320" inkscape:connector-curvature="0"/>
          <path d="m 1165.686,684.216 c -0.01,3.469 -5.218,5.988 -6.747,8.727 -1.53,-2.749 -6.738,-5.268 -6.748,-8.727 0,-1.64 1.51,-2.969 3.379,-2.969 1.859,0 3.369,1.329 3.369,2.969 0,-1.64 1.509,-2.969 3.378,-2.969 1.87,0 3.369,1.329 3.369,2.969 z" id="path18322" inkscape:connector-curvature="0"/>
        </g>
      </g>
      <g id="g18324">
        <g id="spade_35_">
          <path d="m 1039.514,549.867 c 4.007,0 6.118,-4.271 7.222,-8.541 1.104,-4.27 1.199,-8.54 1.199,-8.54 l 2.04,-0.024 c 0,0 0.384,17.105 8.396,17.105 l -18.857,0 z" id="path18327" inkscape:connector-curvature="0"/>
          <path d="m 1032.724,532.761 c 0.023,-8.325 12.523,-14.37 16.194,-20.944 3.67,6.598 16.17,12.644 16.193,20.944 0,3.935 -3.622,7.125 -8.108,7.125 -4.463,0 -8.085,-3.19 -8.085,-7.125 0,3.935 -3.623,7.125 -8.109,7.125 -4.486,0 -8.085,-3.19 -8.085,-7.125 z" id="path18329" inkscape:connector-curvature="0"/>
        </g>
      </g>
      <g id="g18331">
        <g id="spade_36_">
          <path d="m 1039.514,626.78 c 4.007,0 6.118,-4.271 7.222,-8.541 1.104,-4.27 1.199,-8.54 1.199,-8.54 l 2.04,-0.024 c 0,0 0.384,17.105 8.396,17.105 l -18.857,0 z" id="path18334" inkscape:connector-curvature="0"/>
          <path d="m 1032.724,609.675 c 0.023,-8.325 12.523,-14.37 16.194,-20.944 3.67,6.598 16.17,12.644 16.193,20.944 0,3.935 -3.622,7.125 -8.108,7.125 -4.463,0 -8.085,-3.19 -8.085,-7.125 0,3.935 -3.623,7.125 -8.109,7.125 -4.486,0 -8.085,-3.191 -8.085,-7.125 z" id="path18336" inkscape:connector-curvature="0"/>
        </g>
      </g>
      <g id="g18338">
        <g id="spade_37_">
          <path d="m 1058.323,675.23 c -4.007,0 -6.118,4.271 -7.222,8.541 -1.104,4.27 -1.199,8.541 -1.199,8.541 l -2.039,0.023 c 0,0 -0.384,-17.105 -8.397,-17.105 l 18.857,0 z" id="path18341" inkscape:connector-curvature="0"/>
          <path d="m 1065.112,692.336 c -0.023,8.325 -12.522,14.371 -16.193,20.944 -3.671,-6.598 -16.17,-12.644 -16.194,-20.944 0,-3.935 3.623,-7.125 8.109,-7.125 4.462,0 8.085,3.19 8.085,7.125 0,-3.935 3.622,-7.125 8.108,-7.125 4.486,0 8.085,3.19 8.085,7.125 z" id="path18343" inkscape:connector-curvature="0"/>
        </g>
      </g>
      <g id="g18345">
        <g id="spade_38_">
          <path d="m 1119.342,549.867 c 4.007,0 6.118,-4.271 7.222,-8.541 1.104,-4.27 1.199,-8.54 1.199,-8.54 l 2.039,-0.024 c 0,0 0.384,17.105 8.397,17.105 l -18.857,0 z" id="path18348" inkscape:connector-curvature="0"/>
          <path d="m 1112.553,532.761 c 0.023,-8.325 12.523,-14.37 16.193,-20.944 3.671,6.598 16.17,12.644 16.194,20.944 0,3.935 -3.623,7.125 -8.109,7.125 -4.462,0 -8.085,-3.19 -8.085,-7.125 0,3.935 -3.622,7.125 -8.108,7.125 -4.486,0 -8.085,-3.19 -8.085,-7.125 z" id="path18350" inkscape:connector-curvature="0"/>
        </g>
      </g>
      <g id="g18352">
        <g id="spade_39_">
          <path d="m 1119.342,626.78 c 4.007,0 6.118,-4.271 7.222,-8.541 1.104,-4.27 1.199,-8.54 1.199,-8.54 l 2.039,-0.024 c 0,0 0.384,17.105 8.397,17.105 l -18.857,0 z" id="path18355" inkscape:connector-curvature="0"/>
          <path d="m 1112.553,609.675 c 0.023,-8.325 12.523,-14.37 16.193,-20.944 3.671,6.598 16.17,12.644 16.194,20.944 0,3.935 -3.623,7.125 -8.109,7.125 -4.462,0 -8.085,-3.19 -8.085,-7.125 0,3.935 -3.622,7.125 -8.108,7.125 -4.486,0 -8.085,-3.191 -8.085,-7.125 z" id="path18357" inkscape:connector-curvature="0"/>
        </g>
      </g>
      <g id="g18359">
        <g id="spade_40_">
          <path d="m 1138.151,675.23 c -4.007,0 -6.118,4.271 -7.222,8.541 -1.104,4.27 -1.199,8.541 -1.199,8.541 l -2.039,0.023 c 0,0 -0.385,-17.105 -8.397,-17.105 l 18.857,0 z" id="path18362" inkscape:connector-curvature="0"/>
          <path d="m 1144.94,692.336 c -0.023,8.325 -12.523,14.371 -16.194,20.944 -3.67,-6.598 -16.17,-12.644 -16.193,-20.944 0,-3.935 3.623,-7.125 8.109,-7.125 4.462,0 8.084,3.19 8.084,7.125 0,-3.935 3.623,-7.125 8.109,-7.125 4.486,0 8.085,3.19 8.085,7.125 z" id="path18364" inkscape:connector-curvature="0"/>
        </g>
      </g>
      <g id="g18366">
        <g id="spade_41_">
          <path d="m 1079.428,604.003 c 4.007,0 6.118,-4.271 7.222,-8.54 1.104,-4.271 1.199,-8.541 1.199,-8.541 l 2.04,-0.024 c 0,0 0.383,17.105 8.396,17.105 l -18.857,0 z" id="path18369" inkscape:connector-curvature="0"/>
          <path d="m 1072.639,586.897 c 0.023,-8.324 12.523,-14.37 16.193,-20.944 3.671,6.598 16.171,12.644 16.194,20.944 0,3.935 -3.622,7.126 -8.108,7.126 -4.463,0 -8.086,-3.191 -8.086,-7.126 0,3.935 -3.622,7.126 -8.108,7.126 -4.486,0 -8.085,-3.191 -8.085,-7.126 z" id="path18371" inkscape:connector-curvature="0"/>
        </g>
      </g>
    </g> </svg>