<svg xmlns:dc="http://purl.org/dc/elements/1.1/" xmlns:cc="http://creativecommons.org/ns#" xmlns:rdf="http://www.w3.org/1999/02/22-rdf-syntax-ns#" xmlns:svg="http://www.w3.org/2000/svg" xmlns="http://www.w3.org/2000/svg" xmlns:sodipodi="http://sodipodi.sourceforge.net/DTD/sodipodi-0.dtd" xmlns:inkscape="http://www.inkscape.org/namespaces/inkscape" version="1.1" height="1216.19" width="2178.18" viewBox="-.2 -236 2178.99 1216.19" id="deck" ><g xmlns="http://www.w3.org/2000/svg" id="_x38__x5F_spade" class="card">
      <g id="g18374">
        <g id="base_46_">
          <path d="m 1172.584,729.279 c 0,3.778 3.089,6.867 6.867,6.867 l 152.788,0 c 3.769,0 6.857,-3.089 6.857,-6.867 l 0,-228.315 c 0,-3.778 -3.089,-6.867 -6.857,-6.867 l -152.788,0 c -3.778,0 -6.867,3.089 -6.867,6.867 l 0,228.315 z" id="path18377" inkscape:connector-curvature="0" style="fill:#ffffff;stroke:#000000;stroke-width:2.5"/>
        </g>
      </g>
      <g id="g18379">
        <g id="n_8_6_">
          <text transform="matrix(0.5339,0,0,1,1178.5819,530.2361)" font-size="40" id="text18382" style="font-size:40px;font-family:CopperplateGothic-Bold">8</text>
        </g>
      </g>
      <g id="g18384">
        <g id="n_8_7_">
          <text transform="matrix(-0.5339,0,0,-1,1334.1034,699.0095)" font-size="40" id="text18387" style="font-size:40px;font-family:CopperplateGothic-Bold">8</text>
        </g>
      </g>
      <g id="g18389">
        <g id="spade_42_">
          <path d="m 1182.31,552.158 c 1.669,0 2.549,-1.779 3.009,-3.559 0.46,-1.78 0.5,-3.559 0.5,-3.559 l 0.85,-0.011 c 0,0 0.159,7.128 3.498,7.128 l -7.857,0 z" id="path18392" inkscape:connector-curvature="0"/>
          <path d="m 1179.481,545.03 c 0.01,-3.469 5.218,-5.987 6.747,-8.727 1.529,2.749 6.738,5.269 6.748,8.727 0,1.64 -1.51,2.97 -3.379,2.97 -1.859,0 -3.369,-1.33 -3.369,-2.97 0,1.64 -1.509,2.97 -3.379,2.97 -1.869,0 -3.368,-1.33 -3.368,-2.97 z" id="path18394" inkscape:connector-curvature="0"/>
        </g>
      </g>
      <g id="g18396">
        <g id="spade_43_">
          <path d="m 1330.375,677.089 c -1.669,0 -2.549,1.779 -3.009,3.559 -0.46,1.78 -0.5,3.559 -0.5,3.559 l -0.85,0.01 c 0,0 -0.16,-7.127 -3.499,-7.127 l 7.858,0 z" id="path18399" inkscape:connector-curvature="0"/>
          <path d="m 1333.204,684.216 c -0.01,3.469 -5.218,5.988 -6.747,8.727 -1.53,-2.749 -6.738,-5.268 -6.748,-8.727 0,-1.64 1.51,-2.969 3.379,-2.969 1.859,0 3.369,1.329 3.369,2.969 0,-1.64 1.509,-2.969 3.378,-2.969 1.87,0 3.369,1.329 3.369,2.969 z" id="path18401" inkscape:connector-curvature="0"/>
        </g>
      </g>
      <g id="g18403">
        <g id="spade_44_">
          <path d="m 1207.027,549.867 c 4.006,0 6.117,-4.271 7.221,-8.541 1.104,-4.27 1.2,-8.54 1.2,-8.54 l 2.039,-0.024 c 0,0 0.384,17.105 8.396,17.105 l -18.856,0 z" id="path18406" inkscape:connector-curvature="0"/>
          <path d="m 1200.237,532.761 c 0.024,-8.325 12.523,-14.37 16.194,-20.944 3.671,6.598 16.17,12.644 16.194,20.944 0,3.935 -3.623,7.125 -8.109,7.125 -4.462,0 -8.085,-3.19 -8.085,-7.125 0,3.935 -3.623,7.125 -8.109,7.125 -4.486,0 -8.085,-3.19 -8.085,-7.125 z" id="path18408" inkscape:connector-curvature="0"/>
        </g>
      </g>
      <g id="g18410">
        <g id="spade_45_">
          <path d="m 1207.027,604.003 c 4.006,0 6.117,-4.271 7.221,-8.54 1.104,-4.271 1.2,-8.541 1.2,-8.541 l 2.039,-0.024 c 0,0 0.384,17.105 8.396,17.105 l -18.856,0 z" id="path18413" inkscape:connector-curvature="0"/>
          <path d="m 1200.237,586.897 c 0.024,-8.324 12.523,-14.37 16.194,-20.944 3.671,6.598 16.17,12.644 16.194,20.944 0,3.935 -3.623,7.126 -8.109,7.126 -4.462,0 -8.085,-3.191 -8.085,-7.126 0,3.935 -3.623,7.126 -8.109,7.126 -4.486,0 -8.085,-3.191 -8.085,-7.126 z" id="path18415" inkscape:connector-curvature="0"/>
        </g>
      </g>
      <g id="g18417">
        <g id="spade_46_">
          <path d="m 1225.836,621.094 c -4.006,0 -6.117,4.271 -7.221,8.541 -1.104,4.27 -1.2,8.54 -1.2,8.54 l -2.039,0.024 c 0,0 -0.384,-17.105 -8.396,-17.105 l 18.856,0 z" id="path18420" inkscape:connector-curvature="0"/>
          <path d="m 1232.626,638.2 c -0.024,8.325 -12.523,14.371 -16.194,20.944 -3.671,-6.598 -16.17,-12.644 -16.194,-20.944 0,-3.935 3.623,-7.125 8.109,-7.125 4.462,0 8.085,3.19 8.085,7.125 0,-3.935 3.623,-7.125 8.109,-7.125 4.486,0 8.085,3.19 8.085,7.125 z" id="path18422" inkscape:connector-curvature="0"/>
        </g>
      </g>
      <g id="g18424">
        <g id="spade_47_">
          <path d="m 1225.836,675.23 c -4.006,0 -6.117,4.271 -7.221,8.541 -1.104,4.27 -1.2,8.541 -1.2,8.541 l -2.039,0.023 c 0,0 -0.384,-17.105 -8.396,-17.105 l 18.856,0 z" id="path18427" inkscape:connector-curvature="0"/>
          <path d="m 1232.626,692.336 c -0.024,8.325 -12.523,14.371 -16.194,20.944 -3.671,-6.598 -16.17,-12.644 -16.194,-20.944 0,-3.935 3.623,-7.125 8.109,-7.125 4.462,0 8.085,3.19 8.085,7.125 0,-3.935 3.623,-7.125 8.109,-7.125 4.486,0 8.085,3.19 8.085,7.125 z" id="path18429" inkscape:connector-curvature="0"/>
        </g>
      </g>
      <g id="g18431">
        <g id="spade_48_">
          <path d="m 1286.855,549.867 c 4.006,0 6.117,-4.271 7.221,-8.541 1.104,-4.27 1.2,-8.54 1.2,-8.54 l 2.039,-0.024 c 0,0 0.384,17.105 8.396,17.105 l -18.856,0 z" id="path18434" inkscape:connector-curvature="0"/>
          <path d="m 1280.065,532.761 c 0.024,-8.325 12.523,-14.37 16.194,-20.944 3.671,6.598 16.17,12.644 16.193,20.944 0,3.935 -3.622,7.125 -8.108,7.125 -4.462,0 -8.085,-3.19 -8.085,-7.125 0,3.935 -3.623,7.125 -8.109,7.125 -4.486,0 -8.085,-3.19 -8.085,-7.125 z" id="path18436" inkscape:connector-curvature="0"/>
        </g>
      </g>
      <g id="g18438">
        <g id="spade_49_">
          <path d="m 1286.855,604.003 c 4.006,0 6.117,-4.271 7.221,-8.54 1.104,-4.271 1.2,-8.541 1.2,-8.541 l 2.039,-0.024 c 0,0 0.384,17.105 8.396,17.105 l -18.856,0 z" id="path18441" inkscape:connector-curvature="0"/>
          <path d="m 1280.065,586.897 c 0.024,-8.324 12.523,-14.37 16.194,-20.944 3.671,6.598 16.17,12.644 16.193,20.944 0,3.935 -3.622,7.126 -8.108,7.126 -4.462,0 -8.085,-3.191 -8.085,-7.126 0,3.935 -3.623,7.126 -8.109,7.126 -4.486,0 -8.085,-3.191 -8.085,-7.126 z" id="path18443" inkscape:connector-curvature="0"/>
        </g>
      </g>
      <g id="g18445">
        <g id="spade_50_">
          <path d="m 1305.664,621.094 c -4.007,0 -6.118,4.271 -7.222,8.541 -1.104,4.27 -1.199,8.54 -1.199,8.54 l -2.039,0.024 c 0,0 -0.384,-17.105 -8.397,-17.105 l 18.857,0 z" id="path18448" inkscape:connector-curvature="0"/>
          <path d="m 1312.453,638.2 c -0.023,8.325 -12.523,14.371 -16.193,20.944 -3.671,-6.598 -16.17,-12.644 -16.194,-20.944 0,-3.935 3.623,-7.125 8.109,-7.125 4.462,0 8.085,3.19 8.085,7.125 0,-3.935 3.622,-7.125 8.108,-7.125 4.486,0 8.085,3.19 8.085,7.125 z" id="path18450" inkscape:connector-curvature="0"/>
        </g>
      </g>
      <g id="g18452">
        <g id="spade_51_">
          <path d="m 1305.664,675.23 c -4.007,0 -6.118,4.271 -7.222,8.541 -1.104,4.27 -1.199,8.541 -1.199,8.541 l -2.039,0.023 c 0,0 -0.384,-17.105 -8.397,-17.105 l 18.857,0 z" id="path18455" inkscape:connector-curvature="0"/>
          <path d="m 1312.453,692.336 c -0.023,8.325 -12.523,14.371 -16.193,20.944 -3.671,-6.598 -16.17,-12.644 -16.194,-20.944 0,-3.935 3.623,-7.125 8.109,-7.125 4.462,0 8.085,3.19 8.085,7.125 0,-3.935 3.622,-7.125 8.108,-7.125 4.486,0 8.085,3.19 8.085,7.125 z" id="path18457" inkscape:connector-curvature="0"/>
        </g>
      </g>
    </g> </svg>