<svg xmlns:dc="http://purl.org/dc/elements/1.1/" xmlns:cc="http://creativecommons.org/ns#" xmlns:rdf="http://www.w3.org/1999/02/22-rdf-syntax-ns#" xmlns:svg="http://www.w3.org/2000/svg" xmlns="http://www.w3.org/2000/svg" xmlns:sodipodi="http://sodipodi.sourceforge.net/DTD/sodipodi-0.dtd" xmlns:inkscape="http://www.inkscape.org/namespaces/inkscape" version="1.1" height="1216.19" width="2178.18" viewBox="-.2 -236 2178.99 1216.19" id="deck" ><g xmlns="http://www.w3.org/2000/svg" id="_x39__x5F_spade" class="card">
      <g id="g18460">
        <g id="base_47_">
          <path d="m 1340.101,729.279 c 0,3.778 3.089,6.867 6.867,6.867 l 152.788,0 c 3.769,0 6.857,-3.089 6.857,-6.867 l 0,-228.315 c 0,-3.778 -3.089,-6.867 -6.857,-6.867 l -152.788,0 c -3.778,0 -6.867,3.089 -6.867,6.867 l 0,228.315 z" id="path18463" inkscape:connector-curvature="0" style="fill:#ffffff;stroke:#000000;stroke-width:2.5"/>
        </g>
      </g>
      <g id="g18465">
        <g id="n_9_6_">
          <text transform="matrix(0.5339,0,0,1,1346.0995,530.2361)" font-size="40" id="text18468" style="font-size:40px;font-family:CopperplateGothic-Bold">9</text>
        </g>
      </g>
      <g id="g18470">
        <g id="n_9_7_">
          <text transform="matrix(-0.5339,0,0,-1,1501.6112,699.0095)" font-size="40" id="text18473" style="font-size:40px;font-family:CopperplateGothic-Bold">9</text>
        </g>
      </g>
      <g id="g18475">
        <g id="spade_52_">
          <path d="m 1349.828,552.158 c 1.669,0 2.549,-1.779 3.009,-3.559 0.46,-1.78 0.5,-3.559 0.5,-3.559 l 0.85,-0.011 c 0,0 0.159,7.128 3.498,7.128 l -7.857,0 z" id="path18478" inkscape:connector-curvature="0"/>
          <path d="m 1346.999,545.03 c 0.01,-3.469 5.218,-5.987 6.747,-8.727 1.529,2.749 6.738,5.269 6.748,8.727 0,1.64 -1.51,2.97 -3.379,2.97 -1.859,0 -3.369,-1.33 -3.369,-2.97 0,1.64 -1.509,2.97 -3.379,2.97 -1.869,0 -3.368,-1.33 -3.368,-2.97 z" id="path18480" inkscape:connector-curvature="0"/>
        </g>
      </g>
      <g id="g18482">
        <g id="spade_53_">
          <path d="m 1497.883,677.089 c -1.669,0 -2.549,1.779 -3.009,3.559 -0.46,1.78 -0.5,3.559 -0.5,3.559 l -0.85,0.01 c 0,0 -0.16,-7.127 -3.499,-7.127 l 7.858,0 z" id="path18485" inkscape:connector-curvature="0"/>
          <path d="m 1500.712,684.216 c -0.01,3.469 -5.218,5.988 -6.747,8.727 -1.53,-2.749 -6.738,-5.268 -6.748,-8.727 0,-1.64 1.51,-2.969 3.379,-2.969 1.859,0 3.369,1.329 3.369,2.969 0,-1.64 1.509,-2.969 3.378,-2.969 1.87,0 3.369,1.329 3.369,2.969 z" id="path18487" inkscape:connector-curvature="0"/>
        </g>
      </g>
      <g id="g18489">
        <g id="spade_54_">
          <path d="m 1374.54,549.867 c 4.007,0 6.117,-4.271 7.221,-8.541 1.104,-4.27 1.2,-8.54 1.2,-8.54 l 2.039,-0.024 c 0,0 0.384,17.105 8.396,17.105 l -18.856,0 z" id="path18492" inkscape:connector-curvature="0"/>
          <path d="m 1367.75,532.761 c 0.024,-8.325 12.523,-14.37 16.194,-20.944 3.671,6.598 16.17,12.644 16.194,20.944 0,3.935 -3.623,7.125 -8.109,7.125 -4.462,0 -8.085,-3.19 -8.085,-7.125 0,3.935 -3.623,7.125 -8.109,7.125 -4.486,0 -8.085,-3.19 -8.085,-7.125 z" id="path18494" inkscape:connector-curvature="0"/>
        </g>
      </g>
      <g id="g18496">
        <g id="spade_55_">
          <path d="m 1374.54,604.003 c 4.007,0 6.117,-4.271 7.221,-8.54 1.104,-4.271 1.2,-8.541 1.2,-8.541 l 2.039,-0.024 c 0,0 0.384,17.105 8.396,17.105 l -18.856,0 z" id="path18499" inkscape:connector-curvature="0"/>
          <path d="m 1367.75,586.897 c 0.024,-8.324 12.523,-14.37 16.194,-20.944 3.671,6.598 16.17,12.644 16.194,20.944 0,3.935 -3.623,7.126 -8.109,7.126 -4.462,0 -8.085,-3.191 -8.085,-7.126 0,3.935 -3.623,7.126 -8.109,7.126 -4.486,0 -8.085,-3.191 -8.085,-7.126 z" id="path18501" inkscape:connector-curvature="0"/>
        </g>
      </g>
      <g id="g18503">
        <g id="spade_56_">
          <path d="m 1393.349,621.094 c -4.006,0 -6.117,4.271 -7.221,8.541 -1.104,4.27 -1.2,8.54 -1.2,8.54 l -2.039,0.024 c 0,0 -0.384,-17.105 -8.396,-17.105 l 18.856,0 z" id="path18506" inkscape:connector-curvature="0"/>
          <path d="m 1400.139,638.2 c -0.024,8.325 -12.523,14.371 -16.194,20.944 -3.671,-6.598 -16.17,-12.644 -16.194,-20.944 0,-3.935 3.623,-7.125 8.109,-7.125 4.463,0 8.085,3.19 8.085,7.125 0,-3.935 3.623,-7.125 8.109,-7.125 4.486,0 8.085,3.19 8.085,7.125 z" id="path18508" inkscape:connector-curvature="0"/>
        </g>
      </g>
      <g id="g18510">
        <g id="spade_57_">
          <path d="m 1393.349,675.23 c -4.006,0 -6.117,4.271 -7.221,8.541 -1.104,4.27 -1.2,8.541 -1.2,8.541 l -2.039,0.023 c 0,0 -0.384,-17.105 -8.396,-17.105 l 18.856,0 z" id="path18513" inkscape:connector-curvature="0"/>
          <path d="m 1400.139,692.336 c -0.024,8.325 -12.523,14.371 -16.194,20.944 -3.671,-6.598 -16.17,-12.644 -16.194,-20.944 0,-3.935 3.623,-7.125 8.109,-7.125 4.463,0 8.085,3.19 8.085,7.125 0,-3.935 3.623,-7.125 8.109,-7.125 4.486,0 8.085,3.19 8.085,7.125 z" id="path18515" inkscape:connector-curvature="0"/>
        </g>
      </g>
      <g id="g18517">
        <g id="spade_58_">
          <path d="m 1454.368,549.867 c 4.006,0 6.117,-4.271 7.221,-8.541 1.104,-4.27 1.2,-8.54 1.2,-8.54 l 2.039,-0.024 c 0,0 0.384,17.105 8.396,17.105 l -18.856,0 z" id="path18520" inkscape:connector-curvature="0"/>
          <path d="m 1447.578,532.761 c 0.024,-8.325 12.523,-14.37 16.194,-20.944 3.671,6.598 16.17,12.644 16.194,20.944 0,3.935 -3.623,7.125 -8.109,7.125 -4.463,0 -8.085,-3.19 -8.085,-7.125 0,3.935 -3.623,7.125 -8.109,7.125 -4.486,0 -8.085,-3.19 -8.085,-7.125 z" id="path18522" inkscape:connector-curvature="0"/>
        </g>
      </g>
      <g id="g18524">
        <g id="spade_59_">
          <path d="m 1454.368,604.003 c 4.006,0 6.117,-4.271 7.221,-8.54 1.104,-4.271 1.2,-8.541 1.2,-8.541 l 2.039,-0.024 c 0,0 0.384,17.105 8.396,17.105 l -18.856,0 z" id="path18527" inkscape:connector-curvature="0"/>
          <path d="m 1447.578,586.897 c 0.024,-8.324 12.523,-14.37 16.194,-20.944 3.671,6.598 16.17,12.644 16.194,20.944 0,3.935 -3.623,7.126 -8.109,7.126 -4.463,0 -8.085,-3.191 -8.085,-7.126 0,3.935 -3.623,7.126 -8.109,7.126 -4.486,0 -8.085,-3.191 -8.085,-7.126 z" id="path18529" inkscape:connector-curvature="0"/>
        </g>
      </g>
      <g id="g18531">
        <g id="spade_60_">
          <path d="m 1473.177,621.094 c -4.007,0 -6.117,4.271 -7.221,8.541 -1.104,4.271 -1.2,8.54 -1.2,8.54 l -2.039,0.024 c 0,0 -0.384,-17.105 -8.396,-17.105 l 18.856,0 z" id="path18534" inkscape:connector-curvature="0"/>
          <path d="m 1479.967,638.2 c -0.024,8.325 -12.523,14.371 -16.194,20.944 -3.671,-6.598 -16.17,-12.644 -16.194,-20.944 0,-3.935 3.623,-7.125 8.109,-7.125 4.462,0 8.085,3.19 8.085,7.125 0,-3.935 3.623,-7.125 8.109,-7.125 4.486,0 8.085,3.19 8.085,7.125 z" id="path18536" inkscape:connector-curvature="0"/>
        </g>
      </g>
      <g id="g18538">
        <g id="spade_61_">
          <path d="m 1473.177,675.23 c -4.007,0 -6.117,4.271 -7.221,8.541 -1.104,4.271 -1.2,8.541 -1.2,8.541 l -2.039,0.023 c 0,0 -0.384,-17.105 -8.396,-17.105 l 18.856,0 z" id="path18541" inkscape:connector-curvature="0"/>
          <path d="m 1479.967,692.336 c -0.024,8.325 -12.523,14.371 -16.194,20.944 -3.671,-6.598 -16.17,-12.644 -16.194,-20.944 0,-3.935 3.623,-7.125 8.109,-7.125 4.462,0 8.085,3.19 8.085,7.125 0,-3.935 3.623,-7.125 8.109,-7.125 4.486,0 8.085,3.19 8.085,7.125 z" id="path18543" inkscape:connector-curvature="0"/>
        </g>
      </g>
      <g id="g18545">
        <g id="spade_62_">
          <path d="m 1414.454,576.936 c 4.007,0 6.118,-4.271 7.222,-8.541 1.104,-4.27 1.199,-8.54 1.199,-8.54 l 2.039,-0.024 c 0,0 0.384,17.105 8.396,17.105 l -18.856,0 z" id="path18548" inkscape:connector-curvature="0"/>
          <path d="m 1407.664,559.831 c 0.024,-8.325 12.523,-14.371 16.194,-20.944 3.671,6.598 16.17,12.644 16.194,20.944 0,3.935 -3.623,7.125 -8.109,7.125 -4.462,0 -8.085,-3.19 -8.085,-7.125 0,3.935 -3.622,7.125 -8.108,7.125 -4.486,0 -8.086,-3.191 -8.086,-7.125 z" id="path18550" inkscape:connector-curvature="0"/>
        </g>
      </g>
    </g> </svg>