<svg xmlns:dc="http://purl.org/dc/elements/1.1/" xmlns:cc="http://creativecommons.org/ns#" xmlns:rdf="http://www.w3.org/1999/02/22-rdf-syntax-ns#" xmlns:svg="http://www.w3.org/2000/svg" xmlns="http://www.w3.org/2000/svg" xmlns:sodipodi="http://sodipodi.sourceforge.net/DTD/sodipodi-0.dtd" xmlns:inkscape="http://www.inkscape.org/namespaces/inkscape" version="1.1" height="1216.19" width="2178.18" viewBox="-.2 -236 2178.99 1216.19" id="deck" ><g xmlns="http://www.w3.org/2000/svg" id="gSitu5yp4s1i" style="fill:#085a4f;fill-opacity:1" inkscape:label="#g19698" class="card back">
      <g id="gSitu5yp4s1j" style="fill:#085a4f;fill-opacity:1">
        <g id="gSitu5yp4s1k" style="fill:#085a4f;fill-opacity:1">
          <path style="fill:#085a4f;fill-opacity:1;stroke:#000000;stroke-width:2.5" inkscape:connector-curvature="0" id="pathSitu5yp4s1l" d="m 335.025,972.327 c 0,3.778 3.089,6.867 6.867,6.867 l 152.788,0 c 3.769,0 6.857,-3.089 6.857,-6.867 l 0,-228.316 c 0,-3.778 -3.089,-6.867 -6.857,-6.867 l -152.788,0 c -3.778,0 -6.867,3.089 -6.867,6.867 l 0,228.316 z"/>
        </g>
      </g>
      <path style="fill:#085a4f;fill-opacity:1" inkscape:connector-curvature="0" id="pathSitu5yp4s1m" d="m 345.151,743.703 146.341,0 c 1.752,0 3.172,1.585 3.172,3.541 l 0,222.06 c 0,1.956 -1.42,3.542 -3.172,3.542 l -146.341,0 c -1.752,0 -3.173,-1.586 -3.173,-3.542 l 0,-222.06 c 0,-1.956 1.421,-3.541 3.173,-3.541 z"/>
      <path style="fill:#085a4f;fill-opacity:1;stroke:#ffffff;stroke-width:1.3132;stroke-linejoin:round" inkscape:connector-curvature="0" id="pathSitu5yp4s1n" d="m 351.263,749.436 134.125,0 c 1.752,0 3.173,1.585 3.173,3.541 l 0,210.603 c 0,1.956 -1.421,3.541 -3.173,3.541 l -134.125,0 c -1.753,0 -3.173,-1.585 -3.173,-3.541 l 0,-210.603 c 0.001,-1.956 1.42,-3.541 3.173,-3.541 z"/>
      <rect style="fill:#085a4f;fill-opacity:1;stroke:#ffffff;stroke-width:1.25209999;stroke-linejoin:round" id="rectSitu5yp4s1o" height="196.461" width="118.895" y="760.04498" x="358.88"/>
      <rect style="fill:#085a4f;fill-opacity:1;stroke:#ffffff;stroke-width:1.33930004;stroke-linejoin:round" id="rectSitu5yp4s1p" height="186.638" width="109.383" y="764.95697" x="363.63501"/>
      <g style="display:inline" transform="matrix(0.13348207,0,0,0.13348207,366.34656,785.5898)" id="gSitu5yp4s1q">
        <g transform="matrix(5.7423105,0,0,4.72543,-1637.6658,-1315.3638)" id="gSitu5yp4s1r">
          <path style="fill:#fa0000;fill-opacity:1;fill-rule:evenodd;stroke:none;stroke-width:1.41631114px;stroke-linecap:butt;stroke-linejoin:miter;stroke-opacity:1" d="m 379.08944,494.22751 c 0,0 -19.87151,7.52666 -30.15175,6.82018 -8.34422,-0.57343 -23.48608,-8.83164 -23.48608,-8.83164 -6.76873,-40.2363 -12.27318,-75.7527 -15.96043,-104.58055 -3.75662,-29.37026 27.11091,-99.89834 71.48311,-108.56716 -22.3495,36.2959 4.21779,74.33064 9.13193,106.50432 4.37276,28.62919 -12.90979,53.18573 -11.01678,108.65485 z" id="pathSitu5yp4s1s" inkscape:connector-curvature="0" sodipodi:nodetypes="cacscsc"/>
          <path style="display:inline;fill:#fa9e00;fill-opacity:1;fill-rule:evenodd;stroke:none;stroke-width:1.41631114px;stroke-linecap:butt;stroke-linejoin:miter;stroke-opacity:1" d="m 370.91372,486.81327 c 0,0 -13.32738,4.50217 -20.20401,4.24234 -6.861,-0.25924 -19.78122,-5.74181 -19.78122,-5.74181 -3.44843,-31.59225 -9.14925,-56.47113 -11.89797,-77.96132 -2.80043,-21.89457 7.22338,-78.55793 40.30138,-85.02024 -5.40548,31.9618 16.13114,59.49804 19.79446,83.48245 3.25976,21.34211 -9.62382,39.6482 -8.21264,80.99858 z" id="pathSitu5yp4s1t" inkscape:connector-curvature="0" sodipodi:nodetypes="cacscsc"/>
          <path style="display:inline;fill:#faee1f;fill-opacity:0.96819787;fill-rule:evenodd;stroke:none;stroke-width:1.41631114px;stroke-linecap:butt;stroke-linejoin:miter;stroke-opacity:1" d="m 363.42826,479.51618 c 0,0 -8.55728,3.93239 -13.0929,3.74627 -4.51032,-0.18508 -12.67087,-4.77959 -12.67087,-4.77959 -2.22193,-21.77119 -5.89515,-38.916 -7.66624,-53.72556 -1.80441,-15.0882 6.09578,-25.98067 22.21424,-51.68653 8.31237,23.55048 14.14704,34.09841 16.50743,50.62681 2.10037,14.70749 -6.20093,27.32278 -5.29166,55.8186 z" id="pathSitu5yp4s1u" inkscape:connector-curvature="0" sodipodi:nodetypes="cacscsc"/>
        </g>
        <text transform="scale(0.8958036,1.1163161)" sodipodi:linespacing="125%" id="textSitu5yp4s1v" y="788.13019" x="227.46906" style="font-style:normal;font-weight:normal;font-size:35.24084854px;line-height:125%;font-family:sans-serif;letter-spacing:0px;word-spacing:0px;fill:#000000;fill-opacity:1;stroke:none;stroke-width:1px;stroke-linecap:butt;stroke-linejoin:miter;stroke-opacity:1" space="preserve"><tspan style="font-size:563.85357666px" y="788.13019" x="227.46906" id="tspanSitu5yp4s1w" sodipodi:role="line">B</tspan></text>
      </g>
    </g> </svg>